%TF.GenerationSoftware,KiCad,Pcbnew,7.0.10-7.0.10~ubuntu22.04.1*%
%TF.CreationDate,2025-04-20T11:22:11+07:00*%
%TF.ProjectId,catan100,63617461-6e31-4303-902e-6b696361645f,rev?*%
%TF.SameCoordinates,Original*%
%TF.FileFunction,Legend,Bot*%
%TF.FilePolarity,Positive*%
%FSLAX46Y46*%
G04 Gerber Fmt 4.6, Leading zero omitted, Abs format (unit mm)*
G04 Created by KiCad (PCBNEW 7.0.10-7.0.10~ubuntu22.04.1) date 2025-04-20 11:22:11*
%MOMM*%
%LPD*%
G01*
G04 APERTURE LIST*
%ADD10C,0.150000*%
%ADD11C,0.120000*%
%ADD12C,0.500000*%
G04 APERTURE END LIST*
D10*
X238247435Y-258366393D02*
X238160279Y-257370198D01*
X238160279Y-257370198D02*
X237923090Y-257390950D01*
X237923090Y-257390950D02*
X237784927Y-257450839D01*
X237784927Y-257450839D02*
X237698351Y-257554015D01*
X237698351Y-257554015D02*
X237659214Y-257653041D01*
X237659214Y-257653041D02*
X237628377Y-257846942D01*
X237628377Y-257846942D02*
X237640828Y-257989256D01*
X237640828Y-257989256D02*
X237704867Y-258174857D01*
X237704867Y-258174857D02*
X237760606Y-258265582D01*
X237760606Y-258265582D02*
X237863782Y-258352158D01*
X237863782Y-258352158D02*
X238010246Y-258387145D01*
X238010246Y-258387145D02*
X238247435Y-258366393D01*
X236867587Y-258439313D02*
X236966613Y-258478451D01*
X236966613Y-258478451D02*
X237156364Y-258461849D01*
X237156364Y-258461849D02*
X237247090Y-258406111D01*
X237247090Y-258406111D02*
X237286227Y-258307085D01*
X237286227Y-258307085D02*
X237253025Y-257927582D01*
X237253025Y-257927582D02*
X237197287Y-257836857D01*
X237197287Y-257836857D02*
X237098261Y-257797720D01*
X237098261Y-257797720D02*
X236908509Y-257814321D01*
X236908509Y-257814321D02*
X236817784Y-257870059D01*
X236817784Y-257870059D02*
X236778646Y-257969085D01*
X236778646Y-257969085D02*
X236786947Y-258063961D01*
X236786947Y-258063961D02*
X237269626Y-258117334D01*
X236440646Y-258476666D02*
X236349921Y-258532404D01*
X236349921Y-258532404D02*
X236160170Y-258549005D01*
X236160170Y-258549005D02*
X236061144Y-258509868D01*
X236061144Y-258509868D02*
X236005405Y-258419143D01*
X236005405Y-258419143D02*
X236001255Y-258371705D01*
X236001255Y-258371705D02*
X236040392Y-258272679D01*
X236040392Y-258272679D02*
X236131118Y-258216940D01*
X236131118Y-258216940D02*
X236273431Y-258204489D01*
X236273431Y-258204489D02*
X236364157Y-258148751D01*
X236364157Y-258148751D02*
X236403294Y-258049725D01*
X236403294Y-258049725D02*
X236399144Y-258002287D01*
X236399144Y-258002287D02*
X236343405Y-257911562D01*
X236343405Y-257911562D02*
X236244379Y-257872425D01*
X236244379Y-257872425D02*
X236102066Y-257884875D01*
X236102066Y-257884875D02*
X236011340Y-257940614D01*
X235590915Y-258598809D02*
X235532811Y-257934679D01*
X235503760Y-257602614D02*
X235555348Y-257645901D01*
X235555348Y-257645901D02*
X235512060Y-257697490D01*
X235512060Y-257697490D02*
X235460472Y-257654202D01*
X235460472Y-257654202D02*
X235503760Y-257602614D01*
X235503760Y-257602614D02*
X235512060Y-257697490D01*
X234631493Y-258013534D02*
X234702048Y-258819977D01*
X234702048Y-258819977D02*
X234757786Y-258910703D01*
X234757786Y-258910703D02*
X234809374Y-258953990D01*
X234809374Y-258953990D02*
X234908400Y-258993127D01*
X234908400Y-258993127D02*
X235050714Y-258980677D01*
X235050714Y-258980677D02*
X235141439Y-258924938D01*
X234685446Y-258630226D02*
X234784472Y-258669363D01*
X234784472Y-258669363D02*
X234974224Y-258652762D01*
X234974224Y-258652762D02*
X235064949Y-258597024D01*
X235064949Y-258597024D02*
X235108237Y-258545436D01*
X235108237Y-258545436D02*
X235147374Y-258446410D01*
X235147374Y-258446410D02*
X235122472Y-258161783D01*
X235122472Y-258161783D02*
X235066734Y-258071057D01*
X235066734Y-258071057D02*
X235015146Y-258027770D01*
X235015146Y-258027770D02*
X234916120Y-257988632D01*
X234916120Y-257988632D02*
X234726369Y-258005233D01*
X234726369Y-258005233D02*
X234635643Y-258060972D01*
X234157114Y-258055037D02*
X234215218Y-258719166D01*
X234165415Y-258149912D02*
X234113827Y-258106625D01*
X234113827Y-258106625D02*
X234014801Y-258067487D01*
X234014801Y-258067487D02*
X233872487Y-258079938D01*
X233872487Y-258079938D02*
X233781762Y-258135677D01*
X233781762Y-258135677D02*
X233742625Y-258234703D01*
X233742625Y-258234703D02*
X233788278Y-258756519D01*
X232930246Y-258783786D02*
X233029272Y-258822923D01*
X233029272Y-258822923D02*
X233219023Y-258806322D01*
X233219023Y-258806322D02*
X233309749Y-258750584D01*
X233309749Y-258750584D02*
X233348886Y-258651558D01*
X233348886Y-258651558D02*
X233315684Y-258272055D01*
X233315684Y-258272055D02*
X233259946Y-258181330D01*
X233259946Y-258181330D02*
X233160920Y-258142192D01*
X233160920Y-258142192D02*
X232971168Y-258158793D01*
X232971168Y-258158793D02*
X232880443Y-258214532D01*
X232880443Y-258214532D02*
X232841306Y-258313558D01*
X232841306Y-258313558D02*
X232849606Y-258408433D01*
X232849606Y-258408433D02*
X233332285Y-258461806D01*
X232033077Y-258910079D02*
X231945921Y-257913884D01*
X232028927Y-258862641D02*
X232127953Y-258901778D01*
X232127953Y-258901778D02*
X232317704Y-258885177D01*
X232317704Y-258885177D02*
X232408430Y-258829439D01*
X232408430Y-258829439D02*
X232451717Y-258777851D01*
X232451717Y-258777851D02*
X232490855Y-258678825D01*
X232490855Y-258678825D02*
X232465953Y-258394198D01*
X232465953Y-258394198D02*
X232410215Y-258303472D01*
X232410215Y-258303472D02*
X232358626Y-258260185D01*
X232358626Y-258260185D02*
X232259600Y-258221048D01*
X232259600Y-258221048D02*
X232069849Y-258237649D01*
X232069849Y-258237649D02*
X231979124Y-258293387D01*
X230799693Y-259017986D02*
X230741589Y-258353856D01*
X230712537Y-258021791D02*
X230764125Y-258065079D01*
X230764125Y-258065079D02*
X230720838Y-258116667D01*
X230720838Y-258116667D02*
X230669250Y-258073380D01*
X230669250Y-258073380D02*
X230712537Y-258021791D01*
X230712537Y-258021791D02*
X230720838Y-258116667D01*
X230267211Y-258395359D02*
X230325315Y-259059489D01*
X230275512Y-258490235D02*
X230223924Y-258446947D01*
X230223924Y-258446947D02*
X230124898Y-258407810D01*
X230124898Y-258407810D02*
X229982584Y-258420261D01*
X229982584Y-258420261D02*
X229891859Y-258475999D01*
X229891859Y-258475999D02*
X229852721Y-258575025D01*
X229852721Y-258575025D02*
X229898374Y-259096841D01*
X228720148Y-258196103D02*
X228475239Y-259221350D01*
X228475239Y-259221350D02*
X228056018Y-258254207D01*
X227811109Y-259279453D02*
X227753005Y-258615324D01*
X227723953Y-258283259D02*
X227775541Y-258326546D01*
X227775541Y-258326546D02*
X227732254Y-258378134D01*
X227732254Y-258378134D02*
X227680666Y-258334847D01*
X227680666Y-258334847D02*
X227723953Y-258283259D01*
X227723953Y-258283259D02*
X227732254Y-258378134D01*
X226953078Y-259306720D02*
X227052104Y-259345858D01*
X227052104Y-259345858D02*
X227241855Y-259329257D01*
X227241855Y-259329257D02*
X227332581Y-259273518D01*
X227332581Y-259273518D02*
X227371718Y-259174492D01*
X227371718Y-259174492D02*
X227338516Y-258794990D01*
X227338516Y-258794990D02*
X227282777Y-258704264D01*
X227282777Y-258704264D02*
X227183751Y-258665127D01*
X227183751Y-258665127D02*
X226994000Y-258681728D01*
X226994000Y-258681728D02*
X226903275Y-258737466D01*
X226903275Y-258737466D02*
X226864137Y-258836492D01*
X226864137Y-258836492D02*
X226872438Y-258931368D01*
X226872438Y-258931368D02*
X227355117Y-258984741D01*
X227257876Y-258419637D02*
X227055674Y-258293925D01*
X227055674Y-258293925D02*
X226878373Y-258452839D01*
X227176031Y-259669622D02*
X227124443Y-259626334D01*
X227124443Y-259626334D02*
X227167731Y-259574746D01*
X227167731Y-259574746D02*
X227219319Y-259618034D01*
X227219319Y-259618034D02*
X227176031Y-259669622D01*
X227176031Y-259669622D02*
X227167731Y-259574746D01*
X226567059Y-258719080D02*
X226187557Y-258752283D01*
X226395694Y-258399466D02*
X226470399Y-259253347D01*
X226470399Y-259253347D02*
X226431261Y-259352373D01*
X226431261Y-259352373D02*
X226340536Y-259408112D01*
X226340536Y-259408112D02*
X226245660Y-259416412D01*
X225154589Y-259511869D02*
X225067434Y-258515674D01*
X225067434Y-258515674D02*
X224585335Y-259561672D01*
X224585335Y-259561672D02*
X224498179Y-258565477D01*
X223684016Y-259640527D02*
X223638363Y-259118711D01*
X223638363Y-259118711D02*
X223677501Y-259019685D01*
X223677501Y-259019685D02*
X223768226Y-258963947D01*
X223768226Y-258963947D02*
X223957977Y-258947345D01*
X223957977Y-258947345D02*
X224057003Y-258986483D01*
X223679866Y-259593089D02*
X223778892Y-259632227D01*
X223778892Y-259632227D02*
X224016081Y-259611475D01*
X224016081Y-259611475D02*
X224106807Y-259555737D01*
X224106807Y-259555737D02*
X224145944Y-259456711D01*
X224145944Y-259456711D02*
X224137643Y-259361835D01*
X224137643Y-259361835D02*
X224081905Y-259271110D01*
X224081905Y-259271110D02*
X223982879Y-259231973D01*
X223982879Y-259231973D02*
X223745690Y-259252724D01*
X223745690Y-259252724D02*
X223646664Y-259213587D01*
X223209638Y-259682030D02*
X223151534Y-259017900D01*
X223159834Y-259112776D02*
X223108246Y-259069488D01*
X223108246Y-259069488D02*
X223009220Y-259030351D01*
X223009220Y-259030351D02*
X222866907Y-259042802D01*
X222866907Y-259042802D02*
X222776181Y-259098540D01*
X222776181Y-259098540D02*
X222737044Y-259197566D01*
X222737044Y-259197566D02*
X222782697Y-259719382D01*
X222737044Y-259197566D02*
X222681306Y-259106841D01*
X222681306Y-259106841D02*
X222582280Y-259067703D01*
X222582280Y-259067703D02*
X222439966Y-259080154D01*
X222439966Y-259080154D02*
X222349241Y-259135893D01*
X222349241Y-259135893D02*
X222310104Y-259234919D01*
X222310104Y-259234919D02*
X222355757Y-259756735D01*
X238010038Y-259477502D02*
X237871875Y-259537390D01*
X237871875Y-259537390D02*
X237828587Y-259588979D01*
X237828587Y-259588979D02*
X237789450Y-259688005D01*
X237789450Y-259688005D02*
X237801901Y-259830318D01*
X237801901Y-259830318D02*
X237857639Y-259921043D01*
X237857639Y-259921043D02*
X237909227Y-259964331D01*
X237909227Y-259964331D02*
X238008253Y-260003468D01*
X238008253Y-260003468D02*
X238387756Y-259970266D01*
X238387756Y-259970266D02*
X238300600Y-258974071D01*
X238300600Y-258974071D02*
X237968535Y-259003123D01*
X237968535Y-259003123D02*
X237877810Y-259058862D01*
X237877810Y-259058862D02*
X237834522Y-259110450D01*
X237834522Y-259110450D02*
X237795385Y-259209476D01*
X237795385Y-259209476D02*
X237803685Y-259304352D01*
X237803685Y-259304352D02*
X237859424Y-259395077D01*
X237859424Y-259395077D02*
X237911012Y-259438365D01*
X237911012Y-259438365D02*
X238010038Y-259477502D01*
X238010038Y-259477502D02*
X238342103Y-259448450D01*
X237428333Y-259384992D02*
X237249248Y-260069873D01*
X236953955Y-259426494D02*
X237249248Y-260069873D01*
X237249248Y-260069873D02*
X237364875Y-260298761D01*
X237364875Y-260298761D02*
X237416463Y-260342049D01*
X237416463Y-260342049D02*
X237515489Y-260381186D01*
X235916837Y-260138643D02*
X235778674Y-260198531D01*
X235778674Y-260198531D02*
X235541485Y-260219283D01*
X235541485Y-260219283D02*
X235442459Y-260180145D01*
X235442459Y-260180145D02*
X235390871Y-260136858D01*
X235390871Y-260136858D02*
X235335132Y-260046132D01*
X235335132Y-260046132D02*
X235326832Y-259951257D01*
X235326832Y-259951257D02*
X235365969Y-259852231D01*
X235365969Y-259852231D02*
X235409257Y-259800643D01*
X235409257Y-259800643D02*
X235499982Y-259744904D01*
X235499982Y-259744904D02*
X235685583Y-259680865D01*
X235685583Y-259680865D02*
X235776309Y-259625127D01*
X235776309Y-259625127D02*
X235819596Y-259573539D01*
X235819596Y-259573539D02*
X235858733Y-259474513D01*
X235858733Y-259474513D02*
X235850433Y-259379637D01*
X235850433Y-259379637D02*
X235794694Y-259288912D01*
X235794694Y-259288912D02*
X235743106Y-259245624D01*
X235743106Y-259245624D02*
X235644080Y-259206487D01*
X235644080Y-259206487D02*
X235406891Y-259227238D01*
X235406891Y-259227238D02*
X235268728Y-259287127D01*
X234541140Y-260259001D02*
X234640166Y-260298138D01*
X234640166Y-260298138D02*
X234829917Y-260281537D01*
X234829917Y-260281537D02*
X234920642Y-260225798D01*
X234920642Y-260225798D02*
X234959780Y-260126772D01*
X234959780Y-260126772D02*
X234926578Y-259747270D01*
X234926578Y-259747270D02*
X234870839Y-259656544D01*
X234870839Y-259656544D02*
X234771813Y-259617407D01*
X234771813Y-259617407D02*
X234582062Y-259634008D01*
X234582062Y-259634008D02*
X234491336Y-259689746D01*
X234491336Y-259689746D02*
X234452199Y-259788772D01*
X234452199Y-259788772D02*
X234460500Y-259883648D01*
X234460500Y-259883648D02*
X234943179Y-259937021D01*
X233643971Y-260385294D02*
X233598318Y-259863477D01*
X233598318Y-259863477D02*
X233637455Y-259764451D01*
X233637455Y-259764451D02*
X233728181Y-259708713D01*
X233728181Y-259708713D02*
X233917932Y-259692112D01*
X233917932Y-259692112D02*
X234016958Y-259731249D01*
X233639821Y-260337856D02*
X233738847Y-260376993D01*
X233738847Y-260376993D02*
X233976036Y-260356242D01*
X233976036Y-260356242D02*
X234066761Y-260300503D01*
X234066761Y-260300503D02*
X234105898Y-260201477D01*
X234105898Y-260201477D02*
X234097598Y-260106602D01*
X234097598Y-260106602D02*
X234041860Y-260015876D01*
X234041860Y-260015876D02*
X233942834Y-259976739D01*
X233942834Y-259976739D02*
X233705644Y-259997490D01*
X233705644Y-259997490D02*
X233606618Y-259958353D01*
X233111488Y-259762667D02*
X233169592Y-260426796D01*
X233119789Y-259857542D02*
X233068201Y-259814255D01*
X233068201Y-259814255D02*
X232969175Y-259775117D01*
X232969175Y-259775117D02*
X232826861Y-259787568D01*
X232826861Y-259787568D02*
X232736136Y-259843307D01*
X232736136Y-259843307D02*
X232696999Y-259942333D01*
X232696999Y-259942333D02*
X232742652Y-260464149D01*
X231131550Y-260079292D02*
X230993386Y-260139180D01*
X230993386Y-260139180D02*
X230950099Y-260190768D01*
X230950099Y-260190768D02*
X230910961Y-260289794D01*
X230910961Y-260289794D02*
X230923412Y-260432108D01*
X230923412Y-260432108D02*
X230979151Y-260522833D01*
X230979151Y-260522833D02*
X231030739Y-260566121D01*
X231030739Y-260566121D02*
X231129765Y-260605258D01*
X231129765Y-260605258D02*
X231509267Y-260572056D01*
X231509267Y-260572056D02*
X231422112Y-259575861D01*
X231422112Y-259575861D02*
X231090047Y-259604913D01*
X231090047Y-259604913D02*
X230999321Y-259660652D01*
X230999321Y-259660652D02*
X230956034Y-259712240D01*
X230956034Y-259712240D02*
X230916897Y-259811266D01*
X230916897Y-259811266D02*
X230925197Y-259906141D01*
X230925197Y-259906141D02*
X230980936Y-259996867D01*
X230980936Y-259996867D02*
X231032524Y-260040154D01*
X231032524Y-260040154D02*
X231131550Y-260079292D01*
X231131550Y-260079292D02*
X231463614Y-260050240D01*
X230370759Y-260671662D02*
X230461485Y-260615924D01*
X230461485Y-260615924D02*
X230504772Y-260564336D01*
X230504772Y-260564336D02*
X230543910Y-260465310D01*
X230543910Y-260465310D02*
X230519008Y-260180683D01*
X230519008Y-260180683D02*
X230463270Y-260089958D01*
X230463270Y-260089958D02*
X230411681Y-260046670D01*
X230411681Y-260046670D02*
X230312655Y-260007533D01*
X230312655Y-260007533D02*
X230170342Y-260019984D01*
X230170342Y-260019984D02*
X230079617Y-260075722D01*
X230079617Y-260075722D02*
X230036329Y-260127310D01*
X230036329Y-260127310D02*
X229997192Y-260226336D01*
X229997192Y-260226336D02*
X230022093Y-260510963D01*
X230022093Y-260510963D02*
X230077832Y-260601688D01*
X230077832Y-260601688D02*
X230129420Y-260644976D01*
X230129420Y-260644976D02*
X230228446Y-260684113D01*
X230228446Y-260684113D02*
X230370759Y-260671662D01*
X229648526Y-260065637D02*
X229469440Y-260750518D01*
X229174147Y-260107139D02*
X229469440Y-260750518D01*
X229469440Y-260750518D02*
X229585067Y-260979406D01*
X229585067Y-260979406D02*
X229636655Y-261022694D01*
X229636655Y-261022694D02*
X229735681Y-261061831D01*
X228421657Y-260794386D02*
X228520683Y-260833523D01*
X228520683Y-260833523D02*
X228710434Y-260816922D01*
X228710434Y-260816922D02*
X228801160Y-260761184D01*
X228801160Y-260761184D02*
X228844447Y-260709596D01*
X228844447Y-260709596D02*
X228883585Y-260610570D01*
X228883585Y-260610570D02*
X228858683Y-260325943D01*
X228858683Y-260325943D02*
X228802945Y-260235217D01*
X228802945Y-260235217D02*
X228751357Y-260191930D01*
X228751357Y-260191930D02*
X228652331Y-260152792D01*
X228652331Y-260152792D02*
X228462579Y-260169393D01*
X228462579Y-260169393D02*
X228371854Y-260225132D01*
X227615214Y-260864941D02*
X227714240Y-260904078D01*
X227714240Y-260904078D02*
X227903991Y-260887477D01*
X227903991Y-260887477D02*
X227994716Y-260831738D01*
X227994716Y-260831738D02*
X228033854Y-260732712D01*
X228033854Y-260732712D02*
X228000651Y-260353210D01*
X228000651Y-260353210D02*
X227944913Y-260262484D01*
X227944913Y-260262484D02*
X227845887Y-260223347D01*
X227845887Y-260223347D02*
X227656136Y-260239948D01*
X227656136Y-260239948D02*
X227565410Y-260295686D01*
X227565410Y-260295686D02*
X227526273Y-260394712D01*
X227526273Y-260394712D02*
X227534574Y-260489588D01*
X227534574Y-260489588D02*
X228017253Y-260542961D01*
X129706666Y-193843580D02*
X129754285Y-193891200D01*
X129754285Y-193891200D02*
X129897142Y-193938819D01*
X129897142Y-193938819D02*
X129992380Y-193938819D01*
X129992380Y-193938819D02*
X130135237Y-193891200D01*
X130135237Y-193891200D02*
X130230475Y-193795961D01*
X130230475Y-193795961D02*
X130278094Y-193700723D01*
X130278094Y-193700723D02*
X130325713Y-193510247D01*
X130325713Y-193510247D02*
X130325713Y-193367390D01*
X130325713Y-193367390D02*
X130278094Y-193176914D01*
X130278094Y-193176914D02*
X130230475Y-193081676D01*
X130230475Y-193081676D02*
X130135237Y-192986438D01*
X130135237Y-192986438D02*
X129992380Y-192938819D01*
X129992380Y-192938819D02*
X129897142Y-192938819D01*
X129897142Y-192938819D02*
X129754285Y-192986438D01*
X129754285Y-192986438D02*
X129706666Y-193034057D01*
X129325713Y-193034057D02*
X129278094Y-192986438D01*
X129278094Y-192986438D02*
X129182856Y-192938819D01*
X129182856Y-192938819D02*
X128944761Y-192938819D01*
X128944761Y-192938819D02*
X128849523Y-192986438D01*
X128849523Y-192986438D02*
X128801904Y-193034057D01*
X128801904Y-193034057D02*
X128754285Y-193129295D01*
X128754285Y-193129295D02*
X128754285Y-193224533D01*
X128754285Y-193224533D02*
X128801904Y-193367390D01*
X128801904Y-193367390D02*
X129373332Y-193938819D01*
X129373332Y-193938819D02*
X128754285Y-193938819D01*
X147452417Y-170389789D02*
X147409129Y-170441377D01*
X147409129Y-170441377D02*
X147374142Y-170587841D01*
X147374142Y-170587841D02*
X147382443Y-170682717D01*
X147382443Y-170682717D02*
X147442331Y-170820880D01*
X147442331Y-170820880D02*
X147545508Y-170907455D01*
X147545508Y-170907455D02*
X147644534Y-170946592D01*
X147644534Y-170946592D02*
X147838435Y-170977429D01*
X147838435Y-170977429D02*
X147980749Y-170964978D01*
X147980749Y-170964978D02*
X148166350Y-170900939D01*
X148166350Y-170900939D02*
X148257075Y-170845201D01*
X148257075Y-170845201D02*
X148343650Y-170742025D01*
X148343650Y-170742025D02*
X148378637Y-170595561D01*
X148378637Y-170595561D02*
X148370337Y-170500685D01*
X148370337Y-170500685D02*
X148310448Y-170362522D01*
X148310448Y-170362522D02*
X148258860Y-170319234D01*
X147274536Y-169449333D02*
X147324339Y-170018587D01*
X147299437Y-169733960D02*
X148295632Y-169646804D01*
X148295632Y-169646804D02*
X148161619Y-169754131D01*
X148161619Y-169754131D02*
X148075044Y-169857307D01*
X148075044Y-169857307D02*
X148035907Y-169956333D01*
X129325666Y-199844819D02*
X129658999Y-199368628D01*
X129897094Y-199844819D02*
X129897094Y-198844819D01*
X129897094Y-198844819D02*
X129516142Y-198844819D01*
X129516142Y-198844819D02*
X129420904Y-198892438D01*
X129420904Y-198892438D02*
X129373285Y-198940057D01*
X129373285Y-198940057D02*
X129325666Y-199035295D01*
X129325666Y-199035295D02*
X129325666Y-199178152D01*
X129325666Y-199178152D02*
X129373285Y-199273390D01*
X129373285Y-199273390D02*
X129420904Y-199321009D01*
X129420904Y-199321009D02*
X129516142Y-199368628D01*
X129516142Y-199368628D02*
X129897094Y-199368628D01*
X128373285Y-199844819D02*
X128944713Y-199844819D01*
X128658999Y-199844819D02*
X128658999Y-198844819D01*
X128658999Y-198844819D02*
X128754237Y-198987676D01*
X128754237Y-198987676D02*
X128849475Y-199082914D01*
X128849475Y-199082914D02*
X128944713Y-199130533D01*
X135675666Y-199844819D02*
X136008999Y-199368628D01*
X136247094Y-199844819D02*
X136247094Y-198844819D01*
X136247094Y-198844819D02*
X135866142Y-198844819D01*
X135866142Y-198844819D02*
X135770904Y-198892438D01*
X135770904Y-198892438D02*
X135723285Y-198940057D01*
X135723285Y-198940057D02*
X135675666Y-199035295D01*
X135675666Y-199035295D02*
X135675666Y-199178152D01*
X135675666Y-199178152D02*
X135723285Y-199273390D01*
X135723285Y-199273390D02*
X135770904Y-199321009D01*
X135770904Y-199321009D02*
X135866142Y-199368628D01*
X135866142Y-199368628D02*
X136247094Y-199368628D01*
X135294713Y-198940057D02*
X135247094Y-198892438D01*
X135247094Y-198892438D02*
X135151856Y-198844819D01*
X135151856Y-198844819D02*
X134913761Y-198844819D01*
X134913761Y-198844819D02*
X134818523Y-198892438D01*
X134818523Y-198892438D02*
X134770904Y-198940057D01*
X134770904Y-198940057D02*
X134723285Y-199035295D01*
X134723285Y-199035295D02*
X134723285Y-199130533D01*
X134723285Y-199130533D02*
X134770904Y-199273390D01*
X134770904Y-199273390D02*
X135342332Y-199844819D01*
X135342332Y-199844819D02*
X134723285Y-199844819D01*
D11*
%TO.C,C2*%
X132000000Y-197344000D02*
X127790000Y-197344000D01*
X132000000Y-194324000D02*
X132000000Y-197344000D01*
X127790000Y-194324000D02*
X132000000Y-194324000D01*
%TO.C,C1*%
X145875739Y-170501545D02*
X145851234Y-170221455D01*
X146891858Y-170412647D02*
X146867353Y-170132557D01*
D12*
%TO.C,U1*%
X141507624Y-163379911D02*
G75*
G03*
X141107624Y-163379911I-200000J0D01*
G01*
X141107624Y-163379911D02*
G75*
G03*
X141507624Y-163379911I200000J0D01*
G01*
D11*
%TO.C,J1*%
X129561114Y-205406759D02*
X129125195Y-204784203D01*
X129125195Y-204784203D02*
X128502640Y-205220121D01*
X131162093Y-209785331D02*
X131118889Y-209723630D01*
X130399236Y-208695858D02*
X129481786Y-209338264D01*
X130390447Y-208683307D02*
X130408025Y-208708410D01*
X129670794Y-207655535D02*
X128753344Y-208297941D01*
X129662005Y-207642983D02*
X129679583Y-207668087D01*
X128680223Y-206798757D02*
X128024902Y-207257618D01*
X127917367Y-205709284D02*
X127262045Y-206168146D01*
X130244643Y-210427736D02*
X131162093Y-209785331D01*
X129696877Y-209645446D02*
X126420269Y-211939752D01*
X128968435Y-208605123D02*
X125691827Y-210899429D01*
X128239993Y-207564800D02*
X124963385Y-209859106D01*
X127752453Y-206868521D02*
X124475845Y-209162826D01*
X127683624Y-206770222D02*
X124407016Y-209064528D01*
X127614795Y-206671924D02*
X124338187Y-208966230D01*
X127545966Y-206573626D02*
X124269357Y-208867932D01*
X127511551Y-206524477D02*
X124234943Y-208818782D01*
X127262045Y-206168146D02*
X130244643Y-210427736D01*
X126718529Y-212365711D02*
X129995137Y-210071405D01*
X126420269Y-211939752D02*
X126718529Y-212365711D01*
X125990087Y-211325388D02*
X129266695Y-209031082D01*
X125691827Y-210899429D02*
X125990087Y-211325388D01*
X125261645Y-210285065D02*
X128538253Y-207990759D01*
X124963385Y-209859106D02*
X125261645Y-210285065D01*
X124533203Y-209244742D02*
X127809811Y-206950436D01*
X124234943Y-208818782D02*
X124533203Y-209244742D01*
%TD*%
M02*
