%TF.GenerationSoftware,KiCad,Pcbnew,7.0.10-7.0.10~ubuntu22.04.1*%
%TF.CreationDate,2025-04-20T12:02:29+07:00*%
%TF.ProjectId,catan100,63617461-6e31-4303-902e-6b696361645f,rev?*%
%TF.SameCoordinates,Original*%
%TF.FileFunction,Copper,L1,Top*%
%TF.FilePolarity,Positive*%
%FSLAX46Y46*%
G04 Gerber Fmt 4.6, Leading zero omitted, Abs format (unit mm)*
G04 Created by KiCad (PCBNEW 7.0.10-7.0.10~ubuntu22.04.1) date 2025-04-20 12:02:29*
%MOMM*%
%LPD*%
G01*
G04 APERTURE LIST*
G04 Aperture macros list*
%AMHorizOval*
0 Thick line with rounded ends*
0 $1 width*
0 $2 $3 position (X,Y) of the first rounded end (center of the circle)*
0 $4 $5 position (X,Y) of the second rounded end (center of the circle)*
0 Add line between two ends*
20,1,$1,$2,$3,$4,$5,0*
0 Add two circle primitives to create the rounded ends*
1,1,$1,$2,$3*
1,1,$1,$4,$5*%
%AMRotRect*
0 Rectangle, with rotation*
0 The origin of the aperture is its center*
0 $1 length*
0 $2 width*
0 $3 Rotation angle, in degrees counterclockwise*
0 Add horizontal line*
21,1,$1,$2,0,0,$3*%
G04 Aperture macros list end*
%TA.AperFunction,ComponentPad*%
%ADD10C,1.524000*%
%TD*%
%TA.AperFunction,SMDPad,CuDef*%
%ADD11RotRect,1.100000X2.000000X95.000000*%
%TD*%
%TA.AperFunction,ComponentPad*%
%ADD12RotRect,1.000000X1.000000X245.000000*%
%TD*%
%TA.AperFunction,ComponentPad*%
%ADD13HorizOval,1.000000X0.000000X0.000000X0.000000X0.000000X0*%
%TD*%
%TA.AperFunction,ViaPad*%
%ADD14C,0.800000*%
%TD*%
%TA.AperFunction,Conductor*%
%ADD15C,0.250000*%
%TD*%
G04 APERTURE END LIST*
D10*
%TO.P,U4,1,e*%
%TO.N,Net-(D1-BA)*%
X217942788Y-92676506D03*
%TO.P,U4,2,d*%
%TO.N,Net-(D1-GA)*%
X220473123Y-92455130D03*
%TO.P,U4,3,c*%
%TO.N,Net-(D1-RA)*%
X223003457Y-92233755D03*
%TO.P,U4,4,g*%
%TO.N,Net-(D2-BA)*%
X225533792Y-92012379D03*
%TO.P,U4,5,dp*%
%TO.N,Net-(D2-GA)*%
X228064126Y-91791004D03*
%TO.P,U4,6,b*%
%TO.N,Net-(U1-GRID7)*%
X227400000Y-84200000D03*
%TO.P,U4,7,a*%
%TO.N,Net-(D2-RA)*%
X224869665Y-84421376D03*
%TO.P,U4,8,b*%
%TO.N,Net-(U1-SEG7)*%
X222339331Y-84642751D03*
%TO.P,U4,9,g*%
%TO.N,Net-(U1-GRID8)*%
X219808996Y-84864127D03*
%TO.P,U4,10,f*%
%TO.N,Net-(U1-SEG8)*%
X217278662Y-85085502D03*
%TD*%
%TO.P,U6,1,e*%
%TO.N,Net-(D1-BA)*%
X192142788Y-111476506D03*
%TO.P,U6,2,d*%
%TO.N,Net-(D1-GA)*%
X194673123Y-111255130D03*
%TO.P,U6,3,c*%
%TO.N,Net-(D1-RA)*%
X197203457Y-111033755D03*
%TO.P,U6,4,g*%
%TO.N,Net-(D2-BA)*%
X199733792Y-110812379D03*
%TO.P,U6,5,dp*%
%TO.N,Net-(D2-GA)*%
X202264126Y-110591004D03*
%TO.P,U6,6,b*%
%TO.N,Net-(U1-GRID3)*%
X201600000Y-103000000D03*
%TO.P,U6,7,a*%
%TO.N,Net-(D2-RA)*%
X199069665Y-103221376D03*
%TO.P,U6,8,b*%
%TO.N,Net-(U1-SEG7)*%
X196539331Y-103442751D03*
%TO.P,U6,9,g*%
%TO.N,Net-(U1-GRID4)*%
X194008996Y-103664127D03*
%TO.P,U6,10,f*%
%TO.N,Net-(U1-SEG8)*%
X191478662Y-103885502D03*
%TD*%
D11*
%TO.P,D2,1,RK*%
%TO.N,Net-(D1-BK)*%
X190218265Y-62418348D03*
%TO.P,D2,2,GK*%
X190366430Y-64111879D03*
%TO.P,D2,3,BK*%
X190514594Y-65805410D03*
%TO.P,D2,4,BA*%
%TO.N,Net-(D2-BA)*%
X195296329Y-65387062D03*
%TO.P,D2,5,GA*%
%TO.N,Net-(D2-GA)*%
X195148164Y-63693531D03*
%TO.P,D2,6,RA*%
%TO.N,Net-(D2-RA)*%
X195000000Y-62000000D03*
%TD*%
D10*
%TO.P,U7,1,e*%
%TO.N,Net-(D1-BA)*%
X220873123Y-124655130D03*
%TO.P,U7,2,d*%
%TO.N,Net-(D1-GA)*%
X223403458Y-124433754D03*
%TO.P,U7,3,c*%
%TO.N,Net-(D1-RA)*%
X225933792Y-124212379D03*
%TO.P,U7,4,g*%
%TO.N,Net-(D2-BA)*%
X228464127Y-123991003D03*
%TO.P,U7,5,dp*%
%TO.N,Net-(D2-GA)*%
X230994461Y-123769628D03*
%TO.P,U7,6,b*%
%TO.N,Net-(U1-GRID1)*%
X230330335Y-116178624D03*
%TO.P,U7,7,a*%
%TO.N,Net-(D2-RA)*%
X227800000Y-116400000D03*
%TO.P,U7,8,b*%
%TO.N,Net-(U1-SEG7)*%
X225269666Y-116621375D03*
%TO.P,U7,9,g*%
%TO.N,Net-(U1-GRID2)*%
X222739331Y-116842751D03*
%TO.P,U7,10,f*%
%TO.N,Net-(U1-SEG8)*%
X220208997Y-117064126D03*
%TD*%
%TO.P,U2,1,e*%
%TO.N,Net-(D1-BA)*%
X159871394Y-65438253D03*
%TO.P,U2,2,d*%
%TO.N,Net-(D1-GA)*%
X162401729Y-65216877D03*
%TO.P,U2,3,c*%
%TO.N,Net-(D1-RA)*%
X164932063Y-64995502D03*
%TO.P,U2,4,g*%
%TO.N,Net-(D2-BA)*%
X167462398Y-64774126D03*
%TO.P,U2,5,dp*%
%TO.N,Net-(D2-GA)*%
X169992732Y-64552751D03*
%TO.P,U2,6,b*%
%TO.N,Net-(U1-GRID11)*%
X169328606Y-56961747D03*
%TO.P,U2,7,a*%
%TO.N,Net-(D2-RA)*%
X166798271Y-57183123D03*
%TO.P,U2,8,b*%
%TO.N,Net-(U1-SEG7)*%
X164267937Y-57404498D03*
%TO.P,U2,9,g*%
%TO.N,Net-(U1-GRID12)*%
X161737602Y-57625874D03*
%TO.P,U2,10,f*%
%TO.N,Net-(U1-SEG8)*%
X159207268Y-57847249D03*
%TD*%
D11*
%TO.P,D6,1,RK*%
%TO.N,Net-(D5-BK)*%
X222060968Y-107618348D03*
%TO.P,D6,2,GK*%
X222209133Y-109311879D03*
%TO.P,D6,3,BK*%
X222357297Y-111005410D03*
%TO.P,D6,4,BA*%
%TO.N,Net-(D2-BA)*%
X227139032Y-110587062D03*
%TO.P,D6,5,GA*%
%TO.N,Net-(D2-GA)*%
X226990867Y-108893531D03*
%TO.P,D6,6,RA*%
%TO.N,Net-(D2-RA)*%
X226842703Y-107200000D03*
%TD*%
%TO.P,D4,1,RK*%
%TO.N,Net-(D3-BK)*%
X163818265Y-80418348D03*
%TO.P,D4,2,GK*%
X163966430Y-82111879D03*
%TO.P,D4,3,BK*%
X164114594Y-83805410D03*
%TO.P,D4,4,BA*%
%TO.N,Net-(D2-BA)*%
X168896329Y-83387062D03*
%TO.P,D4,5,GA*%
%TO.N,Net-(D2-GA)*%
X168748164Y-81693531D03*
%TO.P,D4,6,RA*%
%TO.N,Net-(D2-RA)*%
X168600000Y-80000000D03*
%TD*%
%TO.P,D1,1,RK*%
%TO.N,Net-(D1-BK)*%
X161018265Y-48618348D03*
%TO.P,D1,2,GK*%
X161166430Y-50311879D03*
%TO.P,D1,3,BK*%
X161314594Y-52005410D03*
%TO.P,D1,4,BA*%
%TO.N,Net-(D1-BA)*%
X166096329Y-51587062D03*
%TO.P,D1,5,GA*%
%TO.N,Net-(D1-GA)*%
X165948164Y-49893531D03*
%TO.P,D1,6,RA*%
%TO.N,Net-(D1-RA)*%
X165800000Y-48200000D03*
%TD*%
D10*
%TO.P,U3,1,e*%
%TO.N,Net-(D1-BA)*%
X188942788Y-79076506D03*
%TO.P,U3,2,d*%
%TO.N,Net-(D1-GA)*%
X191473123Y-78855130D03*
%TO.P,U3,3,c*%
%TO.N,Net-(D1-RA)*%
X194003457Y-78633755D03*
%TO.P,U3,4,g*%
%TO.N,Net-(D2-BA)*%
X196533792Y-78412379D03*
%TO.P,U3,5,dp*%
%TO.N,Net-(D2-GA)*%
X199064126Y-78191004D03*
%TO.P,U3,6,b*%
%TO.N,Net-(U1-GRID9)*%
X198400000Y-70600000D03*
%TO.P,U3,7,a*%
%TO.N,Net-(D2-RA)*%
X195869665Y-70821376D03*
%TO.P,U3,8,b*%
%TO.N,Net-(U1-SEG7)*%
X193339331Y-71042751D03*
%TO.P,U3,9,g*%
%TO.N,Net-(U1-GRID10)*%
X190808996Y-71264127D03*
%TO.P,U3,10,f*%
%TO.N,Net-(U1-SEG8)*%
X188278662Y-71485502D03*
%TD*%
D11*
%TO.P,D5,1,RK*%
%TO.N,Net-(D5-BK)*%
X193060968Y-94315643D03*
%TO.P,D5,2,GK*%
X193209133Y-96009174D03*
%TO.P,D5,3,BK*%
X193357297Y-97702705D03*
%TO.P,D5,4,BA*%
%TO.N,Net-(D1-BA)*%
X198139032Y-97284357D03*
%TO.P,D5,5,GA*%
%TO.N,Net-(D1-GA)*%
X197990867Y-95590826D03*
%TO.P,D5,6,RA*%
%TO.N,Net-(D1-RA)*%
X197842703Y-93897295D03*
%TD*%
D10*
%TO.P,U5,1,e*%
%TO.N,Net-(D1-BA)*%
X162478662Y-97685502D03*
%TO.P,U5,2,d*%
%TO.N,Net-(D1-GA)*%
X165008997Y-97464126D03*
%TO.P,U5,3,c*%
%TO.N,Net-(D1-RA)*%
X167539331Y-97242751D03*
%TO.P,U5,4,g*%
%TO.N,Net-(D2-BA)*%
X170069666Y-97021375D03*
%TO.P,U5,5,dp*%
%TO.N,Net-(D2-GA)*%
X172600000Y-96800000D03*
%TO.P,U5,6,b*%
%TO.N,Net-(U1-GRID5)*%
X171935874Y-89208996D03*
%TO.P,U5,7,a*%
%TO.N,Net-(D2-RA)*%
X169405539Y-89430372D03*
%TO.P,U5,8,b*%
%TO.N,Net-(U1-SEG7)*%
X166875205Y-89651747D03*
%TO.P,U5,9,g*%
%TO.N,Net-(U1-GRID6)*%
X164344870Y-89873123D03*
%TO.P,U5,10,f*%
%TO.N,Net-(U1-SEG8)*%
X161814536Y-90094498D03*
%TD*%
D11*
%TO.P,D3,1,RK*%
%TO.N,Net-(D3-BK)*%
X219218265Y-75818348D03*
%TO.P,D3,2,GK*%
X219366430Y-77511879D03*
%TO.P,D3,3,BK*%
X219514594Y-79205410D03*
%TO.P,D3,4,BA*%
%TO.N,Net-(D1-BA)*%
X224296329Y-78787062D03*
%TO.P,D3,5,GA*%
%TO.N,Net-(D1-GA)*%
X224148164Y-77093531D03*
%TO.P,D3,6,RA*%
%TO.N,Net-(D1-RA)*%
X224000000Y-75400000D03*
%TD*%
D12*
%TO.P,J1,1,Pin_1*%
%TO.N,Net-(J1-Pin_1)*%
X171946967Y-111389824D03*
D13*
%TO.P,J1,2,Pin_2*%
%TO.N,Net-(J1-Pin_2)*%
X173097978Y-111926549D03*
%TO.P,J1,3,Pin_3*%
%TO.N,Net-(J1-Pin_3)*%
X174248989Y-112463274D03*
%TO.P,J1,4,Pin_4*%
%TO.N,Net-(J1-Pin_4)*%
X175400000Y-113000000D03*
%TD*%
D14*
%TO.N,Net-(J1-Pin_1)*%
X180800000Y-100600000D03*
%TO.N,Net-(J1-Pin_2)*%
X183000000Y-99800000D03*
X176600000Y-107200000D03*
%TO.N,Net-(D1-BK)*%
X188400000Y-61200000D03*
X189600000Y-56200000D03*
X187800000Y-64200000D03*
%TO.N,Net-(D1-BA)*%
X214476506Y-92676506D03*
X219800000Y-81400000D03*
X218600000Y-87000000D03*
X213200000Y-88200000D03*
X183000000Y-103600000D03*
X198400000Y-99200000D03*
%TO.N,Net-(D1-GA)*%
X188600000Y-102797426D03*
X203797964Y-89772659D03*
X202200000Y-90800000D03*
X221000000Y-87200000D03*
X222600000Y-89000000D03*
X157600000Y-69000000D03*
X186400000Y-105000000D03*
X221800000Y-81400000D03*
X190400000Y-101200000D03*
X155300000Y-63300000D03*
%TO.N,Net-(D1-RA)*%
X227400000Y-89800000D03*
X224800000Y-90000000D03*
X235000000Y-120400000D03*
X217400000Y-98800000D03*
X188400000Y-105800000D03*
X168000000Y-68200000D03*
X230600000Y-83200000D03*
X202490396Y-87509604D03*
X200787347Y-88812653D03*
X230887347Y-117887347D03*
X159000000Y-70000000D03*
X216600000Y-104675000D03*
%TO.N,Net-(D2-BA)*%
X225600000Y-95000000D03*
X173600000Y-87200000D03*
X190400000Y-67800000D03*
X229000000Y-110600000D03*
X170400000Y-84600000D03*
X224600000Y-103000000D03*
X186600000Y-74000000D03*
X231060874Y-109400000D03*
X175575855Y-73024145D03*
X190600000Y-107200000D03*
%TO.N,Net-(D2-GA)*%
X225400000Y-108600000D03*
X179400000Y-96200000D03*
X215600000Y-109400000D03*
X230200000Y-96200000D03*
X225000000Y-88600000D03*
X170600000Y-82200000D03*
X198200000Y-63200000D03*
X173200000Y-84200000D03*
%TO.N,Net-(D2-RA)*%
X227812653Y-99612653D03*
X227900000Y-96500000D03*
X221400000Y-101713000D03*
X174800000Y-60400000D03*
X221200000Y-103600000D03*
X168800000Y-77800000D03*
%TO.N,Net-(D3-BK)*%
X182800000Y-93400000D03*
X217000000Y-78600000D03*
X168000000Y-76200000D03*
X163600000Y-77600000D03*
%TO.N,Net-(D5-BK)*%
X195200000Y-92600000D03*
X191400000Y-97800000D03*
X222000000Y-105400000D03*
%TO.N,Net-(J1-Pin_3)*%
X187800000Y-101800000D03*
X174351011Y-110625923D03*
%TO.N,Net-(J1-Pin_4)*%
X165200000Y-99400000D03*
X170600000Y-99200000D03*
X175601120Y-110401120D03*
%TO.N,Net-(U1-GRID12)*%
X174800000Y-55400000D03*
X177800000Y-60600000D03*
%TO.N,Net-(U1-SEG7)*%
X166800000Y-73600000D03*
X220000000Y-103600000D03*
X220000000Y-100675000D03*
X168800000Y-93200000D03*
X171400000Y-67800000D03*
X168676878Y-61675000D03*
X171400000Y-63125000D03*
%TO.N,Net-(U1-SEG8)*%
X158000000Y-67000000D03*
X167400000Y-100800000D03*
X198600000Y-105000000D03*
X174400000Y-105000000D03*
X170859394Y-102340607D03*
X206600000Y-76547487D03*
%TO.N,Net-(U1-GRID3)*%
X178800000Y-97600000D03*
X194000000Y-100800000D03*
%TO.N,Net-(U1-GRID4)*%
X177400000Y-98400000D03*
%TO.N,Net-(U1-GRID6)*%
X172600000Y-91600000D03*
X170800000Y-91600000D03*
%TO.N,Net-(U1-GRID7)*%
X176000000Y-86000000D03*
X178800000Y-87400000D03*
X182800000Y-89400000D03*
X193600000Y-90800000D03*
X183200000Y-86800000D03*
X189800000Y-92600000D03*
%TO.N,Net-(U1-GRID8)*%
X198600000Y-87400000D03*
X185000000Y-96000000D03*
%TO.N,Net-(U1-GRID9)*%
X192200000Y-87600000D03*
X182800000Y-95000000D03*
%TO.N,Net-(U1-GRID10)*%
X182800000Y-90800000D03*
X187000000Y-79800000D03*
%TO.N,Net-(U1-GRID11)*%
X175400000Y-58600000D03*
%TD*%
D15*
%TO.N,Net-(J1-Pin_1)*%
X172048989Y-111263274D02*
X172048989Y-109351011D01*
X172048989Y-109351011D02*
X180800000Y-100600000D01*
%TO.N,Net-(J1-Pin_2)*%
X181200000Y-101400000D02*
X182800000Y-99800000D01*
X173200000Y-111800000D02*
X173200000Y-109400000D01*
X176400000Y-106200000D02*
X181200000Y-101400000D01*
X173200000Y-109400000D02*
X175800000Y-106800000D01*
X176400000Y-106200000D02*
X176600000Y-106400000D01*
X176600000Y-106400000D02*
X176600000Y-107200000D01*
X175800000Y-106800000D02*
X176400000Y-106200000D01*
X182800000Y-99800000D02*
X183000000Y-99800000D01*
%TO.N,Net-(D1-BK)*%
X170800000Y-44800000D02*
X182000000Y-56000000D01*
X182000000Y-56000000D02*
X182200000Y-56200000D01*
X188999917Y-61200000D02*
X190218265Y-62418348D01*
X188400000Y-61200000D02*
X188999917Y-61200000D01*
X190218265Y-62418348D02*
X190218265Y-63963714D01*
X190514594Y-65805410D02*
X190514594Y-64260043D01*
X182200000Y-56200000D02*
X189600000Y-56200000D01*
X161018265Y-48618348D02*
X161018265Y-50163714D01*
X187888121Y-64111879D02*
X190366430Y-64111879D01*
X165200000Y-44800000D02*
X170800000Y-44800000D01*
X190218265Y-63963714D02*
X190366430Y-64111879D01*
X161314594Y-50460043D02*
X161166430Y-50311879D01*
X161018265Y-48618348D02*
X164836613Y-44800000D01*
X164836613Y-44800000D02*
X165200000Y-44800000D01*
X161314594Y-52005410D02*
X161314594Y-50460043D01*
X187800000Y-64200000D02*
X187888121Y-64111879D01*
X161018265Y-50163714D02*
X161166430Y-50311879D01*
X190514594Y-64260043D02*
X190366430Y-64111879D01*
%TO.N,Net-(D1-BA)*%
X158200000Y-65400000D02*
X158242751Y-65442751D01*
X218600000Y-87000000D02*
X217400000Y-88200000D01*
X190676506Y-111276506D02*
X191942788Y-111276506D01*
X198139032Y-97284357D02*
X199515643Y-97284357D01*
X209400000Y-90600000D02*
X212400000Y-90600000D01*
X155400000Y-65800000D02*
X157800000Y-65800000D01*
X222412938Y-78787062D02*
X219800000Y-81400000D01*
X196066282Y-115400000D02*
X208600000Y-115400000D01*
X198400000Y-97545325D02*
X198139032Y-97284357D01*
X217400000Y-88200000D02*
X213200000Y-88200000D01*
X214476506Y-92676506D02*
X217942788Y-92676506D01*
X208600000Y-115400000D02*
X217885502Y-124685502D01*
X173373086Y-79076506D02*
X188942788Y-79076506D01*
X159739331Y-65442751D02*
X173373086Y-79076506D01*
X164812938Y-51587062D02*
X162400000Y-54000000D01*
X157800000Y-65800000D02*
X158200000Y-65400000D01*
X158242751Y-65442751D02*
X159739331Y-65442751D01*
X156875000Y-67275000D02*
X155400000Y-65800000D01*
X162478662Y-97685502D02*
X156875000Y-92081840D01*
X199515643Y-97284357D02*
X206200000Y-90600000D01*
X162400000Y-54000000D02*
X156200000Y-54000000D01*
X195000000Y-82000000D02*
X203600000Y-90600000D01*
X188942788Y-79076506D02*
X191866282Y-82000000D01*
X191866282Y-82000000D02*
X195000000Y-82000000D01*
X206200000Y-90600000D02*
X209400000Y-90600000D01*
X156200000Y-54000000D02*
X153000000Y-57200000D01*
X156875000Y-92081840D02*
X156875000Y-67275000D01*
X198400000Y-99200000D02*
X198400000Y-97545325D01*
X153000000Y-57200000D02*
X153000000Y-63400000D01*
X191942788Y-111276506D02*
X196066282Y-115400000D01*
X166096329Y-51587062D02*
X164812938Y-51587062D01*
X212400000Y-90600000D02*
X214476506Y-92676506D01*
X203600000Y-90600000D02*
X206200000Y-90600000D01*
X217885502Y-124685502D02*
X220878662Y-124685502D01*
X224296329Y-78787062D02*
X222412938Y-78787062D01*
X183000000Y-103600000D02*
X190676506Y-111276506D01*
X153000000Y-63400000D02*
X155400000Y-65800000D01*
%TO.N,Net-(D1-GA)*%
X168600000Y-53000000D02*
X168600000Y-50400000D01*
X192550753Y-78855130D02*
X203695623Y-90000000D01*
X155400000Y-63400000D02*
X155300000Y-63300000D01*
X226200000Y-78141547D02*
X226200000Y-81000000D01*
X153600000Y-61600000D02*
X153600000Y-57400000D01*
X160411895Y-63400000D02*
X155400000Y-63400000D01*
X224148164Y-77093531D02*
X225151984Y-77093531D01*
X193800000Y-101800000D02*
X191000000Y-101800000D01*
X160430093Y-63381802D02*
X160411895Y-63400000D01*
X195200000Y-98258888D02*
X195200000Y-101000000D01*
X221000000Y-88200000D02*
X221400000Y-88600000D01*
X223408997Y-124464126D02*
X220800000Y-121855129D01*
X165008997Y-97464126D02*
X157600000Y-90055129D01*
X197817993Y-114400000D02*
X194473123Y-111055130D01*
X194400000Y-101800000D02*
X193800000Y-101800000D01*
X197990867Y-95590826D02*
X197868062Y-95590826D01*
X168093531Y-49893531D02*
X165948164Y-49893531D01*
X195200000Y-101000000D02*
X194400000Y-101800000D01*
X191000000Y-101800000D02*
X190400000Y-101200000D01*
X167000000Y-54600000D02*
X168600000Y-53000000D01*
X190800000Y-109400000D02*
X192817993Y-109400000D01*
X157600000Y-71400000D02*
X157600000Y-69000000D01*
X188600000Y-102800000D02*
X186400000Y-105000000D01*
X225400000Y-81800000D02*
X222200000Y-81800000D01*
X197868062Y-95590826D02*
X195200000Y-98258888D01*
X197990867Y-95590826D02*
X198994687Y-95590826D01*
X226200000Y-81000000D02*
X225400000Y-81800000D01*
X225151984Y-77093531D02*
X226200000Y-78141547D01*
X209400000Y-114400000D02*
X197817993Y-114400000D01*
X222200000Y-88600000D02*
X222600000Y-89000000D01*
X198994687Y-95590826D02*
X202200000Y-92385513D01*
X191473123Y-78855130D02*
X192550753Y-78855130D01*
X153600000Y-57400000D02*
X156400000Y-54600000D01*
X221800000Y-88600000D02*
X222200000Y-88600000D01*
X162269666Y-65221375D02*
X173448291Y-76400000D01*
X157600000Y-90055129D02*
X157600000Y-89200000D01*
X189017993Y-76400000D02*
X191473123Y-78855130D01*
X222200000Y-81800000D02*
X221800000Y-81400000D01*
X157600000Y-89200000D02*
X157600000Y-71400000D01*
X203695623Y-90000000D02*
X218017993Y-90000000D01*
X156400000Y-54600000D02*
X167000000Y-54600000D01*
X168600000Y-50400000D02*
X168093531Y-49893531D01*
X216855129Y-121855129D02*
X209400000Y-114400000D01*
X188600000Y-102797426D02*
X188600000Y-102800000D01*
X155300000Y-63300000D02*
X153600000Y-61600000D01*
X186400000Y-105000000D02*
X190800000Y-109400000D01*
X192817993Y-109400000D02*
X194473123Y-111055130D01*
X173448291Y-76400000D02*
X189017993Y-76400000D01*
X220800000Y-121855129D02*
X216855129Y-121855129D01*
X162269666Y-65221375D02*
X160430093Y-63381802D01*
X221400000Y-88600000D02*
X221800000Y-88600000D01*
X221000000Y-87200000D02*
X221000000Y-88200000D01*
X218017993Y-90000000D02*
X220473123Y-92455130D01*
X202200000Y-92385513D02*
X202200000Y-90800000D01*
%TO.N,Net-(D1-RA)*%
X217786396Y-119750000D02*
X220000000Y-119750000D01*
X229024694Y-119750000D02*
X230887347Y-117887347D01*
X164600000Y-63400000D02*
X164800000Y-63600000D01*
X235000000Y-123400000D02*
X232200000Y-126200000D01*
X156600000Y-55050000D02*
X154050000Y-57600000D01*
X158200000Y-70800000D02*
X159000000Y-70000000D01*
X160385542Y-61800000D02*
X161985542Y-63400000D01*
X225000000Y-89800000D02*
X224800000Y-90000000D01*
X222496580Y-120800000D02*
X225939331Y-124242751D01*
X216600000Y-113000000D02*
X216000000Y-113600000D01*
X170600000Y-51600000D02*
X170600000Y-53200000D01*
X188400000Y-105800000D02*
X188400000Y-106025305D01*
X200787347Y-90952651D02*
X200787347Y-88812653D01*
X170600000Y-53200000D02*
X168750000Y-55050000D01*
X227896580Y-126200000D02*
X225939331Y-124242751D01*
X194003457Y-78633755D02*
X204919702Y-89550000D01*
X216000000Y-117963604D02*
X217786396Y-119750000D01*
X216600000Y-104675000D02*
X216600000Y-113000000D01*
X158200000Y-72800000D02*
X158200000Y-70800000D01*
X158590633Y-90409366D02*
X158200000Y-90018733D01*
X164800000Y-63600000D02*
X164800000Y-65000000D01*
X158200000Y-90018733D02*
X158200000Y-72800000D01*
X235000000Y-120400000D02*
X235000000Y-123400000D01*
X217400000Y-97837212D02*
X217400000Y-98800000D01*
X220000000Y-119750000D02*
X229024694Y-119750000D01*
X166200000Y-95400000D02*
X163581267Y-95400000D01*
X197003457Y-110833755D02*
X199819702Y-113650000D01*
X168000000Y-68200000D02*
X174800000Y-75000000D01*
X154050000Y-57600000D02*
X154050000Y-61050000D01*
X220319702Y-89550000D02*
X223003457Y-92233755D01*
X174800000Y-75000000D02*
X190369702Y-75000000D01*
X154050000Y-61050000D02*
X154800000Y-61800000D01*
X188400000Y-106025305D02*
X191174695Y-108800000D01*
X225003820Y-75400000D02*
X230600000Y-80996180D01*
X217200000Y-120800000D02*
X222496580Y-120800000D01*
X191174695Y-108800000D02*
X194969702Y-108800000D01*
X204919702Y-89550000D02*
X220319702Y-89550000D01*
X165800000Y-48200000D02*
X167200000Y-48200000D01*
X224000000Y-75400000D02*
X225003820Y-75400000D01*
X227400000Y-89800000D02*
X225000000Y-89800000D01*
X190369702Y-75000000D02*
X194003457Y-78633755D01*
X232200000Y-126200000D02*
X227896580Y-126200000D01*
X161985542Y-63400000D02*
X164600000Y-63400000D01*
X210050000Y-113650000D02*
X217200000Y-120800000D01*
X197842703Y-93897295D02*
X200787347Y-90952651D01*
X154800000Y-61800000D02*
X160385542Y-61800000D01*
X194969702Y-108800000D02*
X197003457Y-110833755D01*
X230600000Y-80996180D02*
X230600000Y-83200000D01*
X163581267Y-95400000D02*
X158590633Y-90409366D01*
X164800000Y-65000000D02*
X168000000Y-68200000D01*
X167200000Y-48200000D02*
X170600000Y-51600000D01*
X168750000Y-55050000D02*
X156600000Y-55050000D01*
X167539331Y-97242751D02*
X166200000Y-95903420D01*
X166200000Y-95903420D02*
X166200000Y-95400000D01*
X199819702Y-113650000D02*
X210050000Y-113650000D01*
X216000000Y-113600000D02*
X216000000Y-117963604D01*
X223003457Y-92233755D02*
X217400000Y-97837212D01*
%TO.N,Net-(D2-BA)*%
X226135212Y-110587062D02*
X224600000Y-109051850D01*
X190600000Y-107200000D02*
X191725000Y-108325000D01*
X193335871Y-74000000D02*
X196533792Y-77197921D01*
X210600000Y-113200000D02*
X217600000Y-120200000D01*
X199533792Y-110612379D02*
X202121413Y-113200000D01*
X192883391Y-67800000D02*
X195296329Y-65387062D01*
X224648291Y-120200000D02*
X228469666Y-124021375D01*
X225533792Y-92012379D02*
X223721413Y-90200000D01*
X223721413Y-90200000D02*
X222506953Y-90200000D01*
X228469666Y-124021375D02*
X228469666Y-121330334D01*
X186600000Y-74000000D02*
X193335871Y-74000000D01*
X197246413Y-108325000D02*
X199533792Y-110612379D01*
X196533792Y-80527694D02*
X196533792Y-78412379D01*
X231200000Y-109400000D02*
X231060874Y-109400000D01*
X167330335Y-64778624D02*
X169775855Y-67224145D01*
X168896329Y-83387062D02*
X169187062Y-83387062D01*
X191725000Y-108325000D02*
X197246413Y-108325000D01*
X227139032Y-110587062D02*
X226135212Y-110587062D01*
X205106098Y-89100000D02*
X196533792Y-80527694D01*
X224600000Y-109051850D02*
X224600000Y-103000000D01*
X225533792Y-94933792D02*
X225533792Y-92012379D01*
X232600000Y-117200000D02*
X232600000Y-110800000D01*
X228469666Y-121330334D02*
X232600000Y-117200000D01*
X222506953Y-90200000D02*
X221406953Y-89100000D01*
X221406953Y-89100000D02*
X205106098Y-89100000D01*
X227151970Y-110600000D02*
X227139032Y-110587062D01*
X202121413Y-113200000D02*
X210600000Y-113200000D01*
X169187062Y-83387062D02*
X170400000Y-84600000D01*
X232600000Y-110800000D02*
X231200000Y-109400000D01*
X225600000Y-95000000D02*
X225533792Y-94933792D01*
X173600000Y-87200000D02*
X173600000Y-91800000D01*
X229000000Y-110600000D02*
X227151970Y-110600000D01*
X169775855Y-67224145D02*
X175575855Y-73024145D01*
X173600000Y-91800000D02*
X170069666Y-95330334D01*
X217600000Y-120200000D02*
X224648291Y-120200000D01*
X175575855Y-73024145D02*
X176551711Y-74000000D01*
X196533792Y-77197921D02*
X196533792Y-78412379D01*
X170069666Y-95330334D02*
X170069666Y-97021375D01*
X176551711Y-74000000D02*
X186600000Y-74000000D01*
X190400000Y-67800000D02*
X192883391Y-67800000D01*
%TO.N,Net-(D2-GA)*%
X179400000Y-96200000D02*
X179400000Y-90400000D01*
X222400000Y-86400000D02*
X224600000Y-88600000D01*
X210800000Y-80600000D02*
X216575000Y-86375000D01*
X202264126Y-110591004D02*
X214408996Y-110591004D01*
X230100000Y-96300000D02*
X230200000Y-96200000D01*
X230088218Y-106800000D02*
X230100000Y-106788218D01*
X172600000Y-96800000D02*
X178800000Y-96800000D01*
X178800000Y-96800000D02*
X179400000Y-96200000D01*
X199064126Y-78191004D02*
X208391004Y-78191004D01*
X226990867Y-108893531D02*
X227994687Y-108893531D01*
X226697336Y-108600000D02*
X226990867Y-108893531D01*
X198200000Y-63200000D02*
X197706469Y-63693531D01*
X230994461Y-123769628D02*
X233000000Y-121764089D01*
X227994687Y-108893531D02*
X230088218Y-106800000D01*
X208391004Y-78191004D02*
X210800000Y-80600000D01*
X224600000Y-88600000D02*
X225000000Y-88600000D01*
X225400000Y-108600000D02*
X226697336Y-108600000D01*
X233000000Y-109711782D02*
X230088218Y-106800000D01*
X179400000Y-90400000D02*
X173200000Y-84200000D01*
X197706469Y-63693531D02*
X195148164Y-63693531D01*
X222375000Y-86375000D02*
X222400000Y-86400000D01*
X230100000Y-106788218D02*
X230100000Y-96300000D01*
X233000000Y-121764089D02*
X233000000Y-109711782D01*
X170600000Y-82200000D02*
X169254633Y-82200000D01*
X216575000Y-86375000D02*
X222375000Y-86375000D01*
X169254633Y-82200000D02*
X168748164Y-81693531D01*
X214408996Y-110591004D02*
X215600000Y-109400000D01*
%TO.N,Net-(D2-RA)*%
X195869665Y-70821376D02*
X195869665Y-72936689D01*
X182936396Y-61500000D02*
X190186396Y-68750000D01*
X180400000Y-61500000D02*
X182936396Y-61500000D01*
X221400000Y-101713000D02*
X222513000Y-101713000D01*
X170039293Y-60560707D02*
X170978587Y-61500000D01*
X190186396Y-68750000D02*
X193798289Y-68750000D01*
X227048289Y-86600000D02*
X224869665Y-84421376D01*
X168600000Y-80000000D02*
X168600000Y-78000000D01*
X227812653Y-106230050D02*
X227812653Y-99612653D01*
X195869665Y-72936689D02*
X198232976Y-75300000D01*
X221836396Y-113563604D02*
X220691838Y-112419046D01*
X169603820Y-80000000D02*
X168600000Y-80000000D01*
X171800000Y-82196180D02*
X169603820Y-80000000D01*
X210418198Y-78181802D02*
X214399463Y-78181802D01*
X223448289Y-83000000D02*
X224869665Y-84421376D01*
X193798289Y-68750000D02*
X195869665Y-70821376D01*
X166666208Y-57187621D02*
X170039293Y-60560707D01*
X222800000Y-83000000D02*
X223448289Y-83000000D01*
X194458285Y-61458285D02*
X193258285Y-61458285D01*
X228400000Y-86600000D02*
X227048289Y-86600000D01*
X195000000Y-62000000D02*
X194458285Y-61458285D01*
X220691838Y-112419046D02*
X220691838Y-104108162D01*
X174800000Y-60400000D02*
X170200000Y-60400000D01*
X168600000Y-78000000D02*
X168800000Y-77800000D01*
X214399463Y-78181802D02*
X219077029Y-82859368D01*
X169405539Y-89430372D02*
X169405539Y-86794461D01*
X231800000Y-92600000D02*
X231800000Y-90000000D01*
X227805539Y-116430372D02*
X224938771Y-113563604D01*
X191800000Y-60000000D02*
X181900000Y-60000000D01*
X207536396Y-75300000D02*
X210418198Y-78181802D01*
X193258285Y-61458285D02*
X191800000Y-60000000D01*
X169405539Y-86794461D02*
X171800000Y-84400000D01*
X171800000Y-84400000D02*
X171800000Y-82196180D01*
X170978587Y-61500000D02*
X180400000Y-61500000D01*
X227900000Y-96500000D02*
X231800000Y-92600000D01*
X198869665Y-103021376D02*
X200178041Y-101713000D01*
X200178041Y-101713000D02*
X221400000Y-101713000D01*
X181900000Y-60000000D02*
X180400000Y-61500000D01*
X224938771Y-113563604D02*
X221836396Y-113563604D01*
X226842703Y-107200000D02*
X227812653Y-106230050D01*
X227726000Y-96500000D02*
X227900000Y-96500000D01*
X170200000Y-60400000D02*
X170039293Y-60560707D01*
X219077029Y-82859368D02*
X222659368Y-82859368D01*
X231800000Y-90000000D02*
X228400000Y-86600000D01*
X220691838Y-104108162D02*
X221200000Y-103600000D01*
X222513000Y-101713000D02*
X227726000Y-96500000D01*
X198232976Y-75300000D02*
X207536396Y-75300000D01*
X222659368Y-82859368D02*
X222800000Y-83000000D01*
%TO.N,Net-(D3-BK)*%
X219366430Y-75966513D02*
X219218265Y-75818348D01*
X181600000Y-92200000D02*
X181600000Y-88000000D01*
X164114594Y-83805410D02*
X164114594Y-82260043D01*
X163966430Y-82111879D02*
X163966430Y-80566513D01*
X163818265Y-77818265D02*
X163818265Y-80418348D01*
X181600000Y-88000000D02*
X179800000Y-86200000D01*
X178800000Y-86200000D02*
X168800000Y-76200000D01*
X219366430Y-77511879D02*
X219366430Y-75966513D01*
X164114594Y-82260043D02*
X163966430Y-82111879D01*
X168800000Y-76200000D02*
X168000000Y-76200000D01*
X179800000Y-86200000D02*
X178800000Y-86200000D01*
X163600000Y-77600000D02*
X163818265Y-77818265D01*
X219366430Y-77511879D02*
X219366430Y-79057246D01*
X163966430Y-80566513D02*
X163818265Y-80418348D01*
X182800000Y-93400000D02*
X181600000Y-92200000D01*
X219514594Y-79205410D02*
X217605410Y-79205410D01*
X217605410Y-79205410D02*
X217000000Y-78600000D01*
X219366430Y-79057246D02*
X219514594Y-79205410D01*
%TO.N,Net-(D5-BK)*%
X193209133Y-96009174D02*
X193209133Y-94463808D01*
X193357297Y-97702705D02*
X193357297Y-96157338D01*
X194776611Y-92600000D02*
X193060968Y-94315643D01*
X222209133Y-109311879D02*
X222209133Y-107766513D01*
X222357297Y-111005410D02*
X222357297Y-109460043D01*
X193357297Y-96157338D02*
X193209133Y-96009174D01*
X222060968Y-105460968D02*
X222000000Y-105400000D01*
X193260002Y-97800000D02*
X193357297Y-97702705D01*
X195200000Y-92600000D02*
X194776611Y-92600000D01*
X222357297Y-109460043D02*
X222209133Y-109311879D01*
X193209133Y-94463808D02*
X193060968Y-94315643D01*
X191400000Y-97800000D02*
X193260002Y-97800000D01*
X222060968Y-107618348D02*
X222060968Y-105460968D01*
X222209133Y-107766513D02*
X222060968Y-107618348D01*
%TO.N,Net-(J1-Pin_3)*%
X174351011Y-112336725D02*
X174351011Y-110625923D01*
X183176934Y-101800000D02*
X187800000Y-101800000D01*
X174351011Y-110625923D02*
X183176934Y-101800000D01*
%TO.N,Net-(J1-Pin_4)*%
X165725000Y-98875000D02*
X170275000Y-98875000D01*
X175502022Y-110500218D02*
X175601120Y-110401120D01*
X170275000Y-98875000D02*
X170600000Y-99200000D01*
X175502022Y-112873450D02*
X175502022Y-110500218D01*
X165200000Y-99400000D02*
X165725000Y-98875000D01*
%TO.N,Net-(U1-GRID12)*%
X174800000Y-55400000D02*
X177800000Y-58400000D01*
X177800000Y-58400000D02*
X177800000Y-60600000D01*
%TO.N,Net-(U1-SEG7)*%
X230400000Y-92200000D02*
X230400000Y-90800000D01*
X223005260Y-114381802D02*
X222018198Y-114381802D01*
X218890633Y-83309368D02*
X221005948Y-83309368D01*
X166875205Y-89651747D02*
X166875205Y-73675205D01*
X193339331Y-71042751D02*
X198046580Y-75750000D01*
X220000000Y-112363604D02*
X220000000Y-103600000D01*
X166875205Y-73675205D02*
X166800000Y-73600000D01*
X166875205Y-91275205D02*
X166875205Y-89651747D01*
X190000000Y-69200000D02*
X191496580Y-69200000D01*
X214981265Y-79400000D02*
X218890633Y-83309368D01*
X211000000Y-79400000D02*
X214981265Y-79400000D01*
X225896580Y-88200000D02*
X222339331Y-84642751D01*
X227800000Y-88200000D02*
X225896580Y-88200000D01*
X168676878Y-61950000D02*
X182750000Y-61950000D01*
X196339331Y-103242751D02*
X199182082Y-100400000D01*
X207350000Y-75750000D02*
X211000000Y-79400000D01*
X168800000Y-93200000D02*
X166875205Y-91275205D01*
X230400000Y-90800000D02*
X227800000Y-88200000D01*
X222200000Y-100400000D02*
X230400000Y-92200000D01*
X222018198Y-114381802D02*
X220000000Y-112363604D01*
X171400000Y-67800000D02*
X171400000Y-63125000D01*
X191496580Y-69200000D02*
X193339331Y-71042751D01*
X225275205Y-116651747D02*
X223005260Y-114381802D01*
X164135874Y-57408996D02*
X168676878Y-61950000D01*
X198046580Y-75750000D02*
X207350000Y-75750000D01*
X221005948Y-83309368D02*
X222339331Y-84642751D01*
X182750000Y-61950000D02*
X190000000Y-69200000D01*
X199182082Y-100400000D02*
X222200000Y-100400000D01*
%TO.N,Net-(U1-SEG8)*%
X188278662Y-68878662D02*
X188278662Y-71485502D01*
X161814536Y-90094498D02*
X161814536Y-70814536D01*
X207652513Y-76547487D02*
X210855026Y-79750000D01*
X191478662Y-103885502D02*
X186692168Y-99099008D01*
X198349092Y-76547487D02*
X206600000Y-76547487D01*
X210855026Y-79750000D02*
X214836291Y-79750000D01*
X217278662Y-82192371D02*
X217278662Y-85085502D01*
X189044287Y-72251127D02*
X194052732Y-72251127D01*
X188278662Y-71485502D02*
X189044287Y-72251127D01*
X167400000Y-100800000D02*
X169318787Y-100800000D01*
X198600000Y-105000000D02*
X192593160Y-105000000D01*
X194052732Y-72251127D02*
X198349092Y-76547487D01*
X186692168Y-99099008D02*
X180300992Y-99099008D01*
X206600000Y-76547487D02*
X207652513Y-76547487D01*
X214836291Y-79750000D02*
X217278662Y-82192371D01*
X180300992Y-99099008D02*
X174400000Y-105000000D01*
X163860019Y-62500000D02*
X181900000Y-62500000D01*
X181900000Y-62500000D02*
X188278662Y-68878662D01*
X159207268Y-57847249D02*
X163860019Y-62500000D01*
X192593160Y-105000000D02*
X191478662Y-103885502D01*
X169318787Y-100800000D02*
X170859394Y-102340607D01*
X161814536Y-70814536D02*
X158000000Y-67000000D01*
%TO.N,Net-(U1-GRID3)*%
X190883884Y-100800000D02*
X187683884Y-97600000D01*
X194000000Y-100800000D02*
X190883884Y-100800000D01*
X187683884Y-97600000D02*
X178800000Y-97600000D01*
%TO.N,Net-(U1-GRID4)*%
X190986636Y-102898502D02*
X186488134Y-98400000D01*
X193243371Y-102898502D02*
X190986636Y-102898502D01*
X186488134Y-98400000D02*
X177400000Y-98400000D01*
X194008996Y-103664127D02*
X193243371Y-102898502D01*
%TO.N,Net-(U1-GRID6)*%
X170800000Y-91600000D02*
X172600000Y-91600000D01*
%TO.N,Net-(U1-GRID7)*%
X191600000Y-90800000D02*
X189800000Y-92600000D01*
X177400000Y-87400000D02*
X176000000Y-86000000D01*
X193600000Y-90800000D02*
X191600000Y-90800000D01*
X183200000Y-89000000D02*
X182800000Y-89400000D01*
X178800000Y-87400000D02*
X177400000Y-87400000D01*
X183200000Y-86800000D02*
X183200000Y-89000000D01*
%TO.N,Net-(U1-GRID8)*%
X193600000Y-87400000D02*
X198600000Y-87400000D01*
X185000000Y-96000000D02*
X193600000Y-87400000D01*
%TO.N,Net-(U1-GRID9)*%
X192200000Y-87600000D02*
X190200000Y-87600000D01*
X190200000Y-87600000D02*
X182800000Y-95000000D01*
%TO.N,Net-(U1-GRID10)*%
X187000000Y-79800000D02*
X187000000Y-86600000D01*
X187000000Y-86600000D02*
X182800000Y-90800000D01*
%TO.N,Net-(U1-GRID11)*%
X175400000Y-58600000D02*
X173761747Y-56961747D01*
X173761747Y-56961747D02*
X169328606Y-56961747D01*
%TD*%
M02*
