%TF.GenerationSoftware,KiCad,Pcbnew,7.0.10-7.0.10~ubuntu22.04.1*%
%TF.CreationDate,2025-04-20T12:02:29+07:00*%
%TF.ProjectId,catan100,63617461-6e31-4303-902e-6b696361645f,rev?*%
%TF.SameCoordinates,Original*%
%TF.FileFunction,Soldermask,Top*%
%TF.FilePolarity,Negative*%
%FSLAX46Y46*%
G04 Gerber Fmt 4.6, Leading zero omitted, Abs format (unit mm)*
G04 Created by KiCad (PCBNEW 7.0.10-7.0.10~ubuntu22.04.1) date 2025-04-20 12:02:29*
%MOMM*%
%LPD*%
G01*
G04 APERTURE LIST*
G04 Aperture macros list*
%AMHorizOval*
0 Thick line with rounded ends*
0 $1 width*
0 $2 $3 position (X,Y) of the first rounded end (center of the circle)*
0 $4 $5 position (X,Y) of the second rounded end (center of the circle)*
0 Add line between two ends*
20,1,$1,$2,$3,$4,$5,0*
0 Add two circle primitives to create the rounded ends*
1,1,$1,$2,$3*
1,1,$1,$4,$5*%
%AMRotRect*
0 Rectangle, with rotation*
0 The origin of the aperture is its center*
0 $1 length*
0 $2 width*
0 $3 Rotation angle, in degrees counterclockwise*
0 Add horizontal line*
21,1,$1,$2,0,0,$3*%
G04 Aperture macros list end*
%ADD10C,3.200000*%
%ADD11C,1.524000*%
%ADD12RotRect,1.100000X2.000000X95.000000*%
%ADD13RotRect,1.000000X1.000000X245.000000*%
%ADD14HorizOval,1.000000X0.000000X0.000000X0.000000X0.000000X0*%
G04 APERTURE END LIST*
D10*
%TO.C,H2*%
X208600000Y-58800000D03*
%TD*%
D11*
%TO.C,U4*%
X217942788Y-92676506D03*
X220473123Y-92455130D03*
X223003457Y-92233755D03*
X225533792Y-92012379D03*
X228064126Y-91791004D03*
X227400000Y-84200000D03*
X224869665Y-84421376D03*
X222339331Y-84642751D03*
X219808996Y-84864127D03*
X217278662Y-85085502D03*
%TD*%
%TO.C,U6*%
X192142788Y-111476506D03*
X194673123Y-111255130D03*
X197203457Y-111033755D03*
X199733792Y-110812379D03*
X202264126Y-110591004D03*
X201600000Y-103000000D03*
X199069665Y-103221376D03*
X196539331Y-103442751D03*
X194008996Y-103664127D03*
X191478662Y-103885502D03*
%TD*%
D10*
%TO.C,H1*%
X162200000Y-37000000D03*
%TD*%
D12*
%TO.C,D2*%
X190218265Y-62418348D03*
X190366430Y-64111879D03*
X190514594Y-65805410D03*
X195296329Y-65387062D03*
X195148164Y-63693531D03*
X195000000Y-62000000D03*
%TD*%
D11*
%TO.C,U7*%
X220873123Y-124655130D03*
X223403458Y-124433754D03*
X225933792Y-124212379D03*
X228464127Y-123991003D03*
X230994461Y-123769628D03*
X230330335Y-116178624D03*
X227800000Y-116400000D03*
X225269666Y-116621375D03*
X222739331Y-116842751D03*
X220208997Y-117064126D03*
%TD*%
%TO.C,U2*%
X159871394Y-65438253D03*
X162401729Y-65216877D03*
X164932063Y-64995502D03*
X167462398Y-64774126D03*
X169992732Y-64552751D03*
X169328606Y-56961747D03*
X166798271Y-57183123D03*
X164267937Y-57404498D03*
X161737602Y-57625874D03*
X159207268Y-57847249D03*
%TD*%
D12*
%TO.C,D6*%
X222060968Y-107618348D03*
X222209133Y-109311879D03*
X222357297Y-111005410D03*
X227139032Y-110587062D03*
X226990867Y-108893531D03*
X226842703Y-107200000D03*
%TD*%
%TO.C,D4*%
X163818265Y-80418348D03*
X163966430Y-82111879D03*
X164114594Y-83805410D03*
X168896329Y-83387062D03*
X168748164Y-81693531D03*
X168600000Y-80000000D03*
%TD*%
%TO.C,D1*%
X161018265Y-48618348D03*
X161166430Y-50311879D03*
X161314594Y-52005410D03*
X166096329Y-51587062D03*
X165948164Y-49893531D03*
X165800000Y-48200000D03*
%TD*%
D11*
%TO.C,U3*%
X188942788Y-79076506D03*
X191473123Y-78855130D03*
X194003457Y-78633755D03*
X196533792Y-78412379D03*
X199064126Y-78191004D03*
X198400000Y-70600000D03*
X195869665Y-70821376D03*
X193339331Y-71042751D03*
X190808996Y-71264127D03*
X188278662Y-71485502D03*
%TD*%
D12*
%TO.C,D5*%
X193060968Y-94315643D03*
X193209133Y-96009174D03*
X193357297Y-97702705D03*
X198139032Y-97284357D03*
X197990867Y-95590826D03*
X197842703Y-93897295D03*
%TD*%
D10*
%TO.C,H4*%
X167000000Y-109000000D03*
%TD*%
%TO.C,H5*%
X180400000Y-115400000D03*
%TD*%
D11*
%TO.C,U5*%
X162478662Y-97685502D03*
X165008997Y-97464126D03*
X167539331Y-97242751D03*
X170069666Y-97021375D03*
X172600000Y-96800000D03*
X171935874Y-89208996D03*
X169405539Y-89430372D03*
X166875205Y-89651747D03*
X164344870Y-89873123D03*
X161814536Y-90094498D03*
%TD*%
D12*
%TO.C,D3*%
X219218265Y-75818348D03*
X219366430Y-77511879D03*
X219514594Y-79205410D03*
X224296329Y-78787062D03*
X224148164Y-77093531D03*
X224000000Y-75400000D03*
%TD*%
D10*
%TO.C,H3*%
X240600000Y-104600000D03*
%TD*%
D13*
%TO.C,J1*%
X171946967Y-111389824D03*
D14*
X173097978Y-111926549D03*
X174248989Y-112463274D03*
X175400000Y-113000000D03*
%TD*%
M02*
