%TF.GenerationSoftware,KiCad,Pcbnew,7.0.10-7.0.10~ubuntu22.04.1*%
%TF.CreationDate,2025-04-20T12:02:29+07:00*%
%TF.ProjectId,catan100,63617461-6e31-4303-902e-6b696361645f,rev?*%
%TF.SameCoordinates,Original*%
%TF.FileFunction,Legend,Top*%
%TF.FilePolarity,Positive*%
%FSLAX46Y46*%
G04 Gerber Fmt 4.6, Leading zero omitted, Abs format (unit mm)*
G04 Created by KiCad (PCBNEW 7.0.10-7.0.10~ubuntu22.04.1) date 2025-04-20 12:02:29*
%MOMM*%
%LPD*%
G01*
G04 APERTURE LIST*
%ADD10C,0.150000*%
%ADD11C,0.100000*%
%ADD12C,0.120000*%
G04 APERTURE END LIST*
D10*
X177333792Y-103443699D02*
X185288303Y-86420439D01*
X217386755Y-132158934D02*
X235760205Y-130555255D01*
X145432096Y-57576192D02*
X156131113Y-72826489D01*
X185288303Y-86420439D02*
X203700066Y-84933998D01*
X230162915Y-66547021D02*
X211462892Y-68215893D01*
X156131113Y-72826489D02*
X148247425Y-89756168D01*
X235760205Y-130555255D02*
X243561877Y-113770567D01*
X174669682Y-71279840D02*
X182312020Y-54509356D01*
X182312020Y-54509356D02*
X171532267Y-39130805D01*
X171532267Y-39130805D02*
X153241294Y-40756131D01*
X240683989Y-81720525D02*
X230162915Y-66547021D01*
X243561877Y-113770567D02*
X232833005Y-98576910D01*
X206640877Y-116838896D02*
X217386755Y-132158934D01*
X188237362Y-118496103D02*
X177333792Y-103443699D01*
X156131113Y-72826489D02*
X174669682Y-71279840D01*
X203700066Y-84933998D02*
X211462892Y-68215893D01*
X206640877Y-116838896D02*
X188237362Y-118496103D01*
X211462892Y-68215893D02*
X200972536Y-52919098D01*
X232833005Y-98576910D02*
X240683989Y-81720525D01*
X214428417Y-100192959D02*
X206640877Y-116838896D01*
X200972536Y-52919098D02*
X182312020Y-54509356D01*
X214428417Y-100192959D02*
X232833005Y-98576910D01*
X158949621Y-105074810D02*
X177333792Y-103443699D01*
X174669682Y-71279840D02*
X185288303Y-86420439D01*
X153241294Y-40756131D02*
X145432096Y-57576192D01*
X158949621Y-105074810D02*
X148247425Y-89756168D01*
X203700066Y-84933998D02*
X214428417Y-100192959D01*
D11*
X221699185Y-89288125D02*
X222505628Y-89217570D01*
X222505628Y-89217570D02*
X222596353Y-89161832D01*
X222596353Y-89161832D02*
X222639641Y-89110244D01*
X222639641Y-89110244D02*
X222678778Y-89011218D01*
X222678778Y-89011218D02*
X222662177Y-88821467D01*
X222662177Y-88821467D02*
X222606439Y-88730741D01*
X222606439Y-88730741D02*
X222554851Y-88687454D01*
X222554851Y-88687454D02*
X222455825Y-88648316D01*
X222455825Y-88648316D02*
X221649381Y-88718871D01*
X221902591Y-87788500D02*
X222566721Y-87730396D01*
X221543840Y-88058891D02*
X222276159Y-88233827D01*
X222276159Y-88233827D02*
X222222205Y-87617135D01*
X195899185Y-108088125D02*
X196705628Y-108017570D01*
X196705628Y-108017570D02*
X196796353Y-107961832D01*
X196796353Y-107961832D02*
X196839641Y-107910244D01*
X196839641Y-107910244D02*
X196878778Y-107811218D01*
X196878778Y-107811218D02*
X196862177Y-107621467D01*
X196862177Y-107621467D02*
X196806439Y-107530741D01*
X196806439Y-107530741D02*
X196754851Y-107487454D01*
X196754851Y-107487454D02*
X196655825Y-107448316D01*
X196655825Y-107448316D02*
X195849381Y-107518871D01*
X195770526Y-106617552D02*
X195787127Y-106807303D01*
X195787127Y-106807303D02*
X195842866Y-106898029D01*
X195842866Y-106898029D02*
X195894454Y-106941316D01*
X195894454Y-106941316D02*
X196045068Y-107023741D01*
X196045068Y-107023741D02*
X196238969Y-107054578D01*
X196238969Y-107054578D02*
X196618472Y-107021376D01*
X196618472Y-107021376D02*
X196709198Y-106965637D01*
X196709198Y-106965637D02*
X196752485Y-106914049D01*
X196752485Y-106914049D02*
X196791622Y-106815023D01*
X196791622Y-106815023D02*
X196775021Y-106625272D01*
X196775021Y-106625272D02*
X196719283Y-106534546D01*
X196719283Y-106534546D02*
X196667695Y-106491259D01*
X196667695Y-106491259D02*
X196568669Y-106452122D01*
X196568669Y-106452122D02*
X196331480Y-106472873D01*
X196331480Y-106472873D02*
X196240754Y-106528611D01*
X196240754Y-106528611D02*
X196197467Y-106580199D01*
X196197467Y-106580199D02*
X196158329Y-106679225D01*
X196158329Y-106679225D02*
X196174931Y-106868977D01*
X196174931Y-106868977D02*
X196230669Y-106959702D01*
X196230669Y-106959702D02*
X196282257Y-107002990D01*
X196282257Y-107002990D02*
X196381283Y-107042127D01*
X224629520Y-121266749D02*
X225435963Y-121196194D01*
X225435963Y-121196194D02*
X225526688Y-121140456D01*
X225526688Y-121140456D02*
X225569976Y-121088868D01*
X225569976Y-121088868D02*
X225609113Y-120989842D01*
X225609113Y-120989842D02*
X225592512Y-120800091D01*
X225592512Y-120800091D02*
X225536774Y-120709365D01*
X225536774Y-120709365D02*
X225485186Y-120666078D01*
X225485186Y-120666078D02*
X225386160Y-120626940D01*
X225386160Y-120626940D02*
X224579716Y-120697495D01*
X224546514Y-120317992D02*
X224488410Y-119653862D01*
X224488410Y-119653862D02*
X225521957Y-119993647D01*
X163627791Y-62049872D02*
X164434234Y-61979317D01*
X164434234Y-61979317D02*
X164524959Y-61923579D01*
X164524959Y-61923579D02*
X164568247Y-61871991D01*
X164568247Y-61871991D02*
X164607384Y-61772965D01*
X164607384Y-61772965D02*
X164590783Y-61583214D01*
X164590783Y-61583214D02*
X164535045Y-61492488D01*
X164535045Y-61492488D02*
X164483457Y-61449201D01*
X164483457Y-61449201D02*
X164384431Y-61410063D01*
X164384431Y-61410063D02*
X163577987Y-61480618D01*
X163635511Y-61045377D02*
X163583922Y-61002089D01*
X163583922Y-61002089D02*
X163528184Y-60911364D01*
X163528184Y-60911364D02*
X163507433Y-60674175D01*
X163507433Y-60674175D02*
X163546570Y-60575149D01*
X163546570Y-60575149D02*
X163589858Y-60523561D01*
X163589858Y-60523561D02*
X163680583Y-60467822D01*
X163680583Y-60467822D02*
X163775459Y-60459522D01*
X163775459Y-60459522D02*
X163921922Y-60494509D01*
X163921922Y-60494509D02*
X164540980Y-61013959D01*
X164540980Y-61013959D02*
X164487026Y-60397268D01*
X192699185Y-75688125D02*
X193505628Y-75617570D01*
X193505628Y-75617570D02*
X193596353Y-75561832D01*
X193596353Y-75561832D02*
X193639641Y-75510244D01*
X193639641Y-75510244D02*
X193678778Y-75411218D01*
X193678778Y-75411218D02*
X193662177Y-75221467D01*
X193662177Y-75221467D02*
X193606439Y-75130741D01*
X193606439Y-75130741D02*
X193554851Y-75087454D01*
X193554851Y-75087454D02*
X193455825Y-75048316D01*
X193455825Y-75048316D02*
X192649381Y-75118871D01*
X192616179Y-74739368D02*
X192562226Y-74122676D01*
X192562226Y-74122676D02*
X192970780Y-74421539D01*
X192970780Y-74421539D02*
X192958329Y-74279225D01*
X192958329Y-74279225D02*
X192997467Y-74180199D01*
X192997467Y-74180199D02*
X193040754Y-74128611D01*
X193040754Y-74128611D02*
X193131480Y-74072873D01*
X193131480Y-74072873D02*
X193368669Y-74052122D01*
X193368669Y-74052122D02*
X193467695Y-74091259D01*
X193467695Y-74091259D02*
X193519283Y-74134546D01*
X193519283Y-74134546D02*
X193575021Y-74225272D01*
X193575021Y-74225272D02*
X193599923Y-74509899D01*
X193599923Y-74509899D02*
X193560786Y-74608925D01*
X193560786Y-74608925D02*
X193517498Y-74660513D01*
X166235059Y-94297121D02*
X167041502Y-94226566D01*
X167041502Y-94226566D02*
X167132227Y-94170828D01*
X167132227Y-94170828D02*
X167175515Y-94119240D01*
X167175515Y-94119240D02*
X167214652Y-94020214D01*
X167214652Y-94020214D02*
X167198051Y-93830463D01*
X167198051Y-93830463D02*
X167142313Y-93739737D01*
X167142313Y-93739737D02*
X167090725Y-93696450D01*
X167090725Y-93696450D02*
X166991699Y-93657312D01*
X166991699Y-93657312D02*
X166185255Y-93727867D01*
X166102250Y-92779110D02*
X166143753Y-93253489D01*
X166143753Y-93253489D02*
X166622281Y-93259424D01*
X166622281Y-93259424D02*
X166570693Y-93216136D01*
X166570693Y-93216136D02*
X166514955Y-93125411D01*
X166514955Y-93125411D02*
X166494203Y-92888221D01*
X166494203Y-92888221D02*
X166533341Y-92789195D01*
X166533341Y-92789195D02*
X166576628Y-92737607D01*
X166576628Y-92737607D02*
X166667354Y-92681869D01*
X166667354Y-92681869D02*
X166904543Y-92661118D01*
X166904543Y-92661118D02*
X167003569Y-92700255D01*
X167003569Y-92700255D02*
X167055157Y-92743542D01*
X167055157Y-92743542D02*
X167110895Y-92834268D01*
X167110895Y-92834268D02*
X167131647Y-93071457D01*
X167131647Y-93071457D02*
X167092509Y-93170483D01*
X167092509Y-93170483D02*
X167049222Y-93222071D01*
%TO.C,U4*%
X230578633Y-92765558D02*
X215635712Y-94072895D01*
X215635712Y-94072895D02*
X214764155Y-84110948D01*
X214764155Y-84110948D02*
X229707076Y-82803611D01*
X229707076Y-82803611D02*
X230578633Y-92765558D01*
%TO.C,U6*%
X204778633Y-111565558D02*
X189835712Y-112872895D01*
X189835712Y-112872895D02*
X188964155Y-102910948D01*
X188964155Y-102910948D02*
X203907076Y-101603611D01*
X203907076Y-101603611D02*
X204778633Y-111565558D01*
D12*
%TO.C,D2*%
X188935676Y-61526740D02*
X195012463Y-60995090D01*
X189031547Y-62622554D02*
X188935676Y-61526740D01*
X195483104Y-66374541D02*
X190502131Y-66810320D01*
D11*
%TO.C,U7*%
X233508968Y-124744182D02*
X218566047Y-126051519D01*
X218566047Y-126051519D02*
X217694490Y-116089572D01*
X217694490Y-116089572D02*
X232637411Y-114782235D01*
X232637411Y-114782235D02*
X233508968Y-124744182D01*
%TO.C,U2*%
X172507239Y-65527305D02*
X157564318Y-66834642D01*
X157564318Y-66834642D02*
X156692761Y-56872695D01*
X156692761Y-56872695D02*
X171635682Y-55565358D01*
X171635682Y-55565358D02*
X172507239Y-65527305D01*
D12*
%TO.C,D6*%
X220778379Y-106726740D02*
X226855166Y-106195090D01*
X220874250Y-107822554D02*
X220778379Y-106726740D01*
X227325807Y-111574541D02*
X222344834Y-112010320D01*
%TO.C,D4*%
X162535676Y-79526740D02*
X168612463Y-78995090D01*
X162631547Y-80622554D02*
X162535676Y-79526740D01*
X169083104Y-84374541D02*
X164102131Y-84810320D01*
%TO.C,D1*%
X159735676Y-47726740D02*
X165812463Y-47195090D01*
X159831547Y-48822554D02*
X159735676Y-47726740D01*
X166283104Y-52574541D02*
X161302131Y-53010320D01*
D11*
%TO.C,U3*%
X201578633Y-79165558D02*
X186635712Y-80472895D01*
X186635712Y-80472895D02*
X185764155Y-70510948D01*
X185764155Y-70510948D02*
X200707076Y-69203611D01*
X200707076Y-69203611D02*
X201578633Y-79165558D01*
D12*
%TO.C,D5*%
X191778379Y-93424035D02*
X197855166Y-92892385D01*
X191874250Y-94519849D02*
X191778379Y-93424035D01*
X198325807Y-98271836D02*
X193344834Y-98707615D01*
D11*
%TO.C,U5*%
X175114507Y-97774554D02*
X160171586Y-99081891D01*
X160171586Y-99081891D02*
X159300029Y-89119944D01*
X159300029Y-89119944D02*
X174242950Y-87812607D01*
X174242950Y-87812607D02*
X175114507Y-97774554D01*
D12*
%TO.C,D3*%
X217935676Y-74926740D02*
X224012463Y-74395090D01*
X218031547Y-76022554D02*
X217935676Y-74926740D01*
X224483104Y-79774541D02*
X219502131Y-80210320D01*
%TD*%
M02*
