%TF.GenerationSoftware,KiCad,Pcbnew,7.0.10-7.0.10~ubuntu22.04.1*%
%TF.CreationDate,2025-04-20T12:02:29+07:00*%
%TF.ProjectId,catan100,63617461-6e31-4303-902e-6b696361645f,rev?*%
%TF.SameCoordinates,Original*%
%TF.FileFunction,Legend,Bot*%
%TF.FilePolarity,Positive*%
%FSLAX46Y46*%
G04 Gerber Fmt 4.6, Leading zero omitted, Abs format (unit mm)*
G04 Created by KiCad (PCBNEW 7.0.10-7.0.10~ubuntu22.04.1) date 2025-04-20 12:02:29*
%MOMM*%
%LPD*%
G01*
G04 APERTURE LIST*
%ADD10C,0.150000*%
%ADD11C,0.200000*%
%ADD12C,0.120000*%
%ADD13C,0.500000*%
G04 APERTURE END LIST*
D10*
X161653696Y-100018104D02*
X161691792Y-100056200D01*
X161691792Y-100056200D02*
X161806077Y-100094295D01*
X161806077Y-100094295D02*
X161882268Y-100094295D01*
X161882268Y-100094295D02*
X161996554Y-100056200D01*
X161996554Y-100056200D02*
X162072744Y-99980009D01*
X162072744Y-99980009D02*
X162110839Y-99903819D01*
X162110839Y-99903819D02*
X162148935Y-99751438D01*
X162148935Y-99751438D02*
X162148935Y-99637152D01*
X162148935Y-99637152D02*
X162110839Y-99484771D01*
X162110839Y-99484771D02*
X162072744Y-99408580D01*
X162072744Y-99408580D02*
X161996554Y-99332390D01*
X161996554Y-99332390D02*
X161882268Y-99294295D01*
X161882268Y-99294295D02*
X161806077Y-99294295D01*
X161806077Y-99294295D02*
X161691792Y-99332390D01*
X161691792Y-99332390D02*
X161653696Y-99370485D01*
X160891792Y-100094295D02*
X161348935Y-100094295D01*
X161120363Y-100094295D02*
X161120363Y-99294295D01*
X161120363Y-99294295D02*
X161196554Y-99408580D01*
X161196554Y-99408580D02*
X161272744Y-99484771D01*
X161272744Y-99484771D02*
X161348935Y-99522866D01*
D11*
X169360308Y-118124386D02*
X169298787Y-118151777D01*
X169298787Y-118151777D02*
X169148353Y-118145038D01*
X169148353Y-118145038D02*
X169059441Y-118110908D01*
X169059441Y-118110908D02*
X168943137Y-118015256D01*
X168943137Y-118015256D02*
X168888355Y-117892213D01*
X168888355Y-117892213D02*
X168878029Y-117786236D01*
X168878029Y-117786236D02*
X168901834Y-117591346D01*
X168901834Y-117591346D02*
X168953029Y-117457977D01*
X168953029Y-117457977D02*
X169065746Y-117297217D01*
X169065746Y-117297217D02*
X169144332Y-117225370D01*
X169144332Y-117225370D02*
X169267375Y-117170588D01*
X169267375Y-117170588D02*
X169417809Y-117177327D01*
X169417809Y-117177327D02*
X169506721Y-117211458D01*
X169506721Y-117211458D02*
X169623025Y-117307109D01*
X169623025Y-117307109D02*
X169650416Y-117368631D01*
X169726284Y-118366885D02*
X170084652Y-117433304D01*
X170084652Y-117433304D02*
X170306933Y-117518630D01*
X170306933Y-117518630D02*
X170423237Y-117614282D01*
X170423237Y-117614282D02*
X170478019Y-117737324D01*
X170478019Y-117737324D02*
X170488345Y-117843302D01*
X170488345Y-117843302D02*
X170464540Y-118038192D01*
X170464540Y-118038192D02*
X170413345Y-118171561D01*
X170413345Y-118171561D02*
X170300628Y-118332320D01*
X170300628Y-118332320D02*
X170222042Y-118404168D01*
X170222042Y-118404168D02*
X170098999Y-118458950D01*
X170098999Y-118458950D02*
X169948565Y-118452210D01*
X169948565Y-118452210D02*
X169726284Y-118366885D01*
X170796386Y-118369603D02*
X171507685Y-118642645D01*
X171952247Y-118813297D02*
X172663546Y-119086339D01*
X172171375Y-119305467D02*
X172444418Y-118594168D01*
D10*
X229027235Y-69872993D02*
X228940079Y-68876798D01*
X228940079Y-68876798D02*
X228702890Y-68897550D01*
X228702890Y-68897550D02*
X228564727Y-68957439D01*
X228564727Y-68957439D02*
X228478151Y-69060615D01*
X228478151Y-69060615D02*
X228439014Y-69159641D01*
X228439014Y-69159641D02*
X228408177Y-69353542D01*
X228408177Y-69353542D02*
X228420628Y-69495856D01*
X228420628Y-69495856D02*
X228484667Y-69681457D01*
X228484667Y-69681457D02*
X228540406Y-69772182D01*
X228540406Y-69772182D02*
X228643582Y-69858758D01*
X228643582Y-69858758D02*
X228790046Y-69893745D01*
X228790046Y-69893745D02*
X229027235Y-69872993D01*
X227647387Y-69945913D02*
X227746413Y-69985051D01*
X227746413Y-69985051D02*
X227936164Y-69968449D01*
X227936164Y-69968449D02*
X228026890Y-69912711D01*
X228026890Y-69912711D02*
X228066027Y-69813685D01*
X228066027Y-69813685D02*
X228032825Y-69434182D01*
X228032825Y-69434182D02*
X227977087Y-69343457D01*
X227977087Y-69343457D02*
X227878061Y-69304320D01*
X227878061Y-69304320D02*
X227688309Y-69320921D01*
X227688309Y-69320921D02*
X227597584Y-69376659D01*
X227597584Y-69376659D02*
X227558446Y-69475685D01*
X227558446Y-69475685D02*
X227566747Y-69570561D01*
X227566747Y-69570561D02*
X228049426Y-69623934D01*
X227220446Y-69983266D02*
X227129721Y-70039004D01*
X227129721Y-70039004D02*
X226939970Y-70055605D01*
X226939970Y-70055605D02*
X226840944Y-70016468D01*
X226840944Y-70016468D02*
X226785205Y-69925743D01*
X226785205Y-69925743D02*
X226781055Y-69878305D01*
X226781055Y-69878305D02*
X226820192Y-69779279D01*
X226820192Y-69779279D02*
X226910918Y-69723540D01*
X226910918Y-69723540D02*
X227053231Y-69711089D01*
X227053231Y-69711089D02*
X227143957Y-69655351D01*
X227143957Y-69655351D02*
X227183094Y-69556325D01*
X227183094Y-69556325D02*
X227178944Y-69508887D01*
X227178944Y-69508887D02*
X227123205Y-69418162D01*
X227123205Y-69418162D02*
X227024179Y-69379025D01*
X227024179Y-69379025D02*
X226881866Y-69391475D01*
X226881866Y-69391475D02*
X226791140Y-69447214D01*
X226370715Y-70105409D02*
X226312611Y-69441279D01*
X226283560Y-69109214D02*
X226335148Y-69152501D01*
X226335148Y-69152501D02*
X226291860Y-69204090D01*
X226291860Y-69204090D02*
X226240272Y-69160802D01*
X226240272Y-69160802D02*
X226283560Y-69109214D01*
X226283560Y-69109214D02*
X226291860Y-69204090D01*
X225411293Y-69520134D02*
X225481848Y-70326577D01*
X225481848Y-70326577D02*
X225537586Y-70417303D01*
X225537586Y-70417303D02*
X225589174Y-70460590D01*
X225589174Y-70460590D02*
X225688200Y-70499727D01*
X225688200Y-70499727D02*
X225830514Y-70487277D01*
X225830514Y-70487277D02*
X225921239Y-70431538D01*
X225465246Y-70136826D02*
X225564272Y-70175963D01*
X225564272Y-70175963D02*
X225754024Y-70159362D01*
X225754024Y-70159362D02*
X225844749Y-70103624D01*
X225844749Y-70103624D02*
X225888037Y-70052036D01*
X225888037Y-70052036D02*
X225927174Y-69953010D01*
X225927174Y-69953010D02*
X225902272Y-69668383D01*
X225902272Y-69668383D02*
X225846534Y-69577657D01*
X225846534Y-69577657D02*
X225794946Y-69534370D01*
X225794946Y-69534370D02*
X225695920Y-69495232D01*
X225695920Y-69495232D02*
X225506169Y-69511833D01*
X225506169Y-69511833D02*
X225415443Y-69567572D01*
X224936914Y-69561637D02*
X224995018Y-70225766D01*
X224945215Y-69656512D02*
X224893627Y-69613225D01*
X224893627Y-69613225D02*
X224794601Y-69574087D01*
X224794601Y-69574087D02*
X224652287Y-69586538D01*
X224652287Y-69586538D02*
X224561562Y-69642277D01*
X224561562Y-69642277D02*
X224522425Y-69741303D01*
X224522425Y-69741303D02*
X224568078Y-70263119D01*
X223710046Y-70290386D02*
X223809072Y-70329523D01*
X223809072Y-70329523D02*
X223998823Y-70312922D01*
X223998823Y-70312922D02*
X224089549Y-70257184D01*
X224089549Y-70257184D02*
X224128686Y-70158158D01*
X224128686Y-70158158D02*
X224095484Y-69778655D01*
X224095484Y-69778655D02*
X224039746Y-69687930D01*
X224039746Y-69687930D02*
X223940720Y-69648792D01*
X223940720Y-69648792D02*
X223750968Y-69665393D01*
X223750968Y-69665393D02*
X223660243Y-69721132D01*
X223660243Y-69721132D02*
X223621106Y-69820158D01*
X223621106Y-69820158D02*
X223629406Y-69915033D01*
X223629406Y-69915033D02*
X224112085Y-69968406D01*
X222812877Y-70416679D02*
X222725721Y-69420484D01*
X222808727Y-70369241D02*
X222907753Y-70408378D01*
X222907753Y-70408378D02*
X223097504Y-70391777D01*
X223097504Y-70391777D02*
X223188230Y-70336039D01*
X223188230Y-70336039D02*
X223231517Y-70284451D01*
X223231517Y-70284451D02*
X223270655Y-70185425D01*
X223270655Y-70185425D02*
X223245753Y-69900798D01*
X223245753Y-69900798D02*
X223190015Y-69810072D01*
X223190015Y-69810072D02*
X223138426Y-69766785D01*
X223138426Y-69766785D02*
X223039400Y-69727648D01*
X223039400Y-69727648D02*
X222849649Y-69744249D01*
X222849649Y-69744249D02*
X222758924Y-69799987D01*
X221579493Y-70524586D02*
X221521389Y-69860456D01*
X221492337Y-69528391D02*
X221543925Y-69571679D01*
X221543925Y-69571679D02*
X221500638Y-69623267D01*
X221500638Y-69623267D02*
X221449050Y-69579980D01*
X221449050Y-69579980D02*
X221492337Y-69528391D01*
X221492337Y-69528391D02*
X221500638Y-69623267D01*
X221047011Y-69901959D02*
X221105115Y-70566089D01*
X221055312Y-69996835D02*
X221003724Y-69953547D01*
X221003724Y-69953547D02*
X220904698Y-69914410D01*
X220904698Y-69914410D02*
X220762384Y-69926861D01*
X220762384Y-69926861D02*
X220671659Y-69982599D01*
X220671659Y-69982599D02*
X220632521Y-70081625D01*
X220632521Y-70081625D02*
X220678174Y-70603441D01*
X219499948Y-69702703D02*
X219255039Y-70727950D01*
X219255039Y-70727950D02*
X218835818Y-69760807D01*
X218590909Y-70786053D02*
X218532805Y-70121924D01*
X218503753Y-69789859D02*
X218555341Y-69833146D01*
X218555341Y-69833146D02*
X218512054Y-69884734D01*
X218512054Y-69884734D02*
X218460466Y-69841447D01*
X218460466Y-69841447D02*
X218503753Y-69789859D01*
X218503753Y-69789859D02*
X218512054Y-69884734D01*
X217732878Y-70813320D02*
X217831904Y-70852458D01*
X217831904Y-70852458D02*
X218021655Y-70835857D01*
X218021655Y-70835857D02*
X218112381Y-70780118D01*
X218112381Y-70780118D02*
X218151518Y-70681092D01*
X218151518Y-70681092D02*
X218118316Y-70301590D01*
X218118316Y-70301590D02*
X218062577Y-70210864D01*
X218062577Y-70210864D02*
X217963551Y-70171727D01*
X217963551Y-70171727D02*
X217773800Y-70188328D01*
X217773800Y-70188328D02*
X217683075Y-70244066D01*
X217683075Y-70244066D02*
X217643937Y-70343092D01*
X217643937Y-70343092D02*
X217652238Y-70437968D01*
X217652238Y-70437968D02*
X218134917Y-70491341D01*
X218037676Y-69926237D02*
X217835474Y-69800525D01*
X217835474Y-69800525D02*
X217658173Y-69959439D01*
X217955831Y-71176222D02*
X217904243Y-71132934D01*
X217904243Y-71132934D02*
X217947531Y-71081346D01*
X217947531Y-71081346D02*
X217999119Y-71124634D01*
X217999119Y-71124634D02*
X217955831Y-71176222D01*
X217955831Y-71176222D02*
X217947531Y-71081346D01*
X217346859Y-70225680D02*
X216967357Y-70258883D01*
X217175494Y-69906066D02*
X217250199Y-70759947D01*
X217250199Y-70759947D02*
X217211061Y-70858973D01*
X217211061Y-70858973D02*
X217120336Y-70914712D01*
X217120336Y-70914712D02*
X217025460Y-70923012D01*
X215934389Y-71018469D02*
X215847234Y-70022274D01*
X215847234Y-70022274D02*
X215365135Y-71068272D01*
X215365135Y-71068272D02*
X215277979Y-70072077D01*
X214463816Y-71147127D02*
X214418163Y-70625311D01*
X214418163Y-70625311D02*
X214457301Y-70526285D01*
X214457301Y-70526285D02*
X214548026Y-70470547D01*
X214548026Y-70470547D02*
X214737777Y-70453945D01*
X214737777Y-70453945D02*
X214836803Y-70493083D01*
X214459666Y-71099689D02*
X214558692Y-71138827D01*
X214558692Y-71138827D02*
X214795881Y-71118075D01*
X214795881Y-71118075D02*
X214886607Y-71062337D01*
X214886607Y-71062337D02*
X214925744Y-70963311D01*
X214925744Y-70963311D02*
X214917443Y-70868435D01*
X214917443Y-70868435D02*
X214861705Y-70777710D01*
X214861705Y-70777710D02*
X214762679Y-70738573D01*
X214762679Y-70738573D02*
X214525490Y-70759324D01*
X214525490Y-70759324D02*
X214426464Y-70720187D01*
X213989438Y-71188630D02*
X213931334Y-70524500D01*
X213939634Y-70619376D02*
X213888046Y-70576088D01*
X213888046Y-70576088D02*
X213789020Y-70536951D01*
X213789020Y-70536951D02*
X213646707Y-70549402D01*
X213646707Y-70549402D02*
X213555981Y-70605140D01*
X213555981Y-70605140D02*
X213516844Y-70704166D01*
X213516844Y-70704166D02*
X213562497Y-71225982D01*
X213516844Y-70704166D02*
X213461106Y-70613441D01*
X213461106Y-70613441D02*
X213362080Y-70574303D01*
X213362080Y-70574303D02*
X213219766Y-70586754D01*
X213219766Y-70586754D02*
X213129041Y-70642493D01*
X213129041Y-70642493D02*
X213089904Y-70741519D01*
X213089904Y-70741519D02*
X213135557Y-71263335D01*
X228789838Y-70984102D02*
X228651675Y-71043990D01*
X228651675Y-71043990D02*
X228608387Y-71095579D01*
X228608387Y-71095579D02*
X228569250Y-71194605D01*
X228569250Y-71194605D02*
X228581701Y-71336918D01*
X228581701Y-71336918D02*
X228637439Y-71427643D01*
X228637439Y-71427643D02*
X228689027Y-71470931D01*
X228689027Y-71470931D02*
X228788053Y-71510068D01*
X228788053Y-71510068D02*
X229167556Y-71476866D01*
X229167556Y-71476866D02*
X229080400Y-70480671D01*
X229080400Y-70480671D02*
X228748335Y-70509723D01*
X228748335Y-70509723D02*
X228657610Y-70565462D01*
X228657610Y-70565462D02*
X228614322Y-70617050D01*
X228614322Y-70617050D02*
X228575185Y-70716076D01*
X228575185Y-70716076D02*
X228583485Y-70810952D01*
X228583485Y-70810952D02*
X228639224Y-70901677D01*
X228639224Y-70901677D02*
X228690812Y-70944965D01*
X228690812Y-70944965D02*
X228789838Y-70984102D01*
X228789838Y-70984102D02*
X229121903Y-70955050D01*
X228208133Y-70891592D02*
X228029048Y-71576473D01*
X227733755Y-70933094D02*
X228029048Y-71576473D01*
X228029048Y-71576473D02*
X228144675Y-71805361D01*
X228144675Y-71805361D02*
X228196263Y-71848649D01*
X228196263Y-71848649D02*
X228295289Y-71887786D01*
X226696637Y-71645243D02*
X226558474Y-71705131D01*
X226558474Y-71705131D02*
X226321285Y-71725883D01*
X226321285Y-71725883D02*
X226222259Y-71686745D01*
X226222259Y-71686745D02*
X226170671Y-71643458D01*
X226170671Y-71643458D02*
X226114932Y-71552732D01*
X226114932Y-71552732D02*
X226106632Y-71457857D01*
X226106632Y-71457857D02*
X226145769Y-71358831D01*
X226145769Y-71358831D02*
X226189057Y-71307243D01*
X226189057Y-71307243D02*
X226279782Y-71251504D01*
X226279782Y-71251504D02*
X226465383Y-71187465D01*
X226465383Y-71187465D02*
X226556109Y-71131727D01*
X226556109Y-71131727D02*
X226599396Y-71080139D01*
X226599396Y-71080139D02*
X226638533Y-70981113D01*
X226638533Y-70981113D02*
X226630233Y-70886237D01*
X226630233Y-70886237D02*
X226574494Y-70795512D01*
X226574494Y-70795512D02*
X226522906Y-70752224D01*
X226522906Y-70752224D02*
X226423880Y-70713087D01*
X226423880Y-70713087D02*
X226186691Y-70733838D01*
X226186691Y-70733838D02*
X226048528Y-70793727D01*
X225320940Y-71765601D02*
X225419966Y-71804738D01*
X225419966Y-71804738D02*
X225609717Y-71788137D01*
X225609717Y-71788137D02*
X225700442Y-71732398D01*
X225700442Y-71732398D02*
X225739580Y-71633372D01*
X225739580Y-71633372D02*
X225706378Y-71253870D01*
X225706378Y-71253870D02*
X225650639Y-71163144D01*
X225650639Y-71163144D02*
X225551613Y-71124007D01*
X225551613Y-71124007D02*
X225361862Y-71140608D01*
X225361862Y-71140608D02*
X225271136Y-71196346D01*
X225271136Y-71196346D02*
X225231999Y-71295372D01*
X225231999Y-71295372D02*
X225240300Y-71390248D01*
X225240300Y-71390248D02*
X225722979Y-71443621D01*
X224423771Y-71891894D02*
X224378118Y-71370077D01*
X224378118Y-71370077D02*
X224417255Y-71271051D01*
X224417255Y-71271051D02*
X224507981Y-71215313D01*
X224507981Y-71215313D02*
X224697732Y-71198712D01*
X224697732Y-71198712D02*
X224796758Y-71237849D01*
X224419621Y-71844456D02*
X224518647Y-71883593D01*
X224518647Y-71883593D02*
X224755836Y-71862842D01*
X224755836Y-71862842D02*
X224846561Y-71807103D01*
X224846561Y-71807103D02*
X224885698Y-71708077D01*
X224885698Y-71708077D02*
X224877398Y-71613202D01*
X224877398Y-71613202D02*
X224821660Y-71522476D01*
X224821660Y-71522476D02*
X224722634Y-71483339D01*
X224722634Y-71483339D02*
X224485444Y-71504090D01*
X224485444Y-71504090D02*
X224386418Y-71464953D01*
X223891288Y-71269267D02*
X223949392Y-71933396D01*
X223899589Y-71364142D02*
X223848001Y-71320855D01*
X223848001Y-71320855D02*
X223748975Y-71281717D01*
X223748975Y-71281717D02*
X223606661Y-71294168D01*
X223606661Y-71294168D02*
X223515936Y-71349907D01*
X223515936Y-71349907D02*
X223476799Y-71448933D01*
X223476799Y-71448933D02*
X223522452Y-71970749D01*
X221911350Y-71585892D02*
X221773186Y-71645780D01*
X221773186Y-71645780D02*
X221729899Y-71697368D01*
X221729899Y-71697368D02*
X221690761Y-71796394D01*
X221690761Y-71796394D02*
X221703212Y-71938708D01*
X221703212Y-71938708D02*
X221758951Y-72029433D01*
X221758951Y-72029433D02*
X221810539Y-72072721D01*
X221810539Y-72072721D02*
X221909565Y-72111858D01*
X221909565Y-72111858D02*
X222289067Y-72078656D01*
X222289067Y-72078656D02*
X222201912Y-71082461D01*
X222201912Y-71082461D02*
X221869847Y-71111513D01*
X221869847Y-71111513D02*
X221779121Y-71167252D01*
X221779121Y-71167252D02*
X221735834Y-71218840D01*
X221735834Y-71218840D02*
X221696697Y-71317866D01*
X221696697Y-71317866D02*
X221704997Y-71412741D01*
X221704997Y-71412741D02*
X221760736Y-71503467D01*
X221760736Y-71503467D02*
X221812324Y-71546754D01*
X221812324Y-71546754D02*
X221911350Y-71585892D01*
X221911350Y-71585892D02*
X222243414Y-71556840D01*
X221150559Y-72178262D02*
X221241285Y-72122524D01*
X221241285Y-72122524D02*
X221284572Y-72070936D01*
X221284572Y-72070936D02*
X221323710Y-71971910D01*
X221323710Y-71971910D02*
X221298808Y-71687283D01*
X221298808Y-71687283D02*
X221243070Y-71596558D01*
X221243070Y-71596558D02*
X221191481Y-71553270D01*
X221191481Y-71553270D02*
X221092455Y-71514133D01*
X221092455Y-71514133D02*
X220950142Y-71526584D01*
X220950142Y-71526584D02*
X220859417Y-71582322D01*
X220859417Y-71582322D02*
X220816129Y-71633910D01*
X220816129Y-71633910D02*
X220776992Y-71732936D01*
X220776992Y-71732936D02*
X220801893Y-72017563D01*
X220801893Y-72017563D02*
X220857632Y-72108288D01*
X220857632Y-72108288D02*
X220909220Y-72151576D01*
X220909220Y-72151576D02*
X221008246Y-72190713D01*
X221008246Y-72190713D02*
X221150559Y-72178262D01*
X220428326Y-71572237D02*
X220249240Y-72257118D01*
X219953947Y-71613739D02*
X220249240Y-72257118D01*
X220249240Y-72257118D02*
X220364867Y-72486006D01*
X220364867Y-72486006D02*
X220416455Y-72529294D01*
X220416455Y-72529294D02*
X220515481Y-72568431D01*
X219201457Y-72300986D02*
X219300483Y-72340123D01*
X219300483Y-72340123D02*
X219490234Y-72323522D01*
X219490234Y-72323522D02*
X219580960Y-72267784D01*
X219580960Y-72267784D02*
X219624247Y-72216196D01*
X219624247Y-72216196D02*
X219663385Y-72117170D01*
X219663385Y-72117170D02*
X219638483Y-71832543D01*
X219638483Y-71832543D02*
X219582745Y-71741817D01*
X219582745Y-71741817D02*
X219531157Y-71698530D01*
X219531157Y-71698530D02*
X219432131Y-71659392D01*
X219432131Y-71659392D02*
X219242379Y-71675993D01*
X219242379Y-71675993D02*
X219151654Y-71731732D01*
X218395014Y-72371541D02*
X218494040Y-72410678D01*
X218494040Y-72410678D02*
X218683791Y-72394077D01*
X218683791Y-72394077D02*
X218774516Y-72338338D01*
X218774516Y-72338338D02*
X218813654Y-72239312D01*
X218813654Y-72239312D02*
X218780451Y-71859810D01*
X218780451Y-71859810D02*
X218724713Y-71769084D01*
X218724713Y-71769084D02*
X218625687Y-71729947D01*
X218625687Y-71729947D02*
X218435936Y-71746548D01*
X218435936Y-71746548D02*
X218345210Y-71802286D01*
X218345210Y-71802286D02*
X218306073Y-71901312D01*
X218306073Y-71901312D02*
X218314374Y-71996188D01*
X218314374Y-71996188D02*
X218797053Y-72049561D01*
X176091666Y-117454819D02*
X176424999Y-116978628D01*
X176663094Y-117454819D02*
X176663094Y-116454819D01*
X176663094Y-116454819D02*
X176282142Y-116454819D01*
X176282142Y-116454819D02*
X176186904Y-116502438D01*
X176186904Y-116502438D02*
X176139285Y-116550057D01*
X176139285Y-116550057D02*
X176091666Y-116645295D01*
X176091666Y-116645295D02*
X176091666Y-116788152D01*
X176091666Y-116788152D02*
X176139285Y-116883390D01*
X176139285Y-116883390D02*
X176186904Y-116931009D01*
X176186904Y-116931009D02*
X176282142Y-116978628D01*
X176282142Y-116978628D02*
X176663094Y-116978628D01*
X175710713Y-116550057D02*
X175663094Y-116502438D01*
X175663094Y-116502438D02*
X175567856Y-116454819D01*
X175567856Y-116454819D02*
X175329761Y-116454819D01*
X175329761Y-116454819D02*
X175234523Y-116502438D01*
X175234523Y-116502438D02*
X175186904Y-116550057D01*
X175186904Y-116550057D02*
X175139285Y-116645295D01*
X175139285Y-116645295D02*
X175139285Y-116740533D01*
X175139285Y-116740533D02*
X175186904Y-116883390D01*
X175186904Y-116883390D02*
X175758332Y-117454819D01*
X175758332Y-117454819D02*
X175139285Y-117454819D01*
X163421666Y-98529580D02*
X163469285Y-98577200D01*
X163469285Y-98577200D02*
X163612142Y-98624819D01*
X163612142Y-98624819D02*
X163707380Y-98624819D01*
X163707380Y-98624819D02*
X163850237Y-98577200D01*
X163850237Y-98577200D02*
X163945475Y-98481961D01*
X163945475Y-98481961D02*
X163993094Y-98386723D01*
X163993094Y-98386723D02*
X164040713Y-98196247D01*
X164040713Y-98196247D02*
X164040713Y-98053390D01*
X164040713Y-98053390D02*
X163993094Y-97862914D01*
X163993094Y-97862914D02*
X163945475Y-97767676D01*
X163945475Y-97767676D02*
X163850237Y-97672438D01*
X163850237Y-97672438D02*
X163707380Y-97624819D01*
X163707380Y-97624819D02*
X163612142Y-97624819D01*
X163612142Y-97624819D02*
X163469285Y-97672438D01*
X163469285Y-97672438D02*
X163421666Y-97720057D01*
X162469285Y-98624819D02*
X163040713Y-98624819D01*
X162754999Y-98624819D02*
X162754999Y-97624819D01*
X162754999Y-97624819D02*
X162850237Y-97767676D01*
X162850237Y-97767676D02*
X162945475Y-97862914D01*
X162945475Y-97862914D02*
X163040713Y-97910533D01*
X184343847Y-94932843D02*
X184001728Y-95666520D01*
X184001728Y-95666520D02*
X183918321Y-95732711D01*
X183918321Y-95732711D02*
X183855039Y-95755744D01*
X183855039Y-95755744D02*
X183748599Y-95758652D01*
X183748599Y-95758652D02*
X183575969Y-95678153D01*
X183575969Y-95678153D02*
X183509778Y-95594746D01*
X183509778Y-95594746D02*
X183486746Y-95531464D01*
X183486746Y-95531464D02*
X183483837Y-95425024D01*
X183483837Y-95425024D02*
X183825957Y-94691346D01*
X182497031Y-95175036D02*
X183014921Y-95416532D01*
X182755976Y-95295784D02*
X183178594Y-94389476D01*
X183178594Y-94389476D02*
X183204535Y-94559198D01*
X183204535Y-94559198D02*
X183250601Y-94685763D01*
X183250601Y-94685763D02*
X183316791Y-94769169D01*
X167366666Y-102759580D02*
X167414285Y-102807200D01*
X167414285Y-102807200D02*
X167557142Y-102854819D01*
X167557142Y-102854819D02*
X167652380Y-102854819D01*
X167652380Y-102854819D02*
X167795237Y-102807200D01*
X167795237Y-102807200D02*
X167890475Y-102711961D01*
X167890475Y-102711961D02*
X167938094Y-102616723D01*
X167938094Y-102616723D02*
X167985713Y-102426247D01*
X167985713Y-102426247D02*
X167985713Y-102283390D01*
X167985713Y-102283390D02*
X167938094Y-102092914D01*
X167938094Y-102092914D02*
X167890475Y-101997676D01*
X167890475Y-101997676D02*
X167795237Y-101902438D01*
X167795237Y-101902438D02*
X167652380Y-101854819D01*
X167652380Y-101854819D02*
X167557142Y-101854819D01*
X167557142Y-101854819D02*
X167414285Y-101902438D01*
X167414285Y-101902438D02*
X167366666Y-101950057D01*
X166985713Y-101950057D02*
X166938094Y-101902438D01*
X166938094Y-101902438D02*
X166842856Y-101854819D01*
X166842856Y-101854819D02*
X166604761Y-101854819D01*
X166604761Y-101854819D02*
X166509523Y-101902438D01*
X166509523Y-101902438D02*
X166461904Y-101950057D01*
X166461904Y-101950057D02*
X166414285Y-102045295D01*
X166414285Y-102045295D02*
X166414285Y-102140533D01*
X166414285Y-102140533D02*
X166461904Y-102283390D01*
X166461904Y-102283390D02*
X167033332Y-102854819D01*
X167033332Y-102854819D02*
X166414285Y-102854819D01*
X178516666Y-112254819D02*
X178849999Y-111778628D01*
X179088094Y-112254819D02*
X179088094Y-111254819D01*
X179088094Y-111254819D02*
X178707142Y-111254819D01*
X178707142Y-111254819D02*
X178611904Y-111302438D01*
X178611904Y-111302438D02*
X178564285Y-111350057D01*
X178564285Y-111350057D02*
X178516666Y-111445295D01*
X178516666Y-111445295D02*
X178516666Y-111588152D01*
X178516666Y-111588152D02*
X178564285Y-111683390D01*
X178564285Y-111683390D02*
X178611904Y-111731009D01*
X178611904Y-111731009D02*
X178707142Y-111778628D01*
X178707142Y-111778628D02*
X179088094Y-111778628D01*
X177564285Y-112254819D02*
X178135713Y-112254819D01*
X177849999Y-112254819D02*
X177849999Y-111254819D01*
X177849999Y-111254819D02*
X177945237Y-111397676D01*
X177945237Y-111397676D02*
X178040475Y-111492914D01*
X178040475Y-111492914D02*
X178135713Y-111540533D01*
D12*
%TO.C,J1*%
X172268157Y-110701030D02*
X171579363Y-110379840D01*
X171579363Y-110379840D02*
X171258173Y-111068634D01*
X175843932Y-113692495D02*
X175775666Y-113660662D01*
X174638542Y-113130412D02*
X174165210Y-114145477D01*
X174624655Y-113123937D02*
X174652430Y-113136888D01*
X173487531Y-112593687D02*
X173014199Y-113608752D01*
X173473644Y-112587211D02*
X173501419Y-112600163D01*
X172201283Y-112346981D02*
X171863188Y-113072027D01*
X170995893Y-111784898D02*
X170657799Y-112509944D01*
X175370599Y-114707559D02*
X175843932Y-113692495D01*
X174505075Y-114303959D02*
X172814602Y-117929190D01*
X173354064Y-113767234D02*
X171663591Y-117392465D01*
X172203053Y-113230509D02*
X170512580Y-116855740D01*
X171432692Y-112871283D02*
X169742219Y-116496514D01*
X171323935Y-112820569D02*
X169633462Y-116445800D01*
X171215178Y-112769855D02*
X169524705Y-116395086D01*
X171106421Y-112719140D02*
X169415948Y-116344372D01*
X171052042Y-112693783D02*
X169361569Y-116319015D01*
X170657799Y-112509944D02*
X175370599Y-114707559D01*
X173285882Y-118148952D02*
X174976355Y-114523720D01*
X172814602Y-117929190D02*
X173285882Y-118148952D01*
X172134871Y-117612226D02*
X173825344Y-113986995D01*
X171663591Y-117392465D02*
X172134871Y-117612226D01*
X170983860Y-117075501D02*
X172674333Y-113450270D01*
X170512580Y-116855740D02*
X170983860Y-117075501D01*
X169832849Y-116538776D02*
X171523323Y-112913545D01*
X169361569Y-116319015D02*
X169832849Y-116538776D01*
%TO.C,C1*%
X163395580Y-100110000D02*
X163114420Y-100110000D01*
X163395580Y-99090000D02*
X163114420Y-99090000D01*
D13*
%TO.C,U1*%
X190956984Y-95159576D02*
G75*
G03*
X190556982Y-95159576I-200001J0D01*
G01*
X190556982Y-95159576D02*
G75*
G03*
X190956984Y-95159576I200001J0D01*
G01*
D12*
%TO.C,C2*%
X166060000Y-103710000D02*
X161850000Y-103710000D01*
X166060000Y-100690000D02*
X166060000Y-103710000D01*
X161850000Y-100690000D02*
X166060000Y-100690000D01*
%TD*%
M02*
