M48
; DRILL file {KiCad 7.0.10-7.0.10~ubuntu22.04.1} date Chủ nhật, 20 Tháng 4 Năm 2025 12:02:25 +07
; FORMAT={-:-/ absolute / metric / decimal}
; #@! TF.CreationDate,2025-04-20T12:02:25+07:00
; #@! TF.GenerationSoftware,Kicad,Pcbnew,7.0.10-7.0.10~ubuntu22.04.1
; #@! TF.FileFunction,Plated,1,2,PTH
FMAT,2
METRIC
; #@! TA.AperFunction,Plated,PTH,ViaDrill
T1C0.400
; #@! TA.AperFunction,Plated,PTH,ComponentDrill
T2C0.650
; #@! TA.AperFunction,Plated,PTH,ComponentDrill
T3C0.762
%
G90
G05
T1
X155.3Y-63.3
X157.6Y-69.0
X158.0Y-67.0
X159.0Y-70.0
X163.6Y-77.6
X165.2Y-99.4
X166.8Y-73.6
X167.4Y-100.8
X168.0Y-68.2
X168.0Y-76.2
X168.677Y-61.675
X168.8Y-77.8
X168.8Y-93.2
X170.4Y-84.6
X170.6Y-82.2
X170.6Y-99.2
X170.8Y-91.6
X170.859Y-102.341
X171.4Y-63.125
X171.4Y-67.8
X172.6Y-91.6
X173.2Y-84.2
X173.6Y-87.2
X174.351Y-110.626
X174.4Y-105.0
X174.8Y-55.4
X174.8Y-60.4
X175.4Y-58.6
X175.576Y-73.024
X175.601Y-110.401
X176.0Y-86.0
X176.6Y-107.2
X177.4Y-98.4
X177.8Y-60.6
X178.8Y-87.4
X178.8Y-97.6
X179.4Y-96.2
X180.8Y-100.6
X182.8Y-89.4
X182.8Y-90.8
X182.8Y-93.4
X182.8Y-95.0
X183.0Y-99.8
X183.0Y-103.6
X183.2Y-86.8
X185.0Y-96.0
X186.4Y-105.0
X186.6Y-74.0
X187.0Y-79.8
X187.8Y-64.2
X187.8Y-101.8
X188.4Y-61.2
X188.4Y-105.8
X188.6Y-102.797
X189.6Y-56.2
X189.8Y-92.6
X190.4Y-67.8
X190.4Y-101.2
X190.6Y-107.2
X191.4Y-97.8
X192.2Y-87.6
X193.6Y-90.8
X194.0Y-100.8
X195.2Y-92.6
X198.2Y-63.2
X198.4Y-99.2
X198.6Y-87.4
X198.6Y-105.0
X200.787Y-88.813
X202.2Y-90.8
X202.49Y-87.51
X203.798Y-89.773
X206.6Y-76.547
X213.2Y-88.2
X214.477Y-92.677
X215.6Y-109.4
X216.6Y-104.675
X217.0Y-78.6
X217.4Y-98.8
X218.6Y-87.0
X219.8Y-81.4
X220.0Y-100.675
X220.0Y-103.6
X221.0Y-87.2
X221.2Y-103.6
X221.4Y-101.713
X221.8Y-81.4
X222.0Y-105.4
X222.6Y-89.0
X224.6Y-103.0
X224.8Y-90.0
X225.0Y-88.6
X225.4Y-108.6
X225.6Y-95.0
X227.4Y-89.8
X227.813Y-99.613
X227.9Y-96.5
X229.0Y-110.6
X230.2Y-96.2
X230.6Y-83.2
X230.887Y-117.887
X231.061Y-109.4
X235.0Y-120.4
T2
X171.947Y-111.39
X173.098Y-111.927
X174.249Y-112.463
X175.4Y-113.0
T3
X159.207Y-57.847
X159.871Y-65.438
X161.738Y-57.626
X161.815Y-90.094
X162.402Y-65.217
X162.479Y-97.686
X164.268Y-57.404
X164.345Y-89.873
X164.932Y-64.996
X165.009Y-97.464
X166.798Y-57.183
X166.875Y-89.652
X167.462Y-64.774
X167.539Y-97.243
X169.329Y-56.962
X169.406Y-89.43
X169.993Y-64.553
X170.07Y-97.021
X171.936Y-89.209
X172.6Y-96.8
X188.279Y-71.486
X188.943Y-79.077
X190.809Y-71.264
X191.473Y-78.855
X191.479Y-103.886
X192.143Y-111.477
X193.339Y-71.043
X194.003Y-78.634
X194.009Y-103.664
X194.673Y-111.255
X195.87Y-70.821
X196.534Y-78.412
X196.539Y-103.443
X197.203Y-111.034
X198.4Y-70.6
X199.064Y-78.191
X199.07Y-103.221
X199.734Y-110.812
X201.6Y-103.0
X202.264Y-110.591
X217.279Y-85.086
X217.943Y-92.677
X219.809Y-84.864
X220.209Y-117.064
X220.473Y-92.455
X220.873Y-124.655
X222.339Y-84.643
X222.739Y-116.843
X223.003Y-92.234
X223.403Y-124.434
X224.87Y-84.421
X225.27Y-116.621
X225.534Y-92.012
X225.934Y-124.212
X227.4Y-84.2
X227.8Y-116.4
X228.064Y-91.791
X228.464Y-123.991
X230.33Y-116.179
X230.994Y-123.77
M30
