%TF.GenerationSoftware,KiCad,Pcbnew,7.0.10-7.0.10~ubuntu22.04.1*%
%TF.CreationDate,2025-04-20T11:35:09+07:00*%
%TF.ProjectId,Catancenter,43617461-6e63-4656-9e74-65722e6b6963,rev?*%
%TF.SameCoordinates,Original*%
%TF.FileFunction,Copper,L2,Bot*%
%TF.FilePolarity,Positive*%
%FSLAX46Y46*%
G04 Gerber Fmt 4.6, Leading zero omitted, Abs format (unit mm)*
G04 Created by KiCad (PCBNEW 7.0.10-7.0.10~ubuntu22.04.1) date 2025-04-20 11:35:09*
%MOMM*%
%LPD*%
G01*
G04 APERTURE LIST*
G04 Aperture macros list*
%AMRoundRect*
0 Rectangle with rounded corners*
0 $1 Rounding radius*
0 $2 $3 $4 $5 $6 $7 $8 $9 X,Y pos of 4 corners*
0 Add a 4 corners polygon primitive as box body*
4,1,4,$2,$3,$4,$5,$6,$7,$8,$9,$2,$3,0*
0 Add four circle primitives for the rounded corners*
1,1,$1+$1,$2,$3*
1,1,$1+$1,$4,$5*
1,1,$1+$1,$6,$7*
1,1,$1+$1,$8,$9*
0 Add four rect primitives between the rounded corners*
20,1,$1+$1,$2,$3,$4,$5,0*
20,1,$1+$1,$4,$5,$6,$7,0*
20,1,$1+$1,$6,$7,$8,$9,0*
20,1,$1+$1,$8,$9,$2,$3,0*%
%AMHorizOval*
0 Thick line with rounded ends*
0 $1 width*
0 $2 $3 position (X,Y) of the first rounded end (center of the circle)*
0 $4 $5 position (X,Y) of the second rounded end (center of the circle)*
0 Add line between two ends*
20,1,$1,$2,$3,$4,$5,0*
0 Add two circle primitives to create the rounded ends*
1,1,$1,$2,$3*
1,1,$1,$4,$5*%
%AMRotRect*
0 Rectangle, with rotation*
0 The origin of the aperture is its center*
0 $1 length*
0 $2 width*
0 $3 Rotation angle, in degrees counterclockwise*
0 Add horizontal line*
21,1,$1,$2,0,0,$3*%
G04 Aperture macros list end*
%TA.AperFunction,ComponentPad*%
%ADD10C,2.000000*%
%TD*%
%TA.AperFunction,ComponentPad*%
%ADD11C,1.524000*%
%TD*%
%TA.AperFunction,SMDPad,CuDef*%
%ADD12R,1.500000X1.500000*%
%TD*%
%TA.AperFunction,ComponentPad*%
%ADD13RotRect,1.000000X1.000000X30.000000*%
%TD*%
%TA.AperFunction,ComponentPad*%
%ADD14HorizOval,1.000000X0.000000X0.000000X0.000000X0.000000X0*%
%TD*%
%TA.AperFunction,SMDPad,CuDef*%
%ADD15RoundRect,0.075000X-0.075000X0.125000X-0.075000X-0.125000X0.075000X-0.125000X0.075000X0.125000X0*%
%TD*%
%TA.AperFunction,SMDPad,CuDef*%
%ADD16RoundRect,0.075000X0.125000X0.075000X-0.125000X0.075000X-0.125000X-0.075000X0.125000X-0.075000X0*%
%TD*%
%TA.AperFunction,ComponentPad*%
%ADD17RotRect,1.000000X1.000000X150.000000*%
%TD*%
%TA.AperFunction,ComponentPad*%
%ADD18HorizOval,1.000000X0.000000X0.000000X0.000000X0.000000X0*%
%TD*%
%TA.AperFunction,SMDPad,CuDef*%
%ADD19HorizOval,1.998980X0.187325X0.324456X-0.187325X-0.324456X0*%
%TD*%
%TA.AperFunction,SMDPad,CuDef*%
%ADD20HorizOval,1.016000X0.439941X-0.254000X-0.439941X0.254000X0*%
%TD*%
%TA.AperFunction,SMDPad,CuDef*%
%ADD21C,1.143000*%
%TD*%
%TA.AperFunction,SMDPad,CuDef*%
%ADD22RoundRect,0.150000X0.650000X0.150000X-0.650000X0.150000X-0.650000X-0.150000X0.650000X-0.150000X0*%
%TD*%
%TA.AperFunction,SMDPad,CuDef*%
%ADD23RoundRect,0.225000X0.250000X-0.225000X0.250000X0.225000X-0.250000X0.225000X-0.250000X-0.225000X0*%
%TD*%
%TA.AperFunction,SMDPad,CuDef*%
%ADD24RoundRect,0.250000X0.925000X-0.412500X0.925000X0.412500X-0.925000X0.412500X-0.925000X-0.412500X0*%
%TD*%
%TA.AperFunction,ComponentPad*%
%ADD25R,1.000000X1.000000*%
%TD*%
%TA.AperFunction,ComponentPad*%
%ADD26O,1.000000X1.000000*%
%TD*%
%TA.AperFunction,ViaPad*%
%ADD27C,0.800000*%
%TD*%
%TA.AperFunction,Conductor*%
%ADD28C,0.250000*%
%TD*%
G04 APERTURE END LIST*
D10*
%TO.P,SW1,1,1*%
%TO.N,Net-(U3-PA7_A8_D8_SCK)*%
X81053800Y-93798000D03*
X87553800Y-93798000D03*
%TO.P,SW1,2,2*%
%TO.N,Net-(J1-Pin_3)*%
X81053800Y-98298000D03*
X87553800Y-98298000D03*
%TD*%
D11*
%TO.P,U2,1,e*%
%TO.N,Net-(D1-BA)*%
X79222600Y-86309200D03*
%TO.P,U2,2,d*%
%TO.N,Net-(D1-GA)*%
X81762600Y-86309200D03*
%TO.P,U2,3,c*%
%TO.N,Net-(D1-RA)*%
X84302600Y-86309200D03*
%TO.P,U2,4,g*%
%TO.N,Net-(U1-SEG4)*%
X86842600Y-86309200D03*
%TO.P,U2,5,dp*%
%TO.N,Net-(U1-SEG5)*%
X89382600Y-86309200D03*
%TO.P,U2,6,b*%
%TO.N,Net-(U1-GRID1)*%
X89382600Y-78689200D03*
%TO.P,U2,7,a*%
%TO.N,Net-(U1-SEG6)*%
X86842600Y-78689200D03*
%TO.P,U2,8,b*%
%TO.N,Net-(U1-SEG7)*%
X84302600Y-78689200D03*
%TO.P,U2,9,g*%
%TO.N,Net-(U1-GRID2)*%
X81762600Y-78689200D03*
%TO.P,U2,10,f*%
%TO.N,Net-(U1-SEG8)*%
X79222600Y-78689200D03*
%TD*%
D12*
%TO.P,GND,1,1*%
%TO.N,Net-(J1-Pin_3)*%
X61112400Y-79959200D03*
%TD*%
D13*
%TO.P,J1,1,Pin_1*%
%TO.N,Net-(J1-Pin_1)*%
X110152689Y-65265749D03*
D14*
%TO.P,J1,2,Pin_2*%
%TO.N,Net-(J1-Pin_2)*%
X109517689Y-64165897D03*
%TO.P,J1,3,Pin_3*%
%TO.N,Net-(J1-Pin_3)*%
X108882689Y-63066044D03*
%TO.P,J1,4,Pin_4*%
%TO.N,Net-(J1-Pin_4)*%
X108247689Y-61966192D03*
%TD*%
D15*
%TO.P,R3,1*%
%TO.N,Net-(J1-Pin_4)*%
X107365800Y-81745200D03*
%TO.P,R3,2*%
%TO.N,Net-(U3-PA7_A8_D8_SCK)*%
X107365800Y-82245200D03*
%TD*%
D16*
%TO.P,R1,1*%
%TO.N,Net-(J1-Pin_4)*%
X93946200Y-53162200D03*
%TO.P,R1,2*%
%TO.N,Net-(U1-DIN)*%
X93446200Y-53162200D03*
%TD*%
D17*
%TO.P,J3,1,Pin_1*%
%TO.N,Net-(J3-Pin_1)*%
X61012912Y-61187452D03*
D18*
%TO.P,J3,2,Pin_2*%
%TO.N,Net-(J3-Pin_2)*%
X60377912Y-62287304D03*
%TO.P,J3,3,Pin_3*%
%TO.N,Net-(J1-Pin_3)*%
X59742912Y-63387157D03*
%TO.P,J3,4,Pin_4*%
%TO.N,Net-(J1-Pin_4)*%
X59107912Y-64487009D03*
%TD*%
D12*
%TO.P,VCC,1,1*%
%TO.N,Net-(J1-Pin_4)*%
X61112400Y-76409200D03*
%TD*%
%TO.P,TP3,1,1*%
%TO.N,Net-(U1-GRID4)*%
X75006200Y-54000400D03*
%TD*%
%TO.P,TP4,1,1*%
%TO.N,Net-(U1-GRID5)*%
X74803000Y-48996600D03*
%TD*%
D19*
%TO.P,U3,1,PA02_A0_D0*%
%TO.N,Net-(J1-Pin_1)*%
X110227379Y-105943562D03*
%TO.P,U3,2,PA4_A1_D1*%
%TO.N,Net-(J1-Pin_2)*%
X108027675Y-104673562D03*
%TO.P,U3,3,PA10_A2_D2*%
%TO.N,Net-(J2-Pin_1)*%
X105827970Y-103403562D03*
%TO.P,U3,4,PA11_A3_D3*%
%TO.N,Net-(J2-Pin_2)*%
X103628266Y-102133562D03*
%TO.P,U3,5,PA8_A4_D4_SDA*%
%TO.N,Net-(J3-Pin_1)*%
X101428561Y-100863562D03*
%TO.P,U3,6,PA9_A5_D5_SCL*%
%TO.N,Net-(J3-Pin_2)*%
X99228857Y-99593562D03*
%TO.P,U3,7,PB08_A6_D6_TX*%
%TO.N,Net-(U1-SCLK)*%
X97029152Y-98323562D03*
%TO.P,U3,8,PB09_A7_D7_RX*%
%TO.N,Net-(U1-DIN)*%
X105111432Y-84324642D03*
%TO.P,U3,9,PA7_A8_D8_SCK*%
%TO.N,Net-(U3-PA7_A8_D8_SCK)*%
X107311137Y-85594642D03*
%TO.P,U3,10,PA5_A9_D9_MISO*%
%TO.N,Net-(U3-PA5_A9_D9_MISO)*%
X109510841Y-86864642D03*
%TO.P,U3,11,PA6_A10_D10_MOSI*%
%TO.N,Net-(U3-PA6_A10_D10_MOSI)*%
X111710546Y-88134642D03*
%TO.P,U3,12,3V3*%
%TO.N,unconnected-(U3-3V3-Pad12)*%
X113910250Y-89404642D03*
%TO.P,U3,13,GND*%
%TO.N,Net-(J1-Pin_3)*%
X116109955Y-90674642D03*
%TO.P,U3,14,5V*%
%TO.N,Net-(J1-Pin_4)*%
X118309659Y-91944642D03*
D20*
%TO.P,U3,15,5V*%
%TO.N,unconnected-(U3-5V-Pad15)*%
X99529173Y-91837759D03*
%TO.P,U3,16,GND*%
%TO.N,Net-(J1-Pin_3)*%
X100804173Y-89629395D03*
D21*
%TO.P,U3,17,PA31_SWDIO*%
%TO.N,unconnected-(U3-PA31_SWDIO-Pad17)*%
X114254632Y-100340890D03*
%TO.P,U3,18,PA30_SWCLK*%
%TO.N,unconnected-(U3-PA30_SWCLK-Pad18)*%
X115524632Y-98141185D03*
%TO.P,U3,19,RESET*%
%TO.N,unconnected-(U3-RESET-Pad19)*%
X112054928Y-99070890D03*
%TO.P,U3,20,GND*%
%TO.N,Net-(J1-Pin_3)*%
X113324928Y-96871185D03*
%TD*%
D22*
%TO.P,U1,1,GRID12*%
%TO.N,unconnected-(U1-GRID12-Pad1)*%
X89317000Y-43637200D03*
%TO.P,U1,2,GRID13*%
%TO.N,unconnected-(U1-GRID13-Pad2)*%
X89317000Y-44907200D03*
%TO.P,U1,3,GRID14*%
%TO.N,unconnected-(U1-GRID14-Pad3)*%
X89317000Y-46177200D03*
%TO.P,U1,4,GRID15*%
%TO.N,unconnected-(U1-GRID15-Pad4)*%
X89317000Y-47447200D03*
%TO.P,U1,5,GRID16*%
%TO.N,unconnected-(U1-GRID16-Pad5)*%
X89317000Y-48717200D03*
%TO.P,U1,6,VSS*%
%TO.N,Net-(J1-Pin_3)*%
X89317000Y-49987200D03*
%TO.P,U1,7,DIN*%
%TO.N,Net-(U1-DIN)*%
X89317000Y-51257200D03*
%TO.P,U1,8,SCLK*%
%TO.N,Net-(U1-SCLK)*%
X89317000Y-52527200D03*
%TO.P,U1,9,SEG1*%
%TO.N,Net-(D1-BA)*%
X89317000Y-53797200D03*
%TO.P,U1,10,SEG2*%
%TO.N,Net-(D1-GA)*%
X89317000Y-55067200D03*
%TO.P,U1,11,SEG3*%
%TO.N,Net-(D1-RA)*%
X89317000Y-56337200D03*
%TO.P,U1,12,SEG4*%
%TO.N,Net-(U1-SEG4)*%
X89317000Y-57607200D03*
%TO.P,U1,13,SEG5*%
%TO.N,Net-(U1-SEG5)*%
X89317000Y-58877200D03*
%TO.P,U1,14,SEG6*%
%TO.N,Net-(U1-SEG6)*%
X89317000Y-60147200D03*
%TO.P,U1,15,SEG7*%
%TO.N,Net-(U1-SEG7)*%
X78867000Y-60147200D03*
%TO.P,U1,16,SEG8*%
%TO.N,Net-(U1-SEG8)*%
X78867000Y-58877200D03*
%TO.P,U1,17,VDD*%
%TO.N,Net-(J1-Pin_4)*%
X78867000Y-57607200D03*
%TO.P,U1,18,GRID1*%
%TO.N,Net-(U1-GRID1)*%
X78867000Y-56337200D03*
%TO.P,U1,19,GRID2*%
%TO.N,Net-(U1-GRID2)*%
X78867000Y-55067200D03*
%TO.P,U1,20,GRID3*%
%TO.N,Net-(D1-BK)*%
X78867000Y-53797200D03*
%TO.P,U1,21,GRID4*%
%TO.N,Net-(U1-GRID4)*%
X78867000Y-52527200D03*
%TO.P,U1,22,GRID5*%
%TO.N,Net-(U1-GRID5)*%
X78867000Y-51257200D03*
%TO.P,U1,23,GRID6*%
%TO.N,unconnected-(U1-GRID6-Pad23)*%
X78867000Y-49987200D03*
%TO.P,U1,24,GRID7*%
%TO.N,unconnected-(U1-GRID7-Pad24)*%
X78867000Y-48717200D03*
%TO.P,U1,25,GRID8*%
%TO.N,unconnected-(U1-GRID8-Pad25)*%
X78867000Y-47447200D03*
%TO.P,U1,26,GRID9*%
%TO.N,unconnected-(U1-GRID9-Pad26)*%
X78867000Y-46177200D03*
%TO.P,U1,27,GRID10*%
%TO.N,unconnected-(U1-GRID10-Pad27)*%
X78867000Y-44907200D03*
%TO.P,U1,28,GRID11*%
%TO.N,unconnected-(U1-GRID11-Pad28)*%
X78867000Y-43637200D03*
%TD*%
D23*
%TO.P,C1,1*%
%TO.N,Net-(J1-Pin_4)*%
X93726000Y-48654000D03*
%TO.P,C1,2*%
%TO.N,Net-(J1-Pin_3)*%
X93726000Y-47104000D03*
%TD*%
D12*
%TO.P,TP2,1,1*%
%TO.N,Net-(U3-PA5_A9_D9_MISO)*%
X110642400Y-81457800D03*
%TD*%
D16*
%TO.P,R2,1*%
%TO.N,Net-(J1-Pin_4)*%
X94001400Y-54838600D03*
%TO.P,R2,2*%
%TO.N,Net-(U1-SCLK)*%
X93501400Y-54838600D03*
%TD*%
D24*
%TO.P,C2,1*%
%TO.N,Net-(J1-Pin_4)*%
X96977200Y-49403000D03*
%TO.P,C2,2*%
%TO.N,Net-(J1-Pin_3)*%
X96977200Y-46328000D03*
%TD*%
D25*
%TO.P,J2,1,Pin_1*%
%TO.N,Net-(J2-Pin_1)*%
X82301000Y-106363200D03*
D26*
%TO.P,J2,2,Pin_2*%
%TO.N,Net-(J2-Pin_2)*%
X83571000Y-106363200D03*
%TO.P,J2,3,Pin_3*%
%TO.N,Net-(J1-Pin_3)*%
X84841000Y-106363200D03*
%TO.P,J2,4,Pin_4*%
%TO.N,Net-(J1-Pin_4)*%
X86111000Y-106363200D03*
%TD*%
D12*
%TO.P,TP1,1,1*%
%TO.N,Net-(U3-PA6_A10_D10_MOSI)*%
X113842800Y-83947000D03*
%TD*%
D27*
%TO.N,Net-(D1-BK)*%
X81305400Y-53644800D03*
%TO.N,Net-(D1-BA)*%
X88747600Y-69799200D03*
X87249000Y-54051200D03*
X91059000Y-69621400D03*
%TO.N,Net-(D1-GA)*%
X90881200Y-67792600D03*
X88874600Y-67792600D03*
X86461600Y-55245000D03*
%TO.N,Net-(D1-RA)*%
X90855800Y-66421000D03*
X87325200Y-56362600D03*
X88671400Y-66370200D03*
%TO.N,Net-(U1-SEG4)*%
X91033600Y-57708800D03*
%TO.N,Net-(U1-SEG5)*%
X93294200Y-58724800D03*
%TO.N,Net-(U1-SEG6)*%
X89052400Y-61518800D03*
%TO.N,Net-(U1-SEG7)*%
X78816200Y-61671200D03*
X78028800Y-76377800D03*
%TO.N,Net-(U1-SEG8)*%
X80467200Y-58928000D03*
%TO.N,Net-(U1-GRID1)*%
X76504800Y-57023000D03*
X75895200Y-75488800D03*
%TO.N,Net-(U1-GRID2)*%
X80568800Y-55194200D03*
%TO.N,Net-(J1-Pin_4)*%
X105156000Y-50342800D03*
X60934600Y-66421000D03*
X102362000Y-97358200D03*
X92354400Y-50800000D03*
X64973200Y-66370200D03*
X83540600Y-52222400D03*
X101346000Y-50241200D03*
X105232200Y-64439800D03*
%TO.N,Net-(J1-Pin_3)*%
X102209600Y-91084400D03*
X104190800Y-92837000D03*
X110464600Y-92837000D03*
X110388400Y-95046800D03*
%TO.N,Net-(J1-Pin_1)*%
X108458000Y-95123000D03*
%TO.N,Net-(J1-Pin_2)*%
X106299000Y-95529400D03*
%TO.N,Net-(U1-DIN)*%
X92811600Y-51968400D03*
X99466400Y-75209400D03*
%TO.N,Net-(U1-SCLK)*%
X99415600Y-79400400D03*
X97002600Y-54330600D03*
%TO.N,Net-(U3-PA7_A8_D8_SCK)*%
X98577400Y-95605600D03*
%TD*%
D28*
%TO.N,Net-(D1-BK)*%
X81153000Y-53797200D02*
X78867000Y-53797200D01*
X81305400Y-53644800D02*
X81153000Y-53797200D01*
%TO.N,Net-(D1-BA)*%
X89063000Y-54051200D02*
X89317000Y-53797200D01*
X88925400Y-69621400D02*
X88747600Y-69799200D01*
X91059000Y-69621400D02*
X88925400Y-69621400D01*
X87249000Y-54051200D02*
X89063000Y-54051200D01*
%TO.N,Net-(D1-GA)*%
X86461600Y-55245000D02*
X86639400Y-55067200D01*
X88849200Y-67767200D02*
X88874600Y-67792600D01*
X90881200Y-67792600D02*
X88874600Y-67792600D01*
X86639400Y-55067200D02*
X89317000Y-55067200D01*
%TO.N,Net-(D1-RA)*%
X89291600Y-56362600D02*
X89317000Y-56337200D01*
X90855800Y-66421000D02*
X88722200Y-66421000D01*
X87325200Y-56362600D02*
X89291600Y-56362600D01*
X88722200Y-66421000D02*
X88671400Y-66370200D01*
%TO.N,Net-(U1-SEG4)*%
X91033600Y-57708800D02*
X89418600Y-57708800D01*
X89418600Y-57708800D02*
X89317000Y-57607200D01*
%TO.N,Net-(U1-SEG5)*%
X93141800Y-58877200D02*
X89317000Y-58877200D01*
X93294200Y-58724800D02*
X93141800Y-58877200D01*
%TO.N,Net-(U1-SEG6)*%
X89052400Y-60411800D02*
X89317000Y-60147200D01*
X89052400Y-61518800D02*
X89052400Y-60411800D01*
%TO.N,Net-(U1-SEG7)*%
X81991200Y-76377800D02*
X78028800Y-76377800D01*
X84302600Y-78689200D02*
X81991200Y-76377800D01*
X78816200Y-60198000D02*
X78867000Y-60147200D01*
X78816200Y-61671200D02*
X78816200Y-60198000D01*
%TO.N,Net-(U1-SEG8)*%
X78917800Y-58928000D02*
X78867000Y-58877200D01*
X80467200Y-58928000D02*
X78917800Y-58928000D01*
%TO.N,Net-(U1-GRID1)*%
X76504800Y-57023000D02*
X77190600Y-56337200D01*
X89382600Y-78689200D02*
X86182200Y-75488800D01*
X86182200Y-75488800D02*
X75895200Y-75488800D01*
X77190600Y-56337200D02*
X78867000Y-56337200D01*
%TO.N,Net-(U1-GRID2)*%
X80441800Y-55067200D02*
X80568800Y-55194200D01*
X78867000Y-55067200D02*
X80441800Y-55067200D01*
X78994000Y-55194200D02*
X78867000Y-55067200D01*
%TO.N,Net-(J1-Pin_4)*%
X96977200Y-49403000D02*
X94475000Y-49403000D01*
X68182905Y-66370200D02*
X76945905Y-57607200D01*
X118309659Y-91944642D02*
X118309659Y-85010259D01*
X80035400Y-57607200D02*
X78867000Y-57607200D01*
X108247689Y-61966192D02*
X108247689Y-53434489D01*
X61112400Y-66598800D02*
X60934600Y-66421000D01*
X94475000Y-49403000D02*
X93726000Y-48654000D01*
X83540600Y-52222400D02*
X83540600Y-54102000D01*
X103378000Y-75387200D02*
X103378000Y-66294000D01*
X93971200Y-52959000D02*
X93971200Y-53162200D01*
X101346000Y-50241200D02*
X100507800Y-49403000D01*
X83540600Y-54102000D02*
X80035400Y-57607200D01*
X116248901Y-94005400D02*
X108305600Y-94005400D01*
X93726000Y-49428400D02*
X92354400Y-50800000D01*
X60934600Y-66313697D02*
X60934600Y-66421000D01*
X105714800Y-94005400D02*
X102362000Y-97358200D01*
X93971200Y-52959000D02*
X94026400Y-53014200D01*
X111404400Y-78105000D02*
X106095800Y-78105000D01*
X61112400Y-76409200D02*
X61112400Y-66598800D01*
X106095800Y-78105000D02*
X107365800Y-79375000D01*
X96977200Y-49403000D02*
X93971200Y-52409000D01*
X93726000Y-48654000D02*
X93726000Y-49428400D01*
X118309659Y-85010259D02*
X111404400Y-78105000D01*
X107365800Y-79375000D02*
X107365800Y-81720200D01*
X76945905Y-57607200D02*
X78867000Y-57607200D01*
X59107912Y-64487009D02*
X60934600Y-66313697D01*
X106095800Y-78105000D02*
X103378000Y-75387200D01*
X100507800Y-49403000D02*
X96977200Y-49403000D01*
X108305600Y-94005400D02*
X105714800Y-94005400D01*
X64973200Y-66370200D02*
X68182905Y-66370200D01*
X108247689Y-53434489D02*
X105156000Y-50342800D01*
X103378000Y-66294000D02*
X105232200Y-64439800D01*
X118309659Y-91944642D02*
X116248901Y-94005400D01*
X94026400Y-53014200D02*
X94026400Y-54838600D01*
X93971200Y-52409000D02*
X93971200Y-52959000D01*
%TO.N,Net-(J1-Pin_3)*%
X73100232Y-74575368D02*
X76154732Y-71520868D01*
X110464600Y-92837000D02*
X104190800Y-92837000D01*
X113324928Y-96871185D02*
X112212785Y-96871185D01*
X94502000Y-46328000D02*
X93726000Y-47104000D01*
X73100232Y-82295032D02*
X73100232Y-74575368D01*
X113947597Y-92837000D02*
X110464600Y-92837000D01*
X87553800Y-98298000D02*
X81053800Y-98298000D01*
X92988755Y-76453355D02*
X92988755Y-77870868D01*
X73101200Y-90345400D02*
X81053800Y-98298000D01*
X100804173Y-89629395D02*
X100804173Y-78223573D01*
X116109955Y-90674642D02*
X113947597Y-92837000D01*
X76154732Y-71520868D02*
X81990232Y-71520868D01*
X61112400Y-79959200D02*
X70764400Y-79959200D01*
X104444800Y-63017400D02*
X96889400Y-70572800D01*
X103708200Y-50393600D02*
X99642600Y-46328000D01*
X103708200Y-62280800D02*
X103708200Y-50393600D01*
X112212785Y-96871185D02*
X110388400Y-95046800D01*
X87299800Y-70764400D02*
X92988755Y-76453355D01*
X94177023Y-76682600D02*
X92988755Y-77870868D01*
X96977200Y-46328000D02*
X94502000Y-46328000D01*
X102209600Y-91084400D02*
X102209600Y-91034822D01*
X70840600Y-80035400D02*
X73100232Y-82295032D01*
X64338200Y-67982445D02*
X59742912Y-63387157D01*
X82746700Y-70764400D02*
X87299800Y-70764400D01*
X99263200Y-76682600D02*
X96199105Y-76682600D01*
X96889400Y-70572800D02*
X96889400Y-75992305D01*
X64338200Y-73533000D02*
X70840600Y-80035400D01*
X73100232Y-82295032D02*
X73100232Y-86918800D01*
X104493444Y-63066044D02*
X103708200Y-62280800D01*
X99642600Y-46328000D02*
X96977200Y-46328000D01*
X96199105Y-76682600D02*
X94177023Y-76682600D01*
X96889400Y-75992305D02*
X96199105Y-76682600D01*
X73100232Y-86918800D02*
X73101200Y-86919768D01*
X73101200Y-86919768D02*
X73101200Y-90345400D01*
X90842800Y-49987200D02*
X89317000Y-49987200D01*
X81990232Y-71520868D02*
X82746700Y-70764400D01*
X100804173Y-78223573D02*
X99263200Y-76682600D01*
X102209600Y-91034822D02*
X100804173Y-89629395D01*
X64338200Y-73533000D02*
X64338200Y-67982445D01*
X108882689Y-63066044D02*
X104493444Y-63066044D01*
X93726000Y-47104000D02*
X90842800Y-49987200D01*
X70764400Y-79959200D02*
X70840600Y-80035400D01*
%TO.N,Net-(J1-Pin_1)*%
X110227379Y-96892379D02*
X108458000Y-95123000D01*
X110227379Y-105943562D02*
X110227379Y-96892379D01*
%TO.N,Net-(J1-Pin_2)*%
X108027675Y-104673562D02*
X108027675Y-97258075D01*
X108027675Y-97258075D02*
X106299000Y-95529400D01*
%TO.N,Net-(J2-Pin_1)*%
X102551532Y-106680000D02*
X105827970Y-103403562D01*
X84251800Y-110210600D02*
X90678000Y-110210600D01*
X82301000Y-108249800D02*
X82296000Y-108254800D01*
X82301000Y-106363200D02*
X82301000Y-108249800D01*
X82296000Y-108254800D02*
X84251800Y-110210600D01*
X94208600Y-106680000D02*
X102551532Y-106680000D01*
X90678000Y-110210600D02*
X94208600Y-106680000D01*
%TO.N,Net-(J2-Pin_2)*%
X100223628Y-105538200D02*
X103628266Y-102133562D01*
X83571000Y-106363200D02*
X84396000Y-105538200D01*
X84396000Y-105538200D02*
X100223628Y-105538200D01*
%TO.N,Net-(J3-Pin_1)*%
X53009800Y-62585600D02*
X53009800Y-94310200D01*
X56540400Y-59055000D02*
X53009800Y-62585600D01*
X53009800Y-94310200D02*
X62788800Y-104089200D01*
X62788800Y-104089200D02*
X98202923Y-104089200D01*
X58880460Y-59055000D02*
X56540400Y-59055000D01*
X61012912Y-61187452D02*
X58880460Y-59055000D01*
X98202923Y-104089200D02*
X101428561Y-100863562D01*
%TO.N,Net-(J3-Pin_2)*%
X53771800Y-93649800D02*
X63347600Y-103225600D01*
X95596819Y-103225600D02*
X99228857Y-99593562D01*
X55619496Y-62287304D02*
X53771800Y-64135000D01*
X60377912Y-62287304D02*
X55619496Y-62287304D01*
X53771800Y-64135000D02*
X53771800Y-93649800D01*
X63347600Y-103225600D02*
X95596819Y-103225600D01*
%TO.N,Net-(U1-DIN)*%
X105111432Y-80854432D02*
X99466400Y-75209400D01*
X89317000Y-51257200D02*
X90116999Y-51257200D01*
X92021999Y-53162200D02*
X93421200Y-53162200D01*
X92811600Y-51968400D02*
X90828198Y-51968400D01*
X105111432Y-84324642D02*
X105111432Y-80854432D01*
X90116999Y-51257200D02*
X90740399Y-51880601D01*
X90828198Y-51968400D02*
X90740399Y-51880601D01*
X90740399Y-51880601D02*
X92021999Y-53162200D01*
%TO.N,Net-(U1-SCLK)*%
X97029152Y-98323562D02*
X97029152Y-81786848D01*
X97002600Y-54330600D02*
X95224600Y-56108600D01*
X90750603Y-52527200D02*
X91908102Y-53684698D01*
X92608400Y-56108600D02*
X92024200Y-55524400D01*
X92024200Y-53800796D02*
X91908102Y-53684698D01*
X91908102Y-53684698D02*
X93062003Y-54838600D01*
X95224600Y-56108600D02*
X92608400Y-56108600D01*
X97029152Y-81786848D02*
X99415600Y-79400400D01*
X89317000Y-52527200D02*
X90750603Y-52527200D01*
X92024200Y-55524400D02*
X92024200Y-53800796D01*
X93062003Y-54838600D02*
X93476400Y-54838600D01*
%TO.N,Net-(U3-PA7_A8_D8_SCK)*%
X81053800Y-93798000D02*
X87553800Y-93798000D01*
X107311137Y-85594642D02*
X107311137Y-82324863D01*
X98628200Y-95554800D02*
X98577400Y-95605600D01*
X107311137Y-85594642D02*
X107311137Y-87887863D01*
X99644200Y-95554800D02*
X98628200Y-95554800D01*
X107311137Y-82324863D02*
X107365800Y-82270200D01*
X107311137Y-87887863D02*
X99644200Y-95554800D01*
%TO.N,Net-(U3-PA6_A10_D10_MOSI)*%
X111710546Y-86079254D02*
X113842800Y-83947000D01*
X111710546Y-88134642D02*
X111710546Y-86079254D01*
%TO.N,Net-(U3-PA5_A9_D9_MISO)*%
X109510841Y-86864642D02*
X109510841Y-82589359D01*
X109510841Y-82589359D02*
X110642400Y-81457800D01*
%TO.N,Net-(U1-GRID4)*%
X78867000Y-52527200D02*
X76479400Y-52527200D01*
X76479400Y-52527200D02*
X75006200Y-54000400D01*
%TO.N,Net-(U1-GRID5)*%
X77063600Y-51257200D02*
X74803000Y-48996600D01*
X78867000Y-51257200D02*
X77063600Y-51257200D01*
%TD*%
M02*
