%TF.GenerationSoftware,KiCad,Pcbnew,7.0.10-7.0.10~ubuntu22.04.1*%
%TF.CreationDate,2025-04-20T11:35:09+07:00*%
%TF.ProjectId,Catancenter,43617461-6e63-4656-9e74-65722e6b6963,rev?*%
%TF.SameCoordinates,Original*%
%TF.FileFunction,Soldermask,Bot*%
%TF.FilePolarity,Negative*%
%FSLAX46Y46*%
G04 Gerber Fmt 4.6, Leading zero omitted, Abs format (unit mm)*
G04 Created by KiCad (PCBNEW 7.0.10-7.0.10~ubuntu22.04.1) date 2025-04-20 11:35:09*
%MOMM*%
%LPD*%
G01*
G04 APERTURE LIST*
G04 Aperture macros list*
%AMRoundRect*
0 Rectangle with rounded corners*
0 $1 Rounding radius*
0 $2 $3 $4 $5 $6 $7 $8 $9 X,Y pos of 4 corners*
0 Add a 4 corners polygon primitive as box body*
4,1,4,$2,$3,$4,$5,$6,$7,$8,$9,$2,$3,0*
0 Add four circle primitives for the rounded corners*
1,1,$1+$1,$2,$3*
1,1,$1+$1,$4,$5*
1,1,$1+$1,$6,$7*
1,1,$1+$1,$8,$9*
0 Add four rect primitives between the rounded corners*
20,1,$1+$1,$2,$3,$4,$5,0*
20,1,$1+$1,$4,$5,$6,$7,0*
20,1,$1+$1,$6,$7,$8,$9,0*
20,1,$1+$1,$8,$9,$2,$3,0*%
%AMHorizOval*
0 Thick line with rounded ends*
0 $1 width*
0 $2 $3 position (X,Y) of the first rounded end (center of the circle)*
0 $4 $5 position (X,Y) of the second rounded end (center of the circle)*
0 Add line between two ends*
20,1,$1,$2,$3,$4,$5,0*
0 Add two circle primitives to create the rounded ends*
1,1,$1,$2,$3*
1,1,$1,$4,$5*%
%AMRotRect*
0 Rectangle, with rotation*
0 The origin of the aperture is its center*
0 $1 length*
0 $2 width*
0 $3 Rotation angle, in degrees counterclockwise*
0 Add horizontal line*
21,1,$1,$2,0,0,$3*%
G04 Aperture macros list end*
%ADD10C,2.000000*%
%ADD11C,1.524000*%
%ADD12C,3.200000*%
%ADD13R,1.500000X1.500000*%
%ADD14RotRect,1.000000X1.000000X30.000000*%
%ADD15HorizOval,1.000000X0.000000X0.000000X0.000000X0.000000X0*%
%ADD16RoundRect,0.075000X-0.075000X0.125000X-0.075000X-0.125000X0.075000X-0.125000X0.075000X0.125000X0*%
%ADD17RoundRect,0.075000X0.125000X0.075000X-0.125000X0.075000X-0.125000X-0.075000X0.125000X-0.075000X0*%
%ADD18RotRect,1.000000X1.000000X150.000000*%
%ADD19HorizOval,1.000000X0.000000X0.000000X0.000000X0.000000X0*%
%ADD20HorizOval,1.998980X0.187325X0.324456X-0.187325X-0.324456X0*%
%ADD21HorizOval,1.016000X0.439941X-0.254000X-0.439941X0.254000X0*%
%ADD22C,1.143000*%
%ADD23RoundRect,0.150000X0.650000X0.150000X-0.650000X0.150000X-0.650000X-0.150000X0.650000X-0.150000X0*%
%ADD24RoundRect,0.225000X0.250000X-0.225000X0.250000X0.225000X-0.250000X0.225000X-0.250000X-0.225000X0*%
%ADD25RoundRect,0.250000X0.925000X-0.412500X0.925000X0.412500X-0.925000X0.412500X-0.925000X-0.412500X0*%
%ADD26R,1.000000X1.000000*%
%ADD27O,1.000000X1.000000*%
G04 APERTURE END LIST*
D10*
%TO.C,SW1*%
X81053800Y-93798000D03*
X87553800Y-93798000D03*
X81053800Y-98298000D03*
X87553800Y-98298000D03*
%TD*%
D11*
%TO.C,U2*%
X79222600Y-86309200D03*
X81762600Y-86309200D03*
X84302600Y-86309200D03*
X86842600Y-86309200D03*
X89382600Y-86309200D03*
X89382600Y-78689200D03*
X86842600Y-78689200D03*
X84302600Y-78689200D03*
X81762600Y-78689200D03*
X79222600Y-78689200D03*
%TD*%
D12*
%TO.C,H5*%
X116027200Y-77216000D03*
%TD*%
D13*
%TO.C,GND*%
X61112400Y-79959200D03*
%TD*%
D14*
%TO.C,J1*%
X110152689Y-65265749D03*
D15*
X109517689Y-64165897D03*
X108882689Y-63066044D03*
X108247689Y-61966192D03*
%TD*%
D16*
%TO.C,R3*%
X107365800Y-81745200D03*
X107365800Y-82245200D03*
%TD*%
D12*
%TO.C,H4*%
X67691000Y-55575200D03*
%TD*%
D17*
%TO.C,R1*%
X93946200Y-53162200D03*
X93446200Y-53162200D03*
%TD*%
D18*
%TO.C,J3*%
X61012912Y-61187452D03*
D19*
X60377912Y-62287304D03*
X59742912Y-63387157D03*
X59107912Y-64487009D03*
%TD*%
D13*
%TO.C,VCC*%
X61112400Y-76409200D03*
%TD*%
%TO.C,TP3*%
X75006200Y-54000400D03*
%TD*%
%TO.C,TP4*%
X74803000Y-48996600D03*
%TD*%
D20*
%TO.C,U3*%
X110227379Y-105943562D03*
X108027675Y-104673562D03*
X105827970Y-103403562D03*
X103628266Y-102133562D03*
X101428561Y-100863562D03*
X99228857Y-99593562D03*
X97029152Y-98323562D03*
X105111432Y-84324642D03*
X107311137Y-85594642D03*
X109510841Y-86864642D03*
X111710546Y-88134642D03*
X113910250Y-89404642D03*
X116109955Y-90674642D03*
X118309659Y-91944642D03*
D21*
X99529173Y-91837759D03*
X100804173Y-89629395D03*
D22*
X114254632Y-100340890D03*
X115524632Y-98141185D03*
X112054928Y-99070890D03*
X113324928Y-96871185D03*
%TD*%
D23*
%TO.C,U1*%
X89317000Y-43637200D03*
X89317000Y-44907200D03*
X89317000Y-46177200D03*
X89317000Y-47447200D03*
X89317000Y-48717200D03*
X89317000Y-49987200D03*
X89317000Y-51257200D03*
X89317000Y-52527200D03*
X89317000Y-53797200D03*
X89317000Y-55067200D03*
X89317000Y-56337200D03*
X89317000Y-57607200D03*
X89317000Y-58877200D03*
X89317000Y-60147200D03*
X78867000Y-60147200D03*
X78867000Y-58877200D03*
X78867000Y-57607200D03*
X78867000Y-56337200D03*
X78867000Y-55067200D03*
X78867000Y-53797200D03*
X78867000Y-52527200D03*
X78867000Y-51257200D03*
X78867000Y-49987200D03*
X78867000Y-48717200D03*
X78867000Y-47447200D03*
X78867000Y-46177200D03*
X78867000Y-44907200D03*
X78867000Y-43637200D03*
%TD*%
D24*
%TO.C,C1*%
X93726000Y-48654000D03*
X93726000Y-47104000D03*
%TD*%
D13*
%TO.C,TP2*%
X110642400Y-81457800D03*
%TD*%
D17*
%TO.C,R2*%
X94001400Y-54838600D03*
X93501400Y-54838600D03*
%TD*%
D12*
%TO.C,H1*%
X67691000Y-98094800D03*
%TD*%
D25*
%TO.C,C2*%
X96977200Y-49403000D03*
X96977200Y-46328000D03*
%TD*%
D26*
%TO.C,J2*%
X82301000Y-106363200D03*
D27*
X83571000Y-106363200D03*
X84841000Y-106363200D03*
X86111000Y-106363200D03*
%TD*%
D13*
%TO.C,TP1*%
X113842800Y-83947000D03*
%TD*%
M02*
