%TF.GenerationSoftware,KiCad,Pcbnew,7.0.10-7.0.10~ubuntu22.04.1*%
%TF.CreationDate,2025-04-20T11:35:09+07:00*%
%TF.ProjectId,Catancenter,43617461-6e63-4656-9e74-65722e6b6963,rev?*%
%TF.SameCoordinates,Original*%
%TF.FileFunction,Copper,L1,Top*%
%TF.FilePolarity,Positive*%
%FSLAX46Y46*%
G04 Gerber Fmt 4.6, Leading zero omitted, Abs format (unit mm)*
G04 Created by KiCad (PCBNEW 7.0.10-7.0.10~ubuntu22.04.1) date 2025-04-20 11:35:09*
%MOMM*%
%LPD*%
G01*
G04 APERTURE LIST*
G04 Aperture macros list*
%AMHorizOval*
0 Thick line with rounded ends*
0 $1 width*
0 $2 $3 position (X,Y) of the first rounded end (center of the circle)*
0 $4 $5 position (X,Y) of the second rounded end (center of the circle)*
0 Add line between two ends*
20,1,$1,$2,$3,$4,$5,0*
0 Add two circle primitives to create the rounded ends*
1,1,$1,$2,$3*
1,1,$1,$4,$5*%
%AMRotRect*
0 Rectangle, with rotation*
0 The origin of the aperture is its center*
0 $1 length*
0 $2 width*
0 $3 Rotation angle, in degrees counterclockwise*
0 Add horizontal line*
21,1,$1,$2,0,0,$3*%
G04 Aperture macros list end*
%TA.AperFunction,ComponentPad*%
%ADD10C,2.000000*%
%TD*%
%TA.AperFunction,ComponentPad*%
%ADD11C,1.524000*%
%TD*%
%TA.AperFunction,SMDPad,CuDef*%
%ADD12R,2.000000X1.100000*%
%TD*%
%TA.AperFunction,ComponentPad*%
%ADD13RotRect,1.000000X1.000000X30.000000*%
%TD*%
%TA.AperFunction,ComponentPad*%
%ADD14HorizOval,1.000000X0.000000X0.000000X0.000000X0.000000X0*%
%TD*%
%TA.AperFunction,ComponentPad*%
%ADD15RotRect,1.000000X1.000000X150.000000*%
%TD*%
%TA.AperFunction,ComponentPad*%
%ADD16HorizOval,1.000000X0.000000X0.000000X0.000000X0.000000X0*%
%TD*%
%TA.AperFunction,ComponentPad*%
%ADD17R,1.000000X1.000000*%
%TD*%
%TA.AperFunction,ComponentPad*%
%ADD18O,1.000000X1.000000*%
%TD*%
%TA.AperFunction,ViaPad*%
%ADD19C,0.800000*%
%TD*%
%TA.AperFunction,Conductor*%
%ADD20C,0.250000*%
%TD*%
G04 APERTURE END LIST*
D10*
%TO.P,SW1,1,1*%
%TO.N,Net-(U3-PA7_A8_D8_SCK)*%
X81053800Y-93798000D03*
X87553800Y-93798000D03*
%TO.P,SW1,2,2*%
%TO.N,Net-(J1-Pin_3)*%
X81053800Y-98298000D03*
X87553800Y-98298000D03*
%TD*%
D11*
%TO.P,U2,1,e*%
%TO.N,Net-(D1-BA)*%
X79222600Y-86309200D03*
%TO.P,U2,2,d*%
%TO.N,Net-(D1-GA)*%
X81762600Y-86309200D03*
%TO.P,U2,3,c*%
%TO.N,Net-(D1-RA)*%
X84302600Y-86309200D03*
%TO.P,U2,4,g*%
%TO.N,Net-(U1-SEG4)*%
X86842600Y-86309200D03*
%TO.P,U2,5,dp*%
%TO.N,Net-(U1-SEG5)*%
X89382600Y-86309200D03*
%TO.P,U2,6,b*%
%TO.N,Net-(U1-GRID1)*%
X89382600Y-78689200D03*
%TO.P,U2,7,a*%
%TO.N,Net-(U1-SEG6)*%
X86842600Y-78689200D03*
%TO.P,U2,8,b*%
%TO.N,Net-(U1-SEG7)*%
X84302600Y-78689200D03*
%TO.P,U2,9,g*%
%TO.N,Net-(U1-GRID2)*%
X81762600Y-78689200D03*
%TO.P,U2,10,f*%
%TO.N,Net-(U1-SEG8)*%
X79222600Y-78689200D03*
%TD*%
D12*
%TO.P,D1,1,RK*%
%TO.N,Net-(D1-BK)*%
X82042600Y-66446400D03*
%TO.P,D1,2,GK*%
X82042600Y-68146400D03*
%TO.P,D1,3,BK*%
X82042600Y-69846400D03*
%TO.P,D1,4,BA*%
%TO.N,Net-(D1-BA)*%
X86842600Y-69846400D03*
%TO.P,D1,5,GA*%
%TO.N,Net-(D1-GA)*%
X86842600Y-68146400D03*
%TO.P,D1,6,RA*%
%TO.N,Net-(D1-RA)*%
X86842600Y-66446400D03*
%TD*%
D13*
%TO.P,J1,1,Pin_1*%
%TO.N,Net-(J1-Pin_1)*%
X110152689Y-65265749D03*
D14*
%TO.P,J1,2,Pin_2*%
%TO.N,Net-(J1-Pin_2)*%
X109517689Y-64165897D03*
%TO.P,J1,3,Pin_3*%
%TO.N,Net-(J1-Pin_3)*%
X108882689Y-63066044D03*
%TO.P,J1,4,Pin_4*%
%TO.N,Net-(J1-Pin_4)*%
X108247689Y-61966192D03*
%TD*%
D15*
%TO.P,J3,1,Pin_1*%
%TO.N,Net-(J3-Pin_1)*%
X61012912Y-61187452D03*
D16*
%TO.P,J3,2,Pin_2*%
%TO.N,Net-(J3-Pin_2)*%
X60377912Y-62287304D03*
%TO.P,J3,3,Pin_3*%
%TO.N,Net-(J1-Pin_3)*%
X59742912Y-63387157D03*
%TO.P,J3,4,Pin_4*%
%TO.N,Net-(J1-Pin_4)*%
X59107912Y-64487009D03*
%TD*%
D17*
%TO.P,J2,1,Pin_1*%
%TO.N,Net-(J2-Pin_1)*%
X82301000Y-106363200D03*
D18*
%TO.P,J2,2,Pin_2*%
%TO.N,Net-(J2-Pin_2)*%
X83571000Y-106363200D03*
%TO.P,J2,3,Pin_3*%
%TO.N,Net-(J1-Pin_3)*%
X84841000Y-106363200D03*
%TO.P,J2,4,Pin_4*%
%TO.N,Net-(J1-Pin_4)*%
X86111000Y-106363200D03*
%TD*%
D19*
%TO.N,Net-(D1-BK)*%
X81305400Y-53644800D03*
%TO.N,Net-(D1-BA)*%
X88747600Y-69799200D03*
X87249000Y-54051200D03*
X91059000Y-69621400D03*
%TO.N,Net-(D1-GA)*%
X90881200Y-67792600D03*
X88874600Y-67792600D03*
X86461600Y-55245000D03*
%TO.N,Net-(D1-RA)*%
X90855800Y-66421000D03*
X87325200Y-56362600D03*
X88671400Y-66370200D03*
%TO.N,Net-(U1-SEG4)*%
X91033600Y-57708800D03*
%TO.N,Net-(U1-SEG5)*%
X93294200Y-58724800D03*
%TO.N,Net-(U1-SEG6)*%
X89052400Y-61518800D03*
%TO.N,Net-(U1-SEG7)*%
X78816200Y-61671200D03*
X78028800Y-76377800D03*
%TO.N,Net-(U1-SEG8)*%
X80467200Y-58928000D03*
%TO.N,Net-(U1-GRID1)*%
X76504800Y-57023000D03*
X75895200Y-75488800D03*
%TO.N,Net-(U1-GRID2)*%
X80568800Y-55194200D03*
%TO.N,Net-(J1-Pin_4)*%
X105156000Y-50342800D03*
X60934600Y-66421000D03*
X102362000Y-97358200D03*
X92354400Y-50800000D03*
X64973200Y-66370200D03*
X83540600Y-52222400D03*
X101346000Y-50241200D03*
X105232200Y-64439800D03*
%TO.N,Net-(J1-Pin_3)*%
X102209600Y-91084400D03*
X104190800Y-92837000D03*
X110464600Y-92837000D03*
X110388400Y-95046800D03*
%TO.N,Net-(J1-Pin_1)*%
X108458000Y-95123000D03*
%TO.N,Net-(J1-Pin_2)*%
X106299000Y-95529400D03*
%TO.N,Net-(U1-DIN)*%
X92811600Y-51968400D03*
X99466400Y-75209400D03*
%TO.N,Net-(U1-SCLK)*%
X99415600Y-79400400D03*
X97002600Y-54330600D03*
%TO.N,Net-(U3-PA7_A8_D8_SCK)*%
X98577400Y-95605600D03*
%TD*%
D20*
%TO.N,Net-(D1-BK)*%
X82042600Y-54382000D02*
X81305400Y-53644800D01*
X82042600Y-68146400D02*
X82042600Y-66446400D01*
X82042600Y-69846400D02*
X82042600Y-68146400D01*
X82042600Y-66446400D02*
X82042600Y-54382000D01*
%TO.N,Net-(D1-BA)*%
X85289600Y-69846400D02*
X83820000Y-68376800D01*
X87223600Y-54025800D02*
X87249000Y-54051200D01*
X88493600Y-82042000D02*
X88519000Y-82067400D01*
X86889800Y-69799200D02*
X86842600Y-69846400D01*
X91897200Y-78689200D02*
X91897200Y-70459600D01*
X88747600Y-69799200D02*
X86889800Y-69799200D01*
X91897200Y-70459600D02*
X91059000Y-69621400D01*
X86842600Y-69846400D02*
X85289600Y-69846400D01*
X85902800Y-54025800D02*
X87223600Y-54025800D01*
X83820000Y-68376800D02*
X83820000Y-56108600D01*
X83820000Y-56108600D02*
X85902800Y-54025800D01*
X88519000Y-82067400D02*
X91897200Y-78689200D01*
X83489800Y-82042000D02*
X88493600Y-82042000D01*
X79222600Y-86309200D02*
X83489800Y-82042000D01*
%TO.N,Net-(D1-GA)*%
X86842600Y-68146400D02*
X86392600Y-68146400D01*
X84455000Y-57251600D02*
X86461600Y-55245000D01*
X93141800Y-78435200D02*
X93141800Y-70053200D01*
X93141800Y-70053200D02*
X90881200Y-67792600D01*
X81762600Y-86309200D02*
X85191600Y-82880200D01*
X85191600Y-82880200D02*
X88696800Y-82880200D01*
X87196400Y-67792600D02*
X86842600Y-68146400D01*
X86390800Y-68148200D02*
X84937600Y-68148200D01*
X84937600Y-68148200D02*
X84455000Y-67665600D01*
X86392600Y-68146400D02*
X86390800Y-68148200D01*
X84455000Y-67538600D02*
X84455000Y-57251600D01*
X88874600Y-67792600D02*
X87196400Y-67792600D01*
X84455000Y-67665600D02*
X84455000Y-67538600D01*
X88696800Y-82880200D02*
X93141800Y-78435200D01*
%TO.N,Net-(D1-RA)*%
X84302600Y-86309200D02*
X86995000Y-83616800D01*
X91516200Y-66421000D02*
X90855800Y-66421000D01*
X94767400Y-69672200D02*
X91516200Y-66421000D01*
X92227400Y-83616800D02*
X94767400Y-81076800D01*
X94767400Y-81076800D02*
X94767400Y-69672200D01*
X86842600Y-66446400D02*
X86842600Y-56845200D01*
X86995000Y-83616800D02*
X92227400Y-83616800D01*
X86842600Y-56845200D02*
X87325200Y-56362600D01*
X86918800Y-66370200D02*
X86842600Y-66446400D01*
X88671400Y-66370200D02*
X86918800Y-66370200D01*
%TO.N,Net-(U1-SEG4)*%
X96164400Y-83464400D02*
X96164400Y-62839600D01*
X86842600Y-86309200D02*
X88595200Y-84556600D01*
X88595200Y-84556600D02*
X95072200Y-84556600D01*
X95072200Y-84556600D02*
X96164400Y-83464400D01*
X96164400Y-62839600D02*
X91033600Y-57708800D01*
%TO.N,Net-(U1-SEG5)*%
X89382600Y-86309200D02*
X94361000Y-86309200D01*
X94361000Y-86309200D02*
X97688400Y-82981800D01*
X97688400Y-63119000D02*
X93294200Y-58724800D01*
X97688400Y-82981800D02*
X97688400Y-63119000D01*
%TO.N,Net-(U1-SEG6)*%
X89814400Y-62280800D02*
X89052400Y-61518800D01*
X89814400Y-72237600D02*
X89814400Y-62280800D01*
X86842600Y-75209400D02*
X89814400Y-72237600D01*
X86842600Y-78689200D02*
X86842600Y-75209400D01*
%TO.N,Net-(U1-SEG7)*%
X78028800Y-76377800D02*
X78028800Y-62458600D01*
X78028800Y-62458600D02*
X78816200Y-61671200D01*
%TO.N,Net-(U1-SEG8)*%
X79222600Y-63220600D02*
X80441800Y-62001400D01*
X80441800Y-58953400D02*
X80467200Y-58928000D01*
X79222600Y-78689200D02*
X79222600Y-63220600D01*
X80441800Y-62001400D02*
X80441800Y-58953400D01*
%TO.N,Net-(U1-GRID1)*%
X76504800Y-74879200D02*
X76504800Y-57023000D01*
X75895200Y-75488800D02*
X76504800Y-74879200D01*
%TO.N,Net-(U1-GRID2)*%
X81762600Y-78689200D02*
X80035400Y-76962000D01*
X81356200Y-55981600D02*
X80568800Y-55194200D01*
X81356200Y-58496200D02*
X81356200Y-55981600D01*
X80035400Y-76962000D02*
X80035400Y-76555600D01*
X80035400Y-76555600D02*
X80035400Y-63728600D01*
X81330800Y-62433200D02*
X81356200Y-62407800D01*
X80035400Y-63728600D02*
X81330800Y-62433200D01*
X81356200Y-62407800D02*
X81356200Y-58496200D01*
%TO.N,Net-(J1-Pin_4)*%
X102362000Y-97358200D02*
X101549200Y-97358200D01*
X101549200Y-97358200D02*
X95250000Y-103657400D01*
X92520200Y-106363200D02*
X86111000Y-106363200D01*
X92354400Y-50800000D02*
X84963000Y-50800000D01*
X106588208Y-61966192D02*
X108247689Y-61966192D01*
X105232200Y-63322200D02*
X106588208Y-61966192D01*
X84963000Y-50800000D02*
X83540600Y-52222400D01*
X105156000Y-50342800D02*
X101447600Y-50342800D01*
X92532200Y-106375200D02*
X92520200Y-106363200D01*
X60934600Y-66421000D02*
X64922400Y-66421000D01*
X101447600Y-50342800D02*
X101346000Y-50241200D01*
X64922400Y-66421000D02*
X64973200Y-66370200D01*
X95250000Y-103657400D02*
X92532200Y-106375200D01*
X105232200Y-64439800D02*
X105232200Y-63322200D01*
%TO.N,Net-(J1-Pin_3)*%
X110388400Y-92913200D02*
X110464600Y-92837000D01*
X104190800Y-92837000D02*
X103962200Y-92837000D01*
X110388400Y-95046800D02*
X110388400Y-92913200D01*
X103962200Y-92837000D02*
X102209600Y-91084400D01*
X84841000Y-106363200D02*
X84841000Y-101010800D01*
X84841000Y-101010800D02*
X87553800Y-98298000D01*
%TO.N,Net-(J1-Pin_1)*%
X110152689Y-65265749D02*
X110152689Y-70274689D01*
X110152689Y-70274689D02*
X108458000Y-71969378D01*
X108458000Y-71969378D02*
X108458000Y-95123000D01*
%TO.N,Net-(J1-Pin_2)*%
X108254800Y-67767200D02*
X108254800Y-65428786D01*
X106299000Y-69773800D02*
X108280200Y-67792600D01*
X106299000Y-95529400D02*
X106299000Y-69773800D01*
X108280200Y-67792600D02*
X108254800Y-67767200D01*
X108254800Y-65428786D02*
X109517689Y-64165897D01*
%TO.N,Net-(U1-DIN)*%
X99466400Y-58623200D02*
X92811600Y-51968400D01*
X99466400Y-75209400D02*
X99466400Y-58623200D01*
%TO.N,Net-(U1-SCLK)*%
X99415600Y-79400400D02*
X100191400Y-78624600D01*
X100191400Y-78624600D02*
X100191400Y-76770400D01*
X100191400Y-76770400D02*
X101142800Y-75819000D01*
X101142800Y-75819000D02*
X101142800Y-58470800D01*
X101142800Y-58470800D02*
X97002600Y-54330600D01*
%TO.N,Net-(U3-PA7_A8_D8_SCK)*%
X89361400Y-95605600D02*
X87553800Y-93798000D01*
X98577400Y-95605600D02*
X89361400Y-95605600D01*
%TD*%
M02*
