%TF.GenerationSoftware,KiCad,Pcbnew,7.0.10-7.0.10~ubuntu22.04.1*%
%TF.CreationDate,2025-04-20T11:35:09+07:00*%
%TF.ProjectId,Catancenter,43617461-6e63-4656-9e74-65722e6b6963,rev?*%
%TF.SameCoordinates,Original*%
%TF.FileFunction,Legend,Bot*%
%TF.FilePolarity,Positive*%
%FSLAX46Y46*%
G04 Gerber Fmt 4.6, Leading zero omitted, Abs format (unit mm)*
G04 Created by KiCad (PCBNEW 7.0.10-7.0.10~ubuntu22.04.1) date 2025-04-20 11:35:09*
%MOMM*%
%LPD*%
G01*
G04 APERTURE LIST*
%ADD10C,0.150000*%
%ADD11C,0.120000*%
%ADD12C,0.127000*%
%ADD13C,0.066040*%
%ADD14C,0.254000*%
%ADD15C,0.500000*%
G04 APERTURE END LIST*
D10*
X72027820Y-84442019D02*
X72027820Y-83442019D01*
X72027820Y-83442019D02*
X71789725Y-83442019D01*
X71789725Y-83442019D02*
X71646868Y-83489638D01*
X71646868Y-83489638D02*
X71551630Y-83584876D01*
X71551630Y-83584876D02*
X71504011Y-83680114D01*
X71504011Y-83680114D02*
X71456392Y-83870590D01*
X71456392Y-83870590D02*
X71456392Y-84013447D01*
X71456392Y-84013447D02*
X71504011Y-84203923D01*
X71504011Y-84203923D02*
X71551630Y-84299161D01*
X71551630Y-84299161D02*
X71646868Y-84394400D01*
X71646868Y-84394400D02*
X71789725Y-84442019D01*
X71789725Y-84442019D02*
X72027820Y-84442019D01*
X70646868Y-84394400D02*
X70742106Y-84442019D01*
X70742106Y-84442019D02*
X70932582Y-84442019D01*
X70932582Y-84442019D02*
X71027820Y-84394400D01*
X71027820Y-84394400D02*
X71075439Y-84299161D01*
X71075439Y-84299161D02*
X71075439Y-83918209D01*
X71075439Y-83918209D02*
X71027820Y-83822971D01*
X71027820Y-83822971D02*
X70932582Y-83775352D01*
X70932582Y-83775352D02*
X70742106Y-83775352D01*
X70742106Y-83775352D02*
X70646868Y-83822971D01*
X70646868Y-83822971D02*
X70599249Y-83918209D01*
X70599249Y-83918209D02*
X70599249Y-84013447D01*
X70599249Y-84013447D02*
X71075439Y-84108685D01*
X70218296Y-84394400D02*
X70123058Y-84442019D01*
X70123058Y-84442019D02*
X69932582Y-84442019D01*
X69932582Y-84442019D02*
X69837344Y-84394400D01*
X69837344Y-84394400D02*
X69789725Y-84299161D01*
X69789725Y-84299161D02*
X69789725Y-84251542D01*
X69789725Y-84251542D02*
X69837344Y-84156304D01*
X69837344Y-84156304D02*
X69932582Y-84108685D01*
X69932582Y-84108685D02*
X70075439Y-84108685D01*
X70075439Y-84108685D02*
X70170677Y-84061066D01*
X70170677Y-84061066D02*
X70218296Y-83965828D01*
X70218296Y-83965828D02*
X70218296Y-83918209D01*
X70218296Y-83918209D02*
X70170677Y-83822971D01*
X70170677Y-83822971D02*
X70075439Y-83775352D01*
X70075439Y-83775352D02*
X69932582Y-83775352D01*
X69932582Y-83775352D02*
X69837344Y-83822971D01*
X69361153Y-84442019D02*
X69361153Y-83775352D01*
X69361153Y-83442019D02*
X69408772Y-83489638D01*
X69408772Y-83489638D02*
X69361153Y-83537257D01*
X69361153Y-83537257D02*
X69313534Y-83489638D01*
X69313534Y-83489638D02*
X69361153Y-83442019D01*
X69361153Y-83442019D02*
X69361153Y-83537257D01*
X68456392Y-83775352D02*
X68456392Y-84584876D01*
X68456392Y-84584876D02*
X68504011Y-84680114D01*
X68504011Y-84680114D02*
X68551630Y-84727733D01*
X68551630Y-84727733D02*
X68646868Y-84775352D01*
X68646868Y-84775352D02*
X68789725Y-84775352D01*
X68789725Y-84775352D02*
X68884963Y-84727733D01*
X68456392Y-84394400D02*
X68551630Y-84442019D01*
X68551630Y-84442019D02*
X68742106Y-84442019D01*
X68742106Y-84442019D02*
X68837344Y-84394400D01*
X68837344Y-84394400D02*
X68884963Y-84346780D01*
X68884963Y-84346780D02*
X68932582Y-84251542D01*
X68932582Y-84251542D02*
X68932582Y-83965828D01*
X68932582Y-83965828D02*
X68884963Y-83870590D01*
X68884963Y-83870590D02*
X68837344Y-83822971D01*
X68837344Y-83822971D02*
X68742106Y-83775352D01*
X68742106Y-83775352D02*
X68551630Y-83775352D01*
X68551630Y-83775352D02*
X68456392Y-83822971D01*
X67980201Y-83775352D02*
X67980201Y-84442019D01*
X67980201Y-83870590D02*
X67932582Y-83822971D01*
X67932582Y-83822971D02*
X67837344Y-83775352D01*
X67837344Y-83775352D02*
X67694487Y-83775352D01*
X67694487Y-83775352D02*
X67599249Y-83822971D01*
X67599249Y-83822971D02*
X67551630Y-83918209D01*
X67551630Y-83918209D02*
X67551630Y-84442019D01*
X66694487Y-84394400D02*
X66789725Y-84442019D01*
X66789725Y-84442019D02*
X66980201Y-84442019D01*
X66980201Y-84442019D02*
X67075439Y-84394400D01*
X67075439Y-84394400D02*
X67123058Y-84299161D01*
X67123058Y-84299161D02*
X67123058Y-83918209D01*
X67123058Y-83918209D02*
X67075439Y-83822971D01*
X67075439Y-83822971D02*
X66980201Y-83775352D01*
X66980201Y-83775352D02*
X66789725Y-83775352D01*
X66789725Y-83775352D02*
X66694487Y-83822971D01*
X66694487Y-83822971D02*
X66646868Y-83918209D01*
X66646868Y-83918209D02*
X66646868Y-84013447D01*
X66646868Y-84013447D02*
X67123058Y-84108685D01*
X65789725Y-84442019D02*
X65789725Y-83442019D01*
X65789725Y-84394400D02*
X65884963Y-84442019D01*
X65884963Y-84442019D02*
X66075439Y-84442019D01*
X66075439Y-84442019D02*
X66170677Y-84394400D01*
X66170677Y-84394400D02*
X66218296Y-84346780D01*
X66218296Y-84346780D02*
X66265915Y-84251542D01*
X66265915Y-84251542D02*
X66265915Y-83965828D01*
X66265915Y-83965828D02*
X66218296Y-83870590D01*
X66218296Y-83870590D02*
X66170677Y-83822971D01*
X66170677Y-83822971D02*
X66075439Y-83775352D01*
X66075439Y-83775352D02*
X65884963Y-83775352D01*
X65884963Y-83775352D02*
X65789725Y-83822971D01*
X64551629Y-84442019D02*
X64551629Y-83775352D01*
X64551629Y-83442019D02*
X64599248Y-83489638D01*
X64599248Y-83489638D02*
X64551629Y-83537257D01*
X64551629Y-83537257D02*
X64504010Y-83489638D01*
X64504010Y-83489638D02*
X64551629Y-83442019D01*
X64551629Y-83442019D02*
X64551629Y-83537257D01*
X64075439Y-83775352D02*
X64075439Y-84442019D01*
X64075439Y-83870590D02*
X64027820Y-83822971D01*
X64027820Y-83822971D02*
X63932582Y-83775352D01*
X63932582Y-83775352D02*
X63789725Y-83775352D01*
X63789725Y-83775352D02*
X63694487Y-83822971D01*
X63694487Y-83822971D02*
X63646868Y-83918209D01*
X63646868Y-83918209D02*
X63646868Y-84442019D01*
X62551629Y-83442019D02*
X62218296Y-84442019D01*
X62218296Y-84442019D02*
X61884963Y-83442019D01*
X61551629Y-84442019D02*
X61551629Y-83775352D01*
X61551629Y-83442019D02*
X61599248Y-83489638D01*
X61599248Y-83489638D02*
X61551629Y-83537257D01*
X61551629Y-83537257D02*
X61504010Y-83489638D01*
X61504010Y-83489638D02*
X61551629Y-83442019D01*
X61551629Y-83442019D02*
X61551629Y-83537257D01*
X60694487Y-84394400D02*
X60789725Y-84442019D01*
X60789725Y-84442019D02*
X60980201Y-84442019D01*
X60980201Y-84442019D02*
X61075439Y-84394400D01*
X61075439Y-84394400D02*
X61123058Y-84299161D01*
X61123058Y-84299161D02*
X61123058Y-83918209D01*
X61123058Y-83918209D02*
X61075439Y-83822971D01*
X61075439Y-83822971D02*
X60980201Y-83775352D01*
X60980201Y-83775352D02*
X60789725Y-83775352D01*
X60789725Y-83775352D02*
X60694487Y-83822971D01*
X60694487Y-83822971D02*
X60646868Y-83918209D01*
X60646868Y-83918209D02*
X60646868Y-84013447D01*
X60646868Y-84013447D02*
X61123058Y-84108685D01*
X61075439Y-83537257D02*
X60884963Y-83394400D01*
X60884963Y-83394400D02*
X60694487Y-83537257D01*
X60884963Y-84775352D02*
X60837344Y-84727733D01*
X60837344Y-84727733D02*
X60884963Y-84680114D01*
X60884963Y-84680114D02*
X60932582Y-84727733D01*
X60932582Y-84727733D02*
X60884963Y-84775352D01*
X60884963Y-84775352D02*
X60884963Y-84680114D01*
X60361153Y-83775352D02*
X59980201Y-83775352D01*
X60218296Y-83442019D02*
X60218296Y-84299161D01*
X60218296Y-84299161D02*
X60170677Y-84394400D01*
X60170677Y-84394400D02*
X60075439Y-84442019D01*
X60075439Y-84442019D02*
X59980201Y-84442019D01*
X58884962Y-84442019D02*
X58884962Y-83442019D01*
X58884962Y-83442019D02*
X58313534Y-84442019D01*
X58313534Y-84442019D02*
X58313534Y-83442019D01*
X57408772Y-84442019D02*
X57408772Y-83918209D01*
X57408772Y-83918209D02*
X57456391Y-83822971D01*
X57456391Y-83822971D02*
X57551629Y-83775352D01*
X57551629Y-83775352D02*
X57742105Y-83775352D01*
X57742105Y-83775352D02*
X57837343Y-83822971D01*
X57408772Y-84394400D02*
X57504010Y-84442019D01*
X57504010Y-84442019D02*
X57742105Y-84442019D01*
X57742105Y-84442019D02*
X57837343Y-84394400D01*
X57837343Y-84394400D02*
X57884962Y-84299161D01*
X57884962Y-84299161D02*
X57884962Y-84203923D01*
X57884962Y-84203923D02*
X57837343Y-84108685D01*
X57837343Y-84108685D02*
X57742105Y-84061066D01*
X57742105Y-84061066D02*
X57504010Y-84061066D01*
X57504010Y-84061066D02*
X57408772Y-84013447D01*
X56932581Y-84442019D02*
X56932581Y-83775352D01*
X56932581Y-83870590D02*
X56884962Y-83822971D01*
X56884962Y-83822971D02*
X56789724Y-83775352D01*
X56789724Y-83775352D02*
X56646867Y-83775352D01*
X56646867Y-83775352D02*
X56551629Y-83822971D01*
X56551629Y-83822971D02*
X56504010Y-83918209D01*
X56504010Y-83918209D02*
X56504010Y-84442019D01*
X56504010Y-83918209D02*
X56456391Y-83822971D01*
X56456391Y-83822971D02*
X56361153Y-83775352D01*
X56361153Y-83775352D02*
X56218296Y-83775352D01*
X56218296Y-83775352D02*
X56123057Y-83822971D01*
X56123057Y-83822971D02*
X56075438Y-83918209D01*
X56075438Y-83918209D02*
X56075438Y-84442019D01*
X71694487Y-85528209D02*
X71551630Y-85575828D01*
X71551630Y-85575828D02*
X71504011Y-85623447D01*
X71504011Y-85623447D02*
X71456392Y-85718685D01*
X71456392Y-85718685D02*
X71456392Y-85861542D01*
X71456392Y-85861542D02*
X71504011Y-85956780D01*
X71504011Y-85956780D02*
X71551630Y-86004400D01*
X71551630Y-86004400D02*
X71646868Y-86052019D01*
X71646868Y-86052019D02*
X72027820Y-86052019D01*
X72027820Y-86052019D02*
X72027820Y-85052019D01*
X72027820Y-85052019D02*
X71694487Y-85052019D01*
X71694487Y-85052019D02*
X71599249Y-85099638D01*
X71599249Y-85099638D02*
X71551630Y-85147257D01*
X71551630Y-85147257D02*
X71504011Y-85242495D01*
X71504011Y-85242495D02*
X71504011Y-85337733D01*
X71504011Y-85337733D02*
X71551630Y-85432971D01*
X71551630Y-85432971D02*
X71599249Y-85480590D01*
X71599249Y-85480590D02*
X71694487Y-85528209D01*
X71694487Y-85528209D02*
X72027820Y-85528209D01*
X71123058Y-85385352D02*
X70884963Y-86052019D01*
X70646868Y-85385352D02*
X70884963Y-86052019D01*
X70884963Y-86052019D02*
X70980201Y-86290114D01*
X70980201Y-86290114D02*
X71027820Y-86337733D01*
X71027820Y-86337733D02*
X71123058Y-86385352D01*
X69551629Y-86004400D02*
X69408772Y-86052019D01*
X69408772Y-86052019D02*
X69170677Y-86052019D01*
X69170677Y-86052019D02*
X69075439Y-86004400D01*
X69075439Y-86004400D02*
X69027820Y-85956780D01*
X69027820Y-85956780D02*
X68980201Y-85861542D01*
X68980201Y-85861542D02*
X68980201Y-85766304D01*
X68980201Y-85766304D02*
X69027820Y-85671066D01*
X69027820Y-85671066D02*
X69075439Y-85623447D01*
X69075439Y-85623447D02*
X69170677Y-85575828D01*
X69170677Y-85575828D02*
X69361153Y-85528209D01*
X69361153Y-85528209D02*
X69456391Y-85480590D01*
X69456391Y-85480590D02*
X69504010Y-85432971D01*
X69504010Y-85432971D02*
X69551629Y-85337733D01*
X69551629Y-85337733D02*
X69551629Y-85242495D01*
X69551629Y-85242495D02*
X69504010Y-85147257D01*
X69504010Y-85147257D02*
X69456391Y-85099638D01*
X69456391Y-85099638D02*
X69361153Y-85052019D01*
X69361153Y-85052019D02*
X69123058Y-85052019D01*
X69123058Y-85052019D02*
X68980201Y-85099638D01*
X68170677Y-86004400D02*
X68265915Y-86052019D01*
X68265915Y-86052019D02*
X68456391Y-86052019D01*
X68456391Y-86052019D02*
X68551629Y-86004400D01*
X68551629Y-86004400D02*
X68599248Y-85909161D01*
X68599248Y-85909161D02*
X68599248Y-85528209D01*
X68599248Y-85528209D02*
X68551629Y-85432971D01*
X68551629Y-85432971D02*
X68456391Y-85385352D01*
X68456391Y-85385352D02*
X68265915Y-85385352D01*
X68265915Y-85385352D02*
X68170677Y-85432971D01*
X68170677Y-85432971D02*
X68123058Y-85528209D01*
X68123058Y-85528209D02*
X68123058Y-85623447D01*
X68123058Y-85623447D02*
X68599248Y-85718685D01*
X67265915Y-86052019D02*
X67265915Y-85528209D01*
X67265915Y-85528209D02*
X67313534Y-85432971D01*
X67313534Y-85432971D02*
X67408772Y-85385352D01*
X67408772Y-85385352D02*
X67599248Y-85385352D01*
X67599248Y-85385352D02*
X67694486Y-85432971D01*
X67265915Y-86004400D02*
X67361153Y-86052019D01*
X67361153Y-86052019D02*
X67599248Y-86052019D01*
X67599248Y-86052019D02*
X67694486Y-86004400D01*
X67694486Y-86004400D02*
X67742105Y-85909161D01*
X67742105Y-85909161D02*
X67742105Y-85813923D01*
X67742105Y-85813923D02*
X67694486Y-85718685D01*
X67694486Y-85718685D02*
X67599248Y-85671066D01*
X67599248Y-85671066D02*
X67361153Y-85671066D01*
X67361153Y-85671066D02*
X67265915Y-85623447D01*
X66789724Y-85385352D02*
X66789724Y-86052019D01*
X66789724Y-85480590D02*
X66742105Y-85432971D01*
X66742105Y-85432971D02*
X66646867Y-85385352D01*
X66646867Y-85385352D02*
X66504010Y-85385352D01*
X66504010Y-85385352D02*
X66408772Y-85432971D01*
X66408772Y-85432971D02*
X66361153Y-85528209D01*
X66361153Y-85528209D02*
X66361153Y-86052019D01*
X64789724Y-85528209D02*
X64646867Y-85575828D01*
X64646867Y-85575828D02*
X64599248Y-85623447D01*
X64599248Y-85623447D02*
X64551629Y-85718685D01*
X64551629Y-85718685D02*
X64551629Y-85861542D01*
X64551629Y-85861542D02*
X64599248Y-85956780D01*
X64599248Y-85956780D02*
X64646867Y-86004400D01*
X64646867Y-86004400D02*
X64742105Y-86052019D01*
X64742105Y-86052019D02*
X65123057Y-86052019D01*
X65123057Y-86052019D02*
X65123057Y-85052019D01*
X65123057Y-85052019D02*
X64789724Y-85052019D01*
X64789724Y-85052019D02*
X64694486Y-85099638D01*
X64694486Y-85099638D02*
X64646867Y-85147257D01*
X64646867Y-85147257D02*
X64599248Y-85242495D01*
X64599248Y-85242495D02*
X64599248Y-85337733D01*
X64599248Y-85337733D02*
X64646867Y-85432971D01*
X64646867Y-85432971D02*
X64694486Y-85480590D01*
X64694486Y-85480590D02*
X64789724Y-85528209D01*
X64789724Y-85528209D02*
X65123057Y-85528209D01*
X63980200Y-86052019D02*
X64075438Y-86004400D01*
X64075438Y-86004400D02*
X64123057Y-85956780D01*
X64123057Y-85956780D02*
X64170676Y-85861542D01*
X64170676Y-85861542D02*
X64170676Y-85575828D01*
X64170676Y-85575828D02*
X64123057Y-85480590D01*
X64123057Y-85480590D02*
X64075438Y-85432971D01*
X64075438Y-85432971D02*
X63980200Y-85385352D01*
X63980200Y-85385352D02*
X63837343Y-85385352D01*
X63837343Y-85385352D02*
X63742105Y-85432971D01*
X63742105Y-85432971D02*
X63694486Y-85480590D01*
X63694486Y-85480590D02*
X63646867Y-85575828D01*
X63646867Y-85575828D02*
X63646867Y-85861542D01*
X63646867Y-85861542D02*
X63694486Y-85956780D01*
X63694486Y-85956780D02*
X63742105Y-86004400D01*
X63742105Y-86004400D02*
X63837343Y-86052019D01*
X63837343Y-86052019D02*
X63980200Y-86052019D01*
X63313533Y-85385352D02*
X63075438Y-86052019D01*
X62837343Y-85385352D02*
X63075438Y-86052019D01*
X63075438Y-86052019D02*
X63170676Y-86290114D01*
X63170676Y-86290114D02*
X63218295Y-86337733D01*
X63218295Y-86337733D02*
X63313533Y-86385352D01*
X62027819Y-86004400D02*
X62123057Y-86052019D01*
X62123057Y-86052019D02*
X62313533Y-86052019D01*
X62313533Y-86052019D02*
X62408771Y-86004400D01*
X62408771Y-86004400D02*
X62456390Y-85956780D01*
X62456390Y-85956780D02*
X62504009Y-85861542D01*
X62504009Y-85861542D02*
X62504009Y-85575828D01*
X62504009Y-85575828D02*
X62456390Y-85480590D01*
X62456390Y-85480590D02*
X62408771Y-85432971D01*
X62408771Y-85432971D02*
X62313533Y-85385352D01*
X62313533Y-85385352D02*
X62123057Y-85385352D01*
X62123057Y-85385352D02*
X62027819Y-85432971D01*
X61218295Y-86004400D02*
X61313533Y-86052019D01*
X61313533Y-86052019D02*
X61504009Y-86052019D01*
X61504009Y-86052019D02*
X61599247Y-86004400D01*
X61599247Y-86004400D02*
X61646866Y-85909161D01*
X61646866Y-85909161D02*
X61646866Y-85528209D01*
X61646866Y-85528209D02*
X61599247Y-85432971D01*
X61599247Y-85432971D02*
X61504009Y-85385352D01*
X61504009Y-85385352D02*
X61313533Y-85385352D01*
X61313533Y-85385352D02*
X61218295Y-85432971D01*
X61218295Y-85432971D02*
X61170676Y-85528209D01*
X61170676Y-85528209D02*
X61170676Y-85623447D01*
X61170676Y-85623447D02*
X61646866Y-85718685D01*
X58775504Y-79461638D02*
X58870742Y-79414019D01*
X58870742Y-79414019D02*
X59013599Y-79414019D01*
X59013599Y-79414019D02*
X59156456Y-79461638D01*
X59156456Y-79461638D02*
X59251694Y-79556876D01*
X59251694Y-79556876D02*
X59299313Y-79652114D01*
X59299313Y-79652114D02*
X59346932Y-79842590D01*
X59346932Y-79842590D02*
X59346932Y-79985447D01*
X59346932Y-79985447D02*
X59299313Y-80175923D01*
X59299313Y-80175923D02*
X59251694Y-80271161D01*
X59251694Y-80271161D02*
X59156456Y-80366400D01*
X59156456Y-80366400D02*
X59013599Y-80414019D01*
X59013599Y-80414019D02*
X58918361Y-80414019D01*
X58918361Y-80414019D02*
X58775504Y-80366400D01*
X58775504Y-80366400D02*
X58727885Y-80318780D01*
X58727885Y-80318780D02*
X58727885Y-79985447D01*
X58727885Y-79985447D02*
X58918361Y-79985447D01*
X58299313Y-80414019D02*
X58299313Y-79414019D01*
X58299313Y-79414019D02*
X57727885Y-80414019D01*
X57727885Y-80414019D02*
X57727885Y-79414019D01*
X57251694Y-80414019D02*
X57251694Y-79414019D01*
X57251694Y-79414019D02*
X57013599Y-79414019D01*
X57013599Y-79414019D02*
X56870742Y-79461638D01*
X56870742Y-79461638D02*
X56775504Y-79556876D01*
X56775504Y-79556876D02*
X56727885Y-79652114D01*
X56727885Y-79652114D02*
X56680266Y-79842590D01*
X56680266Y-79842590D02*
X56680266Y-79985447D01*
X56680266Y-79985447D02*
X56727885Y-80175923D01*
X56727885Y-80175923D02*
X56775504Y-80271161D01*
X56775504Y-80271161D02*
X56870742Y-80366400D01*
X56870742Y-80366400D02*
X57013599Y-80414019D01*
X57013599Y-80414019D02*
X57251694Y-80414019D01*
X107077084Y-64842393D02*
X107434227Y-65460983D01*
X107434227Y-65460983D02*
X107546895Y-65560891D01*
X107546895Y-65560891D02*
X107676993Y-65595751D01*
X107676993Y-65595751D02*
X107824520Y-65565561D01*
X107824520Y-65565561D02*
X107906999Y-65517942D01*
X106711059Y-66208419D02*
X107205930Y-65922704D01*
X106958495Y-66065562D02*
X106458495Y-65199536D01*
X106458495Y-65199536D02*
X106612402Y-65275635D01*
X106612402Y-65275635D02*
X106742499Y-65310495D01*
X106742499Y-65310495D02*
X106848787Y-65304115D01*
X106820619Y-81828533D02*
X106344428Y-81495200D01*
X106820619Y-81257105D02*
X105820619Y-81257105D01*
X105820619Y-81257105D02*
X105820619Y-81638057D01*
X105820619Y-81638057D02*
X105868238Y-81733295D01*
X105868238Y-81733295D02*
X105915857Y-81780914D01*
X105915857Y-81780914D02*
X106011095Y-81828533D01*
X106011095Y-81828533D02*
X106153952Y-81828533D01*
X106153952Y-81828533D02*
X106249190Y-81780914D01*
X106249190Y-81780914D02*
X106296809Y-81733295D01*
X106296809Y-81733295D02*
X106344428Y-81638057D01*
X106344428Y-81638057D02*
X106344428Y-81257105D01*
X105820619Y-82161867D02*
X105820619Y-82780914D01*
X105820619Y-82780914D02*
X106201571Y-82447581D01*
X106201571Y-82447581D02*
X106201571Y-82590438D01*
X106201571Y-82590438D02*
X106249190Y-82685676D01*
X106249190Y-82685676D02*
X106296809Y-82733295D01*
X106296809Y-82733295D02*
X106392047Y-82780914D01*
X106392047Y-82780914D02*
X106630142Y-82780914D01*
X106630142Y-82780914D02*
X106725380Y-82733295D01*
X106725380Y-82733295D02*
X106773000Y-82685676D01*
X106773000Y-82685676D02*
X106820619Y-82590438D01*
X106820619Y-82590438D02*
X106820619Y-82304724D01*
X106820619Y-82304724D02*
X106773000Y-82209486D01*
X106773000Y-82209486D02*
X106725380Y-82161867D01*
X95619866Y-53642419D02*
X95953199Y-53166228D01*
X96191294Y-53642419D02*
X96191294Y-52642419D01*
X96191294Y-52642419D02*
X95810342Y-52642419D01*
X95810342Y-52642419D02*
X95715104Y-52690038D01*
X95715104Y-52690038D02*
X95667485Y-52737657D01*
X95667485Y-52737657D02*
X95619866Y-52832895D01*
X95619866Y-52832895D02*
X95619866Y-52975752D01*
X95619866Y-52975752D02*
X95667485Y-53070990D01*
X95667485Y-53070990D02*
X95715104Y-53118609D01*
X95715104Y-53118609D02*
X95810342Y-53166228D01*
X95810342Y-53166228D02*
X96191294Y-53166228D01*
X94667485Y-53642419D02*
X95238913Y-53642419D01*
X94953199Y-53642419D02*
X94953199Y-52642419D01*
X94953199Y-52642419D02*
X95048437Y-52785276D01*
X95048437Y-52785276D02*
X95143675Y-52880514D01*
X95143675Y-52880514D02*
X95238913Y-52928133D01*
X63172265Y-64185126D02*
X62815122Y-64803715D01*
X62815122Y-64803715D02*
X62784933Y-64951243D01*
X62784933Y-64951243D02*
X62819793Y-65081340D01*
X62819793Y-65081340D02*
X62919701Y-65194008D01*
X62919701Y-65194008D02*
X63002180Y-65241627D01*
X62842351Y-63994649D02*
X62306240Y-63685126D01*
X62306240Y-63685126D02*
X62404439Y-64181707D01*
X62404439Y-64181707D02*
X62280721Y-64110278D01*
X62280721Y-64110278D02*
X62174433Y-64103898D01*
X62174433Y-64103898D02*
X62109384Y-64121328D01*
X62109384Y-64121328D02*
X62020525Y-64179997D01*
X62020525Y-64179997D02*
X61901478Y-64386194D01*
X61901478Y-64386194D02*
X61895098Y-64492482D01*
X61895098Y-64492482D02*
X61912528Y-64557531D01*
X61912528Y-64557531D02*
X61971197Y-64646389D01*
X61971197Y-64646389D02*
X62218633Y-64789246D01*
X62218633Y-64789246D02*
X62324921Y-64795626D01*
X62324921Y-64795626D02*
X62389970Y-64778196D01*
X59194532Y-75858019D02*
X58861199Y-76858019D01*
X58861199Y-76858019D02*
X58527866Y-75858019D01*
X57623104Y-76762780D02*
X57670723Y-76810400D01*
X57670723Y-76810400D02*
X57813580Y-76858019D01*
X57813580Y-76858019D02*
X57908818Y-76858019D01*
X57908818Y-76858019D02*
X58051675Y-76810400D01*
X58051675Y-76810400D02*
X58146913Y-76715161D01*
X58146913Y-76715161D02*
X58194532Y-76619923D01*
X58194532Y-76619923D02*
X58242151Y-76429447D01*
X58242151Y-76429447D02*
X58242151Y-76286590D01*
X58242151Y-76286590D02*
X58194532Y-76096114D01*
X58194532Y-76096114D02*
X58146913Y-76000876D01*
X58146913Y-76000876D02*
X58051675Y-75905638D01*
X58051675Y-75905638D02*
X57908818Y-75858019D01*
X57908818Y-75858019D02*
X57813580Y-75858019D01*
X57813580Y-75858019D02*
X57670723Y-75905638D01*
X57670723Y-75905638D02*
X57623104Y-75953257D01*
X56623104Y-76762780D02*
X56670723Y-76810400D01*
X56670723Y-76810400D02*
X56813580Y-76858019D01*
X56813580Y-76858019D02*
X56908818Y-76858019D01*
X56908818Y-76858019D02*
X57051675Y-76810400D01*
X57051675Y-76810400D02*
X57146913Y-76715161D01*
X57146913Y-76715161D02*
X57194532Y-76619923D01*
X57194532Y-76619923D02*
X57242151Y-76429447D01*
X57242151Y-76429447D02*
X57242151Y-76286590D01*
X57242151Y-76286590D02*
X57194532Y-76096114D01*
X57194532Y-76096114D02*
X57146913Y-76000876D01*
X57146913Y-76000876D02*
X57051675Y-75905638D01*
X57051675Y-75905638D02*
X56908818Y-75858019D01*
X56908818Y-75858019D02*
X56813580Y-75858019D01*
X56813580Y-75858019D02*
X56670723Y-75905638D01*
X56670723Y-75905638D02*
X56623104Y-75953257D01*
X92231380Y-46797933D02*
X92279000Y-46750314D01*
X92279000Y-46750314D02*
X92326619Y-46607457D01*
X92326619Y-46607457D02*
X92326619Y-46512219D01*
X92326619Y-46512219D02*
X92279000Y-46369362D01*
X92279000Y-46369362D02*
X92183761Y-46274124D01*
X92183761Y-46274124D02*
X92088523Y-46226505D01*
X92088523Y-46226505D02*
X91898047Y-46178886D01*
X91898047Y-46178886D02*
X91755190Y-46178886D01*
X91755190Y-46178886D02*
X91564714Y-46226505D01*
X91564714Y-46226505D02*
X91469476Y-46274124D01*
X91469476Y-46274124D02*
X91374238Y-46369362D01*
X91374238Y-46369362D02*
X91326619Y-46512219D01*
X91326619Y-46512219D02*
X91326619Y-46607457D01*
X91326619Y-46607457D02*
X91374238Y-46750314D01*
X91374238Y-46750314D02*
X91421857Y-46797933D01*
X92326619Y-47750314D02*
X92326619Y-47178886D01*
X92326619Y-47464600D02*
X91326619Y-47464600D01*
X91326619Y-47464600D02*
X91469476Y-47369362D01*
X91469476Y-47369362D02*
X91564714Y-47274124D01*
X91564714Y-47274124D02*
X91612333Y-47178886D01*
X95619866Y-55344219D02*
X95953199Y-54868028D01*
X96191294Y-55344219D02*
X96191294Y-54344219D01*
X96191294Y-54344219D02*
X95810342Y-54344219D01*
X95810342Y-54344219D02*
X95715104Y-54391838D01*
X95715104Y-54391838D02*
X95667485Y-54439457D01*
X95667485Y-54439457D02*
X95619866Y-54534695D01*
X95619866Y-54534695D02*
X95619866Y-54677552D01*
X95619866Y-54677552D02*
X95667485Y-54772790D01*
X95667485Y-54772790D02*
X95715104Y-54820409D01*
X95715104Y-54820409D02*
X95810342Y-54868028D01*
X95810342Y-54868028D02*
X96191294Y-54868028D01*
X95238913Y-54439457D02*
X95191294Y-54391838D01*
X95191294Y-54391838D02*
X95096056Y-54344219D01*
X95096056Y-54344219D02*
X94857961Y-54344219D01*
X94857961Y-54344219D02*
X94762723Y-54391838D01*
X94762723Y-54391838D02*
X94715104Y-54439457D01*
X94715104Y-54439457D02*
X94667485Y-54534695D01*
X94667485Y-54534695D02*
X94667485Y-54629933D01*
X94667485Y-54629933D02*
X94715104Y-54772790D01*
X94715104Y-54772790D02*
X95286532Y-55344219D01*
X95286532Y-55344219D02*
X94667485Y-55344219D01*
X99800580Y-47636133D02*
X99848200Y-47588514D01*
X99848200Y-47588514D02*
X99895819Y-47445657D01*
X99895819Y-47445657D02*
X99895819Y-47350419D01*
X99895819Y-47350419D02*
X99848200Y-47207562D01*
X99848200Y-47207562D02*
X99752961Y-47112324D01*
X99752961Y-47112324D02*
X99657723Y-47064705D01*
X99657723Y-47064705D02*
X99467247Y-47017086D01*
X99467247Y-47017086D02*
X99324390Y-47017086D01*
X99324390Y-47017086D02*
X99133914Y-47064705D01*
X99133914Y-47064705D02*
X99038676Y-47112324D01*
X99038676Y-47112324D02*
X98943438Y-47207562D01*
X98943438Y-47207562D02*
X98895819Y-47350419D01*
X98895819Y-47350419D02*
X98895819Y-47445657D01*
X98895819Y-47445657D02*
X98943438Y-47588514D01*
X98943438Y-47588514D02*
X98991057Y-47636133D01*
X98991057Y-48017086D02*
X98943438Y-48064705D01*
X98943438Y-48064705D02*
X98895819Y-48159943D01*
X98895819Y-48159943D02*
X98895819Y-48398038D01*
X98895819Y-48398038D02*
X98943438Y-48493276D01*
X98943438Y-48493276D02*
X98991057Y-48540895D01*
X98991057Y-48540895D02*
X99086295Y-48588514D01*
X99086295Y-48588514D02*
X99181533Y-48588514D01*
X99181533Y-48588514D02*
X99324390Y-48540895D01*
X99324390Y-48540895D02*
X99895819Y-47969467D01*
X99895819Y-47969467D02*
X99895819Y-48588514D01*
X83833619Y-102435066D02*
X84547904Y-102435066D01*
X84547904Y-102435066D02*
X84690761Y-102387447D01*
X84690761Y-102387447D02*
X84786000Y-102292209D01*
X84786000Y-102292209D02*
X84833619Y-102149352D01*
X84833619Y-102149352D02*
X84833619Y-102054114D01*
X83928857Y-102863638D02*
X83881238Y-102911257D01*
X83881238Y-102911257D02*
X83833619Y-103006495D01*
X83833619Y-103006495D02*
X83833619Y-103244590D01*
X83833619Y-103244590D02*
X83881238Y-103339828D01*
X83881238Y-103339828D02*
X83928857Y-103387447D01*
X83928857Y-103387447D02*
X84024095Y-103435066D01*
X84024095Y-103435066D02*
X84119333Y-103435066D01*
X84119333Y-103435066D02*
X84262190Y-103387447D01*
X84262190Y-103387447D02*
X84833619Y-102816019D01*
X84833619Y-102816019D02*
X84833619Y-103435066D01*
D11*
%TO.C,GND*%
X62062400Y-80909200D02*
X62062400Y-79009200D01*
X62062400Y-79009200D02*
X60162400Y-79009200D01*
X60162400Y-80909200D02*
X62062400Y-80909200D01*
X60162400Y-79009200D02*
X60162400Y-80909200D01*
%TO.C,J1*%
X109494510Y-65645749D02*
X109874510Y-66303928D01*
X109874510Y-66303928D02*
X110532689Y-65923928D01*
X108281240Y-61144305D02*
X108318902Y-61209536D01*
X108946240Y-62296118D02*
X109916189Y-61736118D01*
X108953902Y-62309388D02*
X108938579Y-62282848D01*
X109581240Y-63395971D02*
X110551189Y-62835971D01*
X109588902Y-63409241D02*
X109573579Y-63382700D01*
X110493368Y-64335823D02*
X111186189Y-63935823D01*
X111158368Y-65487637D02*
X111851189Y-65087637D01*
X109251189Y-60584305D02*
X108281240Y-61144305D01*
X109728689Y-61411359D02*
X113192790Y-59411359D01*
X110363689Y-62511211D02*
X113827790Y-60511211D01*
X110998689Y-63611063D02*
X114462790Y-61611063D01*
X111423689Y-64347185D02*
X114887790Y-62347185D01*
X111483689Y-64451108D02*
X114947790Y-62451108D01*
X111543689Y-64555031D02*
X115007790Y-62555031D01*
X111603689Y-64658954D02*
X115067790Y-62658954D01*
X111633689Y-64710916D02*
X115097790Y-62710916D01*
X111851189Y-65087637D02*
X109251189Y-60584305D01*
X112932790Y-58961026D02*
X109468689Y-60961026D01*
X113192790Y-59411359D02*
X112932790Y-58961026D01*
X113567790Y-60060878D02*
X110103689Y-62060878D01*
X113827790Y-60511211D02*
X113567790Y-60060878D01*
X114202790Y-61160730D02*
X110738689Y-63160730D01*
X114462790Y-61611063D02*
X114202790Y-61160730D01*
X114837790Y-62260582D02*
X111373689Y-64260582D01*
X115097790Y-62710916D02*
X114837790Y-62260582D01*
%TO.C,J3*%
X61671091Y-61567452D02*
X62051091Y-60909273D01*
X62051091Y-60909273D02*
X61392912Y-60529273D01*
X58379361Y-64868896D02*
X58417022Y-64803665D01*
X59044361Y-63717083D02*
X58074412Y-63157083D01*
X59052022Y-63703813D02*
X59036699Y-63730353D01*
X59679361Y-62617230D02*
X58709412Y-62057230D01*
X59687022Y-62603960D02*
X59671699Y-62630501D01*
X60037233Y-61357378D02*
X59344412Y-60957378D01*
X60702233Y-60205564D02*
X60009412Y-59805564D01*
X57409412Y-64308896D02*
X58379361Y-64868896D01*
X57886912Y-63481842D02*
X54422811Y-61481842D01*
X58521912Y-62381990D02*
X55057811Y-60381990D01*
X59156912Y-61282138D02*
X55692811Y-59282138D01*
X59581912Y-60546016D02*
X56117811Y-58546016D01*
X59641912Y-60442093D02*
X56177811Y-58442093D01*
X59701912Y-60338170D02*
X56237811Y-58338170D01*
X59761912Y-60234247D02*
X56297811Y-58234247D01*
X59791912Y-60182285D02*
X56327811Y-58182285D01*
X60009412Y-59805564D02*
X57409412Y-64308896D01*
X54162811Y-61932175D02*
X57626912Y-63932175D01*
X54422811Y-61481842D02*
X54162811Y-61932175D01*
X54797811Y-60832323D02*
X58261912Y-62832323D01*
X55057811Y-60381990D02*
X54797811Y-60832323D01*
X55432811Y-59732471D02*
X58896912Y-61732471D01*
X55692811Y-59282138D02*
X55432811Y-59732471D01*
X56067811Y-58632619D02*
X59531912Y-60632619D01*
X56327811Y-58182285D02*
X56067811Y-58632619D01*
%TO.C,VCC*%
X62062400Y-77359200D02*
X62062400Y-75459200D01*
X62062400Y-75459200D02*
X60162400Y-75459200D01*
X60162400Y-77359200D02*
X62062400Y-77359200D01*
X60162400Y-75459200D02*
X60162400Y-77359200D01*
%TO.C,TP3*%
X75956200Y-54950400D02*
X75956200Y-53050400D01*
X75956200Y-53050400D02*
X74056200Y-53050400D01*
X74056200Y-54950400D02*
X75956200Y-54950400D01*
X74056200Y-53050400D02*
X74056200Y-54950400D01*
%TO.C,TP4*%
X75753000Y-49946600D02*
X75753000Y-48046600D01*
X75753000Y-48046600D02*
X73853000Y-48046600D01*
X73853000Y-49946600D02*
X75753000Y-49946600D01*
X73853000Y-48046600D02*
X73853000Y-49946600D01*
D12*
%TO.C,U3*%
X94120327Y-97606155D02*
X103019217Y-82192825D01*
D13*
X108387958Y-101590813D02*
X110699847Y-102925583D01*
X108387958Y-101590813D02*
X109276958Y-100051020D01*
X110699847Y-102925583D02*
X111588847Y-101385790D01*
X109276958Y-100051020D02*
X111588847Y-101385790D01*
X97845253Y-92424394D02*
X100044958Y-93694394D01*
X97845253Y-92424394D02*
X100702753Y-87475059D01*
X100044958Y-93694394D02*
X102902458Y-88745059D01*
X112693259Y-100996894D02*
X114892963Y-102266894D01*
X112693259Y-100996894D02*
X115233259Y-96597485D01*
X114892963Y-102266894D02*
X117432963Y-97867485D01*
X115233259Y-96597485D02*
X117432963Y-97867485D01*
X100702753Y-87475059D02*
X102902458Y-88745059D01*
X112705958Y-94111818D02*
X115017847Y-95446588D01*
X112705958Y-94111818D02*
X113594958Y-92572025D01*
X115017847Y-95446588D02*
X115906847Y-93906795D01*
D12*
X113867884Y-93542023D02*
X109368274Y-101335576D01*
D13*
X113594958Y-92572025D02*
X115906847Y-93906795D01*
D14*
X109530714Y-107456552D02*
G75*
G03*
X109276714Y-107456552I-127000J0D01*
G01*
X109276714Y-107456552D02*
G75*
G03*
X109530714Y-107456552I127000J0D01*
G01*
D15*
%TO.C,U1*%
X91517000Y-43637200D02*
G75*
G03*
X91117000Y-43637200I-200000J0D01*
G01*
X91117000Y-43637200D02*
G75*
G03*
X91517000Y-43637200I200000J0D01*
G01*
D11*
%TO.C,C1*%
X93216000Y-48019580D02*
X93216000Y-47738420D01*
X94236000Y-48019580D02*
X94236000Y-47738420D01*
%TO.C,TP2*%
X111592400Y-82407800D02*
X111592400Y-80507800D01*
X111592400Y-80507800D02*
X109692400Y-80507800D01*
X109692400Y-82407800D02*
X111592400Y-82407800D01*
X109692400Y-80507800D02*
X109692400Y-82407800D01*
%TO.C,C2*%
X95467200Y-50325500D02*
X95467200Y-46115500D01*
X98487200Y-50325500D02*
X95467200Y-50325500D01*
X98487200Y-46115500D02*
X98487200Y-50325500D01*
%TO.C,J2*%
X82301000Y-105603200D02*
X81541000Y-105603200D01*
X81541000Y-105603200D02*
X81541000Y-106363200D01*
X86806000Y-106803200D02*
X86730677Y-106803200D01*
X85476000Y-106803200D02*
X85476000Y-107923200D01*
X85460677Y-106803200D02*
X85491323Y-106803200D01*
X84206000Y-106803200D02*
X84206000Y-107923200D01*
X84190677Y-106803200D02*
X84221323Y-106803200D01*
X82936000Y-107123200D02*
X82936000Y-107923200D01*
X81606000Y-107123200D02*
X81606000Y-107923200D01*
X86806000Y-107923200D02*
X86806000Y-106803200D01*
X85851000Y-107923200D02*
X85851000Y-111923200D01*
X84581000Y-107923200D02*
X84581000Y-111923200D01*
X83311000Y-107923200D02*
X83311000Y-111923200D01*
X82461000Y-107923200D02*
X82461000Y-111923200D01*
X82341000Y-107923200D02*
X82341000Y-111923200D01*
X82221000Y-107923200D02*
X82221000Y-111923200D01*
X82101000Y-107923200D02*
X82101000Y-111923200D01*
X82041000Y-107923200D02*
X82041000Y-111923200D01*
X81606000Y-107923200D02*
X86806000Y-107923200D01*
X86371000Y-111923200D02*
X86371000Y-107923200D01*
X85851000Y-111923200D02*
X86371000Y-111923200D01*
X85101000Y-111923200D02*
X85101000Y-107923200D01*
X84581000Y-111923200D02*
X85101000Y-111923200D01*
X83831000Y-111923200D02*
X83831000Y-107923200D01*
X83311000Y-111923200D02*
X83831000Y-111923200D01*
X82561000Y-111923200D02*
X82561000Y-107923200D01*
X82041000Y-111923200D02*
X82561000Y-111923200D01*
%TO.C,TP1*%
X114792800Y-84897000D02*
X114792800Y-82997000D01*
X114792800Y-82997000D02*
X112892800Y-82997000D01*
X112892800Y-84897000D02*
X114792800Y-84897000D01*
X112892800Y-82997000D02*
X112892800Y-84897000D01*
%TD*%
M02*
