M48
; DRILL file {KiCad 7.0.10-7.0.10~ubuntu22.04.1} date Chủ nhật, 20 Tháng 4 Năm 2025 11:35:06 +07
; FORMAT={-:-/ absolute / metric / decimal}
; #@! TF.CreationDate,2025-04-20T11:35:06+07:00
; #@! TF.GenerationSoftware,Kicad,Pcbnew,7.0.10-7.0.10~ubuntu22.04.1
; #@! TF.FileFunction,Plated,1,2,PTH
FMAT,2
METRIC
; #@! TA.AperFunction,Plated,PTH,ViaDrill
T1C0.400
; #@! TA.AperFunction,Plated,PTH,ComponentDrill
T2C0.650
; #@! TA.AperFunction,Plated,PTH,ComponentDrill
T3C0.762
; #@! TA.AperFunction,Plated,PTH,ComponentDrill
T4C1.100
%
G90
G05
T1
X60.935Y-66.421
X64.973Y-66.37
X75.895Y-75.489
X76.505Y-57.023
X78.029Y-76.378
X78.816Y-61.671
X80.467Y-58.928
X80.569Y-55.194
X81.305Y-53.645
X83.541Y-52.222
X86.462Y-55.245
X87.249Y-54.051
X87.325Y-56.363
X88.671Y-66.37
X88.748Y-69.799
X88.875Y-67.793
X89.052Y-61.519
X90.856Y-66.421
X90.881Y-67.793
X91.034Y-57.709
X91.059Y-69.621
X92.354Y-50.8
X92.812Y-51.968
X93.294Y-58.725
X97.003Y-54.331
X98.577Y-95.606
X99.416Y-79.4
X99.466Y-75.209
X101.346Y-50.241
X102.21Y-91.084
X102.362Y-97.358
X104.191Y-92.837
X105.156Y-50.343
X105.232Y-64.44
X106.299Y-95.529
X108.458Y-95.123
X110.388Y-95.047
X110.465Y-92.837
T2
X59.108Y-64.487
X59.743Y-63.387
X60.378Y-62.287
X61.013Y-61.187
X82.301Y-106.363
X83.571Y-106.363
X84.841Y-106.363
X86.111Y-106.363
X108.248Y-61.966
X108.883Y-63.066
X109.518Y-64.166
X110.153Y-65.266
T3
X79.223Y-78.689
X79.223Y-86.309
X81.763Y-78.689
X81.763Y-86.309
X84.303Y-78.689
X84.303Y-86.309
X86.843Y-78.689
X86.843Y-86.309
X89.383Y-78.689
X89.383Y-86.309
T4
X81.054Y-93.798
X81.054Y-98.298
X87.554Y-93.798
X87.554Y-98.298
M30
