%TF.GenerationSoftware,KiCad,Pcbnew,7.0.10-7.0.10~ubuntu22.04.1*%
%TF.CreationDate,2025-04-20T11:22:11+07:00*%
%TF.ProjectId,catan100,63617461-6e31-4303-902e-6b696361645f,rev?*%
%TF.SameCoordinates,Original*%
%TF.FileFunction,Paste,Top*%
%TF.FilePolarity,Positive*%
%FSLAX46Y46*%
G04 Gerber Fmt 4.6, Leading zero omitted, Abs format (unit mm)*
G04 Created by KiCad (PCBNEW 7.0.10-7.0.10~ubuntu22.04.1) date 2025-04-20 11:22:11*
%MOMM*%
%LPD*%
G01*
G04 APERTURE LIST*
G04 Aperture macros list*
%AMRotRect*
0 Rectangle, with rotation*
0 The origin of the aperture is its center*
0 $1 length*
0 $2 width*
0 $3 Rotation angle, in degrees counterclockwise*
0 Add horizontal line*
21,1,$1,$2,0,0,$3*%
G04 Aperture macros list end*
%ADD10RotRect,1.100000X2.000000X35.000000*%
%ADD11RotRect,1.100000X2.000000X95.000000*%
G04 APERTURE END LIST*
D10*
%TO.C,D8*%
X189779375Y-79354955D03*
X188386817Y-80330035D03*
X186994258Y-81305115D03*
X189747425Y-85237045D03*
X191139983Y-84261965D03*
X192532542Y-83286885D03*
%TD*%
D11*
%TO.C,D7*%
X68885768Y-25998443D03*
X69033933Y-27691974D03*
X69182097Y-29385505D03*
X73963832Y-28967157D03*
X73815667Y-27273626D03*
X73667503Y-25580095D03*
%TD*%
%TO.C,D2*%
X79876465Y-146569948D03*
X80024630Y-148263479D03*
X80172794Y-149957010D03*
X84954529Y-149538662D03*
X84806364Y-147845131D03*
X84658200Y-146151600D03*
%TD*%
%TO.C,D6*%
X224308368Y-213755243D03*
X224456533Y-215448774D03*
X224604697Y-217142305D03*
X229386432Y-216723957D03*
X229238267Y-215030426D03*
X229090103Y-213336895D03*
%TD*%
%TO.C,D1*%
X73356168Y-66994043D03*
X73504333Y-68687574D03*
X73652497Y-70381105D03*
X78434232Y-69962757D03*
X78286067Y-68269226D03*
X78137903Y-66575695D03*
%TD*%
%TO.C,D3*%
X144780968Y-101080843D03*
X144929133Y-102774374D03*
X145077297Y-104467905D03*
X149859032Y-104049557D03*
X149710867Y-102356026D03*
X149562703Y-100662495D03*
%TD*%
%TO.C,D4*%
X152197768Y-179897043D03*
X152345933Y-181590574D03*
X152494097Y-183284105D03*
X157275832Y-182865757D03*
X157127667Y-181172226D03*
X156979503Y-179478695D03*
%TD*%
D10*
%TO.C,D9*%
X269027375Y-193146955D03*
X267634817Y-194122035D03*
X266242258Y-195097115D03*
X268995425Y-199029045D03*
X270387983Y-198053965D03*
X271780542Y-197078885D03*
%TD*%
D11*
%TO.C,D5*%
X217019536Y-134278643D03*
X217167701Y-135972174D03*
X217315865Y-137665705D03*
X222097600Y-137247357D03*
X221949435Y-135553826D03*
X221801271Y-133860295D03*
%TD*%
M02*
