M48
; DRILL file {KiCad 7.0.10-7.0.10~ubuntu22.04.1} date Chủ nhật, 20 Tháng 4 Năm 2025 11:22:08 +07
; FORMAT={-:-/ absolute / metric / decimal}
; #@! TF.CreationDate,2025-04-20T11:22:08+07:00
; #@! TF.GenerationSoftware,Kicad,Pcbnew,7.0.10-7.0.10~ubuntu22.04.1
; #@! TF.FileFunction,Plated,1,2,PTH
FMAT,2
METRIC
; #@! TA.AperFunction,Plated,PTH,ViaDrill
T1C0.400
; #@! TA.AperFunction,Plated,PTH,ComponentDrill
T2C0.650
; #@! TA.AperFunction,Plated,PTH,ComponentDrill
T3C0.762
%
G90
G05
T1
X67.31Y-160.02
X67.31Y-162.56
X67.31Y-165.1
X68.58Y-158.75
X68.58Y-167.005
X70.485Y-68.58
X71.12Y-121.92
X76.53Y-27.407
X76.835Y-147.955
X77.14Y-32.868
X78.74Y-27.305
X81.28Y-34.925
X83.449Y-109.22
X83.49Y-69.596
X85.954Y-66.523
X86.893Y-63.932
X88.9Y-146.05
X93.98Y-119.38
X95.25Y-123.19
X96.52Y-125.095
X97.79Y-130.175
X97.79Y-149.225
X99.06Y-96.52
X99.06Y-132.715
X99.06Y-147.955
X100.33Y-145.415
X100.33Y-152.4
X100.33Y-156.845
X100.711Y-150.368
X101.6Y-100.33
X101.6Y-125.73
X101.6Y-128.905
X101.6Y-130.81
X102.235Y-109.22
X102.235Y-115.57
X102.235Y-120.65
X102.235Y-123.825
X103.505Y-130.81
X104.775Y-130.81
X114.681Y-173.482
X116.459Y-171.069
X123.063Y-191.389
X123.952Y-176.276
X124.587Y-192.913
X125.857Y-177.546
X126.111Y-163.703
X126.365Y-193.802
X129.54Y-162.56
X130.429Y-198.374
X131.572Y-178.308
X132.461Y-164.973
X132.715Y-163.195
X132.842Y-194.691
X132.969Y-195.961
X135.382Y-178.816
X136.525Y-182.118
X137.795Y-170.18
X137.795Y-182.245
X138.684Y-172.847
X139.446Y-182.245
X140.97Y-135.509
X141.605Y-130.81
X141.986Y-96.012
X142.875Y-130.81
X143.51Y-116.84
X144.018Y-163.068
X144.145Y-118.11
X144.653Y-180.594
X145.097Y-168.212
X145.796Y-188.087
X146.558Y-177.419
X146.685Y-131.445
X147.193Y-167.132
X147.193Y-184.404
X148.336Y-171.069
X149.352Y-187.579
X149.796Y-189.166
X149.86Y-130.175
X149.86Y-167.259
X149.86Y-170.815
X150.114Y-172.085
X150.622Y-176.53
X151.003Y-174.244
X151.003Y-187.96
X151.765Y-206.375
X152.019Y-169.418
X152.019Y-177.165
X152.4Y-128.905
X153.035Y-99.695
X153.035Y-102.235
X153.67Y-104.14
X154.051Y-164.973
X154.813Y-187.071
X154.94Y-107.315
X154.94Y-128.27
X154.94Y-205.74
X155.067Y-163.83
X157.099Y-176.403
X157.48Y-127.635
X157.48Y-204.47
X159.385Y-202.565
X159.639Y-176.276
X161.798Y-182.245
X162.56Y-201.295
X163.449Y-181.737
X165.1Y-114.935
X167.005Y-113.665
X167.132Y-110.998
X168.91Y-109.855
X168.91Y-197.866
X168.91Y-201.295
X183.515Y-80.01
X185.42Y-88.9
X186.69Y-85.09
X186.69Y-90.17
X189.611Y-173.609
X189.802Y-167.069
X199.644Y-157.226
X202.819Y-150.495
X204.343Y-170.688
X205.74Y-144.145
X207.01Y-142.875
X207.645Y-140.97
X208.788Y-236.601
X212.344Y-235.458
X214.503Y-137.795
X215.138Y-219.964
X216.662Y-224.282
X218.44Y-139.7
X223.266Y-172.466
X224.155Y-139.7
X224.155Y-210.82
X225.044Y-167.259
X225.425Y-135.255
X226.665Y-221.645
X233.045Y-215.9
X233.68Y-218.44
X234.95Y-229.87
X237.49Y-227.33
X240.665Y-225.425
X260.985Y-196.215
X265.43Y-201.93
X266.7Y-191.77
X273.685Y-199.39
T2
X128.939Y-205.843
X129.667Y-206.883
X130.395Y-207.923
X131.124Y-208.964
T3
X71.911Y-79.48
X72.575Y-87.071
X74.441Y-79.259
X75.105Y-86.85
X76.972Y-79.038
X77.636Y-86.629
X78.388Y-159.008
X79.052Y-166.599
X79.502Y-78.816
X80.166Y-86.407
X80.918Y-158.786
X81.582Y-166.377
X82.032Y-78.595
X82.696Y-86.186
X83.449Y-158.565
X84.113Y-166.156
X85.979Y-158.344
X86.643Y-165.935
X88.509Y-158.122
X89.173Y-165.713
X143.324Y-113.436
X143.988Y-121.027
X145.855Y-113.215
X146.519Y-120.806
X148.385Y-112.994
X149.049Y-120.585
X150.589Y-192.303
X150.915Y-112.772
X151.253Y-199.894
X151.579Y-120.363
X153.119Y-192.082
X153.446Y-112.551
X153.783Y-199.673
X154.11Y-120.142
X155.649Y-191.861
X156.313Y-199.452
X158.18Y-191.639
X158.844Y-199.23
X160.71Y-191.418
X161.374Y-199.009
X215.354Y-146.605
X216.019Y-154.196
X217.885Y-146.384
X218.549Y-153.975
X220.415Y-146.163
X221.079Y-153.754
X222.771Y-226.006
X222.945Y-145.941
X223.435Y-233.597
X223.61Y-153.532
X225.302Y-225.784
X225.476Y-145.72
X225.966Y-233.375
X226.14Y-153.311
X227.832Y-225.563
X228.496Y-233.154
X230.362Y-225.342
X231.026Y-232.933
X232.893Y-225.12
X233.557Y-232.711
M30
