%TF.GenerationSoftware,KiCad,Pcbnew,7.0.10-7.0.10~ubuntu22.04.1*%
%TF.CreationDate,2025-04-20T11:22:11+07:00*%
%TF.ProjectId,catan100,63617461-6e31-4303-902e-6b696361645f,rev?*%
%TF.SameCoordinates,Original*%
%TF.FileFunction,Copper,L2,Bot*%
%TF.FilePolarity,Positive*%
%FSLAX46Y46*%
G04 Gerber Fmt 4.6, Leading zero omitted, Abs format (unit mm)*
G04 Created by KiCad (PCBNEW 7.0.10-7.0.10~ubuntu22.04.1) date 2025-04-20 11:22:11*
%MOMM*%
%LPD*%
G01*
G04 APERTURE LIST*
G04 Aperture macros list*
%AMRoundRect*
0 Rectangle with rounded corners*
0 $1 Rounding radius*
0 $2 $3 $4 $5 $6 $7 $8 $9 X,Y pos of 4 corners*
0 Add a 4 corners polygon primitive as box body*
4,1,4,$2,$3,$4,$5,$6,$7,$8,$9,$2,$3,0*
0 Add four circle primitives for the rounded corners*
1,1,$1+$1,$2,$3*
1,1,$1+$1,$4,$5*
1,1,$1+$1,$6,$7*
1,1,$1+$1,$8,$9*
0 Add four rect primitives between the rounded corners*
20,1,$1+$1,$2,$3,$4,$5,0*
20,1,$1+$1,$4,$5,$6,$7,0*
20,1,$1+$1,$6,$7,$8,$9,0*
20,1,$1+$1,$8,$9,$2,$3,0*%
%AMHorizOval*
0 Thick line with rounded ends*
0 $1 width*
0 $2 $3 position (X,Y) of the first rounded end (center of the circle)*
0 $4 $5 position (X,Y) of the second rounded end (center of the circle)*
0 Add line between two ends*
20,1,$1,$2,$3,$4,$5,0*
0 Add two circle primitives to create the rounded ends*
1,1,$1,$2,$3*
1,1,$1,$4,$5*%
%AMRotRect*
0 Rectangle, with rotation*
0 The origin of the aperture is its center*
0 $1 length*
0 $2 width*
0 $3 Rotation angle, in degrees counterclockwise*
0 Add horizontal line*
21,1,$1,$2,0,0,$3*%
G04 Aperture macros list end*
%TA.AperFunction,ComponentPad*%
%ADD10C,1.524000*%
%TD*%
%TA.AperFunction,SMDPad,CuDef*%
%ADD11RoundRect,0.250000X0.412500X0.925000X-0.412500X0.925000X-0.412500X-0.925000X0.412500X-0.925000X0*%
%TD*%
%TA.AperFunction,SMDPad,CuDef*%
%ADD12RoundRect,0.225000X0.268659X-0.202355X0.229439X0.245933X-0.268659X0.202355X-0.229439X-0.245933X0*%
%TD*%
%TA.AperFunction,SMDPad,CuDef*%
%ADD13RoundRect,0.150000X0.634453X0.206080X-0.660600X0.092778X-0.634453X-0.206080X0.660600X-0.092778X0*%
%TD*%
%TA.AperFunction,SMDPad,CuDef*%
%ADD14RoundRect,0.075000X0.125000X0.075000X-0.125000X0.075000X-0.125000X-0.075000X0.125000X-0.075000X0*%
%TD*%
%TA.AperFunction,ComponentPad*%
%ADD15RotRect,1.000000X1.000000X215.000000*%
%TD*%
%TA.AperFunction,ComponentPad*%
%ADD16HorizOval,1.000000X0.000000X0.000000X0.000000X0.000000X0*%
%TD*%
%TA.AperFunction,SMDPad,CuDef*%
%ADD17RoundRect,0.075000X-0.125000X-0.075000X0.125000X-0.075000X0.125000X0.075000X-0.125000X0.075000X0*%
%TD*%
%TA.AperFunction,ViaPad*%
%ADD18C,0.800000*%
%TD*%
%TA.AperFunction,Conductor*%
%ADD19C,0.250000*%
%TD*%
G04 APERTURE END LIST*
D10*
%TO.P,U4,1,e*%
%TO.N,Net-(D1-BA)*%
X143988394Y-121027453D03*
%TO.P,U4,2,d*%
%TO.N,Net-(D1-GA)*%
X146518729Y-120806077D03*
%TO.P,U4,3,c*%
%TO.N,Net-(D1-RA)*%
X149049063Y-120584702D03*
%TO.P,U4,4,g*%
%TO.N,Net-(D2-BA)*%
X151579398Y-120363326D03*
%TO.P,U4,5,dp*%
%TO.N,Net-(D2-GA)*%
X154109732Y-120141951D03*
%TO.P,U4,6,b*%
%TO.N,Net-(U1-GRID7)*%
X153445606Y-112550947D03*
%TO.P,U4,7,a*%
%TO.N,Net-(D2-RA)*%
X150915271Y-112772323D03*
%TO.P,U4,8,b*%
%TO.N,Net-(D9-RA)*%
X148384937Y-112993698D03*
%TO.P,U4,9,g*%
%TO.N,Net-(U1-GRID8)*%
X145854602Y-113215074D03*
%TO.P,U4,10,f*%
%TO.N,Net-(D9-BA)*%
X143324268Y-113436449D03*
%TD*%
%TO.P,U6,1,e*%
%TO.N,Net-(D1-BA)*%
X216018588Y-154196306D03*
%TO.P,U6,2,d*%
%TO.N,Net-(D1-GA)*%
X218548923Y-153974930D03*
%TO.P,U6,3,c*%
%TO.N,Net-(D1-RA)*%
X221079257Y-153753555D03*
%TO.P,U6,4,g*%
%TO.N,Net-(D2-BA)*%
X223609592Y-153532179D03*
%TO.P,U6,5,dp*%
%TO.N,Net-(D2-GA)*%
X226139926Y-153310804D03*
%TO.P,U6,6,b*%
%TO.N,Net-(U1-GRID3)*%
X225475800Y-145719800D03*
%TO.P,U6,7,a*%
%TO.N,Net-(D2-RA)*%
X222945465Y-145941176D03*
%TO.P,U6,8,b*%
%TO.N,Net-(D9-RA)*%
X220415131Y-146162551D03*
%TO.P,U6,9,g*%
%TO.N,Net-(U1-GRID4)*%
X217884796Y-146383927D03*
%TO.P,U6,10,f*%
%TO.N,Net-(D9-BA)*%
X215354462Y-146605302D03*
%TD*%
%TO.P,U7,1,e*%
%TO.N,Net-(D1-BA)*%
X223435388Y-233596706D03*
%TO.P,U7,2,d*%
%TO.N,Net-(D1-GA)*%
X225965723Y-233375330D03*
%TO.P,U7,3,c*%
%TO.N,Net-(D1-RA)*%
X228496057Y-233153955D03*
%TO.P,U7,4,g*%
%TO.N,Net-(D2-BA)*%
X231026392Y-232932579D03*
%TO.P,U7,5,dp*%
%TO.N,Net-(D2-GA)*%
X233556726Y-232711204D03*
%TO.P,U7,6,b*%
%TO.N,Net-(U1-GRID1)*%
X232892600Y-225120200D03*
%TO.P,U7,7,a*%
%TO.N,Net-(D2-RA)*%
X230362265Y-225341576D03*
%TO.P,U7,8,b*%
%TO.N,Net-(D9-RA)*%
X227831931Y-225562951D03*
%TO.P,U7,9,g*%
%TO.N,Net-(U1-GRID2)*%
X225301596Y-225784327D03*
%TO.P,U7,10,f*%
%TO.N,Net-(D9-BA)*%
X222771262Y-226005702D03*
%TD*%
%TO.P,U2,1,e*%
%TO.N,Net-(D1-BA)*%
X72575123Y-87071330D03*
%TO.P,U2,2,d*%
%TO.N,Net-(D1-GA)*%
X75105458Y-86849954D03*
%TO.P,U2,3,c*%
%TO.N,Net-(D1-RA)*%
X77635792Y-86628579D03*
%TO.P,U2,4,g*%
%TO.N,Net-(D2-BA)*%
X80166127Y-86407203D03*
%TO.P,U2,5,dp*%
%TO.N,Net-(D2-GA)*%
X82696461Y-86185828D03*
%TO.P,U2,6,b*%
%TO.N,Net-(U1-GRID11)*%
X82032335Y-78594824D03*
%TO.P,U2,7,a*%
%TO.N,Net-(D2-RA)*%
X79502000Y-78816200D03*
%TO.P,U2,8,b*%
%TO.N,Net-(D9-RA)*%
X76971666Y-79037575D03*
%TO.P,U2,9,g*%
%TO.N,Net-(U1-GRID12)*%
X74441331Y-79258951D03*
%TO.P,U2,10,f*%
%TO.N,Net-(D9-BA)*%
X71910997Y-79480326D03*
%TD*%
%TO.P,U5,1,e*%
%TO.N,Net-(D1-BA)*%
X151252794Y-199894453D03*
%TO.P,U5,2,d*%
%TO.N,Net-(D1-GA)*%
X153783129Y-199673077D03*
%TO.P,U5,3,c*%
%TO.N,Net-(D1-RA)*%
X156313463Y-199451702D03*
%TO.P,U5,4,g*%
%TO.N,Net-(D2-BA)*%
X158843798Y-199230326D03*
%TO.P,U5,5,dp*%
%TO.N,Net-(D2-GA)*%
X161374132Y-199008951D03*
%TO.P,U5,6,b*%
%TO.N,Net-(U1-GRID5)*%
X160710006Y-191417947D03*
%TO.P,U5,7,a*%
%TO.N,Net-(D2-RA)*%
X158179671Y-191639323D03*
%TO.P,U5,8,b*%
%TO.N,Net-(D9-RA)*%
X155649337Y-191860698D03*
%TO.P,U5,9,g*%
%TO.N,Net-(U1-GRID6)*%
X153119002Y-192082074D03*
%TO.P,U5,10,f*%
%TO.N,Net-(D9-BA)*%
X150588668Y-192303449D03*
%TD*%
%TO.P,U3,1,e*%
%TO.N,Net-(D1-BA)*%
X79052123Y-166598730D03*
%TO.P,U3,2,d*%
%TO.N,Net-(D1-GA)*%
X81582458Y-166377354D03*
%TO.P,U3,3,c*%
%TO.N,Net-(D1-RA)*%
X84112792Y-166155979D03*
%TO.P,U3,4,g*%
%TO.N,Net-(D2-BA)*%
X86643127Y-165934603D03*
%TO.P,U3,5,dp*%
%TO.N,Net-(D2-GA)*%
X89173461Y-165713228D03*
%TO.P,U3,6,b*%
%TO.N,Net-(U1-GRID9)*%
X88509335Y-158122224D03*
%TO.P,U3,7,a*%
%TO.N,Net-(D2-RA)*%
X85979000Y-158343600D03*
%TO.P,U3,8,b*%
%TO.N,Net-(D9-RA)*%
X83448666Y-158564975D03*
%TO.P,U3,9,g*%
%TO.N,Net-(U1-GRID10)*%
X80918331Y-158786351D03*
%TO.P,U3,10,f*%
%TO.N,Net-(D9-BA)*%
X78387997Y-159007726D03*
%TD*%
D11*
%TO.P,C2,1*%
%TO.N,Net-(J1-Pin_4)*%
X131077500Y-195834000D03*
%TO.P,C2,2*%
%TO.N,Net-(J1-Pin_3)*%
X128002500Y-195834000D03*
%TD*%
D12*
%TO.P,C1,1*%
%TO.N,Net-(J1-Pin_4)*%
X146439092Y-171089102D03*
%TO.P,C1,2*%
%TO.N,Net-(J1-Pin_3)*%
X146304000Y-169545000D03*
%TD*%
D13*
%TO.P,U1,1,GRID12*%
%TO.N,Net-(U1-GRID12)*%
X139315235Y-163554222D03*
%TO.P,U1,2,GRID13*%
%TO.N,Net-(D1-BK)*%
X139425923Y-164819389D03*
%TO.P,U1,3,GRID14*%
%TO.N,Net-(D3-BK)*%
X139536611Y-166084557D03*
%TO.P,U1,4,GRID15*%
%TO.N,Net-(D5-BK)*%
X139647298Y-167349724D03*
%TO.P,U1,5,GRID16*%
%TO.N,Net-(D7-BK)*%
X139757986Y-168614891D03*
%TO.P,U1,6,VSS*%
%TO.N,Net-(J1-Pin_3)*%
X139868674Y-169880058D03*
%TO.P,U1,7,DIN*%
%TO.N,Net-(J1-Pin_2)*%
X139979362Y-171145226D03*
%TO.P,U1,8,SCLK*%
%TO.N,Net-(J1-Pin_1)*%
X140090050Y-172410393D03*
%TO.P,U1,9,SEG1*%
%TO.N,Net-(D1-BA)*%
X140200737Y-173675560D03*
%TO.P,U1,10,SEG2*%
%TO.N,Net-(D1-GA)*%
X140311425Y-174940727D03*
%TO.P,U1,11,SEG3*%
%TO.N,Net-(D1-RA)*%
X140422113Y-176205895D03*
%TO.P,U1,12,SEG4*%
%TO.N,Net-(D2-BA)*%
X140532801Y-177471062D03*
%TO.P,U1,13,SEG5*%
%TO.N,Net-(D2-GA)*%
X140643489Y-178736229D03*
%TO.P,U1,14,SEG6*%
%TO.N,Net-(D2-RA)*%
X140754176Y-180001396D03*
%TO.P,U1,15,SEG7*%
%TO.N,Net-(D9-RA)*%
X130343942Y-180912174D03*
%TO.P,U1,16,SEG8*%
%TO.N,Net-(D9-BA)*%
X130233254Y-179647007D03*
%TO.P,U1,17,VDD*%
%TO.N,Net-(J1-Pin_4)*%
X130122566Y-178381839D03*
%TO.P,U1,18,GRID1*%
%TO.N,Net-(U1-GRID1)*%
X130011878Y-177116672D03*
%TO.P,U1,19,GRID2*%
%TO.N,Net-(U1-GRID2)*%
X129901191Y-175851505D03*
%TO.P,U1,20,GRID3*%
%TO.N,Net-(U1-GRID3)*%
X129790503Y-174586338D03*
%TO.P,U1,21,GRID4*%
%TO.N,Net-(U1-GRID4)*%
X129679815Y-173321170D03*
%TO.P,U1,22,GRID5*%
%TO.N,Net-(U1-GRID5)*%
X129569127Y-172056003D03*
%TO.P,U1,23,GRID6*%
%TO.N,Net-(U1-GRID6)*%
X129458439Y-170790836D03*
%TO.P,U1,24,GRID7*%
%TO.N,Net-(U1-GRID7)*%
X129347752Y-169525669D03*
%TO.P,U1,25,GRID8*%
%TO.N,Net-(U1-GRID8)*%
X129237064Y-168260501D03*
%TO.P,U1,26,GRID9*%
%TO.N,Net-(U1-GRID9)*%
X129126376Y-166995334D03*
%TO.P,U1,27,GRID10*%
%TO.N,Net-(U1-GRID10)*%
X129015688Y-165730167D03*
%TO.P,U1,28,GRID11*%
%TO.N,Net-(U1-GRID11)*%
X128905000Y-164465000D03*
%TD*%
D14*
%TO.P,R1,1*%
%TO.N,Net-(J1-Pin_4)*%
X131335000Y-199390000D03*
%TO.P,R1,2*%
%TO.N,Net-(J1-Pin_2)*%
X130835000Y-199390000D03*
%TD*%
D15*
%TO.P,J1,1,Pin_1*%
%TO.N,Net-(J1-Pin_1)*%
X128938558Y-205842677D03*
D16*
%TO.P,J1,2,Pin_2*%
%TO.N,Net-(J1-Pin_2)*%
X129667000Y-206883000D03*
%TO.P,J1,3,Pin_3*%
%TO.N,Net-(J1-Pin_3)*%
X130395442Y-207923323D03*
%TO.P,J1,4,Pin_4*%
%TO.N,Net-(J1-Pin_4)*%
X131123884Y-208963646D03*
%TD*%
D17*
%TO.P,R2,1*%
%TO.N,Net-(J1-Pin_4)*%
X133358000Y-199390000D03*
%TO.P,R2,2*%
%TO.N,Net-(J1-Pin_1)*%
X133858000Y-199390000D03*
%TD*%
D18*
%TO.N,Net-(J1-Pin_1)*%
X138684000Y-172847000D03*
X132969000Y-195961000D03*
%TO.N,Net-(J1-Pin_2)*%
X130429000Y-198374000D03*
X135382000Y-178816000D03*
%TO.N,Net-(D1-BK)*%
X126111000Y-163703000D03*
X100711000Y-150368000D03*
X70485000Y-68580000D03*
X132461000Y-164973000D03*
X76835000Y-147955000D03*
%TO.N,Net-(D1-BA)*%
X145796000Y-188087000D03*
X93980000Y-119380000D03*
X83489800Y-69596000D03*
X102235000Y-120650000D03*
X139446000Y-182245000D03*
X153670000Y-104140000D03*
X77139800Y-32867600D03*
X151765000Y-206375000D03*
X218440000Y-139700000D03*
X146685000Y-131445000D03*
X68580000Y-167005000D03*
%TO.N,Net-(D1-GA)*%
X154051000Y-164973000D03*
X102235000Y-123825000D03*
X149860000Y-170815000D03*
X76530200Y-27406600D03*
X153035000Y-102235000D03*
X224155000Y-139700000D03*
X154940000Y-205740000D03*
X95250000Y-123190000D03*
X149860000Y-130175000D03*
X85953600Y-66522600D03*
X67310000Y-165100000D03*
%TO.N,Net-(D1-RA)*%
X225425000Y-135255000D03*
X157480000Y-204470000D03*
X78740000Y-27305000D03*
X67310000Y-162560000D03*
X153035000Y-99695000D03*
X101600000Y-125730000D03*
X86893400Y-63931800D03*
X96520000Y-125095000D03*
X150114000Y-172085000D03*
X152400000Y-128905000D03*
X155067000Y-163830000D03*
%TO.N,Net-(D2-BA)*%
X154940000Y-128270000D03*
X234950000Y-229870000D03*
X97790000Y-149225000D03*
X97790000Y-130175000D03*
X159385000Y-202565000D03*
X101600000Y-128905000D03*
X233680000Y-218440000D03*
X185420000Y-88900000D03*
X67310000Y-160020000D03*
X146558000Y-177419000D03*
%TO.N,Net-(D2-GA)*%
X162560000Y-201295000D03*
X68580000Y-158750000D03*
X157480000Y-127635000D03*
X233045000Y-215900000D03*
X99060000Y-147955000D03*
X168910000Y-201295000D03*
X168910000Y-197866000D03*
X99060000Y-132715000D03*
X186690000Y-90170000D03*
X159639000Y-176276000D03*
X101600000Y-130810000D03*
X161798000Y-182245000D03*
X151003000Y-174244000D03*
%TO.N,Net-(D2-RA)*%
X163449000Y-181737000D03*
X186690000Y-85090000D03*
X207645000Y-140970000D03*
X88900000Y-146050000D03*
X154940000Y-107315000D03*
X154813000Y-187071000D03*
X168910000Y-109855000D03*
X144653000Y-180594000D03*
X226665344Y-221644656D03*
X100330000Y-145415000D03*
%TO.N,Net-(D3-BK)*%
X152019000Y-177165000D03*
X167132000Y-110998000D03*
%TO.N,Net-(D5-BK)*%
X260985000Y-196215000D03*
X149860000Y-167259000D03*
X224155000Y-210820000D03*
X202819000Y-150495000D03*
X214503000Y-137795000D03*
X199644000Y-157226000D03*
X189801500Y-167068500D03*
X189611000Y-173609000D03*
X147193000Y-167132000D03*
%TO.N,Net-(J1-Pin_3)*%
X126365000Y-193802000D03*
X137795000Y-170180000D03*
%TO.N,Net-(J1-Pin_4)*%
X131572000Y-178308000D03*
X132842000Y-194691000D03*
X148336000Y-171069000D03*
%TO.N,Net-(U1-GRID12)*%
X99060000Y-96520000D03*
X132715000Y-163195000D03*
X129540000Y-162560000D03*
X104775000Y-130810000D03*
%TO.N,Net-(D7-BK)*%
X145097500Y-168211500D03*
X140970000Y-135509000D03*
X183515000Y-80010000D03*
X141986000Y-96012000D03*
X266700000Y-191770000D03*
X144018000Y-163068000D03*
X152019000Y-169418000D03*
X81280000Y-34925000D03*
%TO.N,Net-(D9-BA)*%
X137795000Y-182245000D03*
X102235000Y-115570000D03*
X265430000Y-201930000D03*
X165100000Y-114935000D03*
X149796500Y-189166500D03*
X205740000Y-144145000D03*
X237490000Y-227330000D03*
X71120000Y-121920000D03*
%TO.N,Net-(D9-RA)*%
X167005000Y-113665000D03*
X207010000Y-142875000D03*
X83448666Y-109220000D03*
X149352000Y-187579000D03*
X102235000Y-109220000D03*
X273685000Y-199390000D03*
X240665000Y-225425000D03*
X136525000Y-182118000D03*
%TO.N,Net-(U1-GRID1)*%
X208788000Y-236601000D03*
X124587000Y-192913000D03*
X215138000Y-219964000D03*
X125857000Y-177546000D03*
%TO.N,Net-(U1-GRID2)*%
X216662000Y-224282000D03*
X123063000Y-191389000D03*
X123952000Y-176276000D03*
X212344000Y-235458000D03*
%TO.N,Net-(U1-GRID3)*%
X150622000Y-176530000D03*
X157099000Y-176403000D03*
X223266000Y-172466000D03*
X225044000Y-167259000D03*
%TO.N,Net-(U1-GRID4)*%
X204343000Y-170688000D03*
%TO.N,Net-(U1-GRID6)*%
X151003000Y-187960000D03*
X147193000Y-184404000D03*
X114681000Y-173482000D03*
X116459000Y-171069000D03*
%TO.N,Net-(U1-GRID7)*%
X142875000Y-130810000D03*
X144145000Y-118110000D03*
%TO.N,Net-(U1-GRID8)*%
X141605000Y-130810000D03*
X143510000Y-116840000D03*
%TO.N,Net-(U1-GRID9)*%
X100330000Y-156845000D03*
%TO.N,Net-(U1-GRID10)*%
X100330000Y-152400000D03*
%TO.N,Net-(U1-GRID11)*%
X101600000Y-100330000D03*
X103505000Y-130810000D03*
%TD*%
D19*
%TO.N,Net-(J1-Pin_1)*%
X133858000Y-197612000D02*
X133858000Y-199390000D01*
X132969000Y-196723000D02*
X133858000Y-197612000D01*
X133858000Y-199390000D02*
X133858000Y-200923235D01*
X133858000Y-200923235D02*
X128938558Y-205842677D01*
X132969000Y-195961000D02*
X132969000Y-196723000D01*
X140090050Y-172410393D02*
X139120607Y-172410393D01*
X139120607Y-172410393D02*
X138684000Y-172847000D01*
%TO.N,Net-(J1-Pin_2)*%
X135382000Y-175006000D02*
X135382000Y-178816000D01*
X130429000Y-198374000D02*
X130429000Y-198984000D01*
X127254000Y-204978000D02*
X130835000Y-201397000D01*
X128143000Y-207645000D02*
X127254000Y-206756000D01*
X130429000Y-198984000D02*
X130835000Y-199390000D01*
X128905000Y-207645000D02*
X128143000Y-207645000D01*
X139242774Y-171145226D02*
X135382000Y-175006000D01*
X129667000Y-206883000D02*
X128905000Y-207645000D01*
X139979362Y-171145226D02*
X139242774Y-171145226D01*
X127254000Y-206756000D02*
X127254000Y-204978000D01*
X130835000Y-201397000D02*
X130835000Y-199390000D01*
%TO.N,Net-(D1-BK)*%
X66675000Y-70485000D02*
X66675000Y-137795000D01*
X68580000Y-68580000D02*
X66675000Y-70485000D01*
X132614611Y-164819389D02*
X132461000Y-164973000D01*
X70485000Y-68580000D02*
X68580000Y-68580000D01*
X66675000Y-137795000D02*
X76835000Y-147955000D01*
X126111000Y-163703000D02*
X114046000Y-163703000D01*
X114046000Y-163703000D02*
X100711000Y-150368000D01*
X139425923Y-164819389D02*
X132614611Y-164819389D01*
%TO.N,Net-(D1-BA)*%
X207010000Y-154305000D02*
X207645000Y-154940000D01*
X207010000Y-154305000D02*
X204470000Y-154305000D01*
X139318341Y-187960000D02*
X139065000Y-187960000D01*
X204470000Y-154305000D02*
X172720000Y-122555000D01*
X108331000Y-69596000D02*
X115570000Y-76835000D01*
X78848793Y-93345000D02*
X84455000Y-93345000D01*
X102612453Y-121027453D02*
X102235000Y-120650000D01*
X206926706Y-233596706D02*
X181610000Y-208280000D01*
X78880026Y-187960000D02*
X78105000Y-187960000D01*
X215274894Y-154940000D02*
X216018588Y-154196306D01*
X84455000Y-93345000D02*
X93980000Y-102870000D01*
X181610000Y-208280000D02*
X154940000Y-208280000D01*
X85090000Y-161290000D02*
X83820000Y-162560000D01*
X84709000Y-68376800D02*
X83489800Y-69596000D01*
X155575000Y-122555000D02*
X146685000Y-131445000D01*
X223435388Y-233596706D02*
X206926706Y-233596706D01*
X77139800Y-53365400D02*
X84709000Y-60934600D01*
X139445341Y-188087000D02*
X145796000Y-188087000D01*
X83489800Y-69596000D02*
X108331000Y-69596000D01*
X137357699Y-104140000D02*
X153670000Y-104140000D01*
X136144000Y-175133000D02*
X137601440Y-173675560D01*
X207645000Y-154940000D02*
X215274894Y-154940000D01*
X72575123Y-87071330D02*
X78848793Y-93345000D01*
X77139800Y-32867600D02*
X77139800Y-53365400D01*
X93980000Y-119380000D02*
X93980000Y-159385000D01*
X138049000Y-180467000D02*
X136144000Y-178562000D01*
X172720000Y-122555000D02*
X155575000Y-122555000D01*
X137601440Y-173675560D02*
X140200737Y-173675560D01*
X154940000Y-208280000D02*
X153670000Y-208280000D01*
X115570000Y-82352301D02*
X137357699Y-104140000D01*
X83090853Y-162560000D02*
X79052123Y-166598730D01*
X136144000Y-178562000D02*
X136144000Y-175133000D01*
X218440000Y-139700000D02*
X212725000Y-139700000D01*
X115570000Y-76835000D02*
X115570000Y-82352301D01*
X139065000Y-187960000D02*
X78880026Y-187960000D01*
X78105000Y-187960000D02*
X68580000Y-178435000D01*
X93980000Y-102870000D02*
X93980000Y-119380000D01*
X93980000Y-159385000D02*
X92075000Y-161290000D01*
X84709000Y-60934600D02*
X84709000Y-68376800D01*
X68580000Y-178435000D02*
X68580000Y-167005000D01*
X153670000Y-208280000D02*
X151765000Y-206375000D01*
X83820000Y-162560000D02*
X83090853Y-162560000D01*
X139318341Y-187960000D02*
X139445341Y-188087000D01*
X139446000Y-182245000D02*
X138049000Y-180848000D01*
X207010000Y-145415000D02*
X207010000Y-154305000D01*
X92075000Y-161290000D02*
X85090000Y-161290000D01*
X151252794Y-199894453D02*
X139318341Y-187960000D01*
X143988394Y-121027453D02*
X102612453Y-121027453D01*
X212725000Y-139700000D02*
X207010000Y-145415000D01*
X138049000Y-180848000D02*
X138049000Y-180467000D01*
%TO.N,Net-(D1-GA)*%
X154051000Y-164973000D02*
X154051000Y-134366000D01*
X67310000Y-169545000D02*
X67310000Y-165100000D01*
X212725000Y-140970000D02*
X208280000Y-145415000D01*
X205740000Y-157480000D02*
X192405000Y-144145000D01*
X153783129Y-199673077D02*
X153783129Y-200546871D01*
X225965723Y-233375330D02*
X224365393Y-231775000D01*
X102870000Y-124460000D02*
X102235000Y-123825000D01*
X76200000Y-187325000D02*
X67945000Y-179070000D01*
X77470000Y-188595000D02*
X76200000Y-187325000D01*
X107315000Y-66040000D02*
X143510000Y-102235000D01*
X95250000Y-123190000D02*
X95250000Y-159385000D01*
X146518729Y-123356271D02*
X146050000Y-123825000D01*
X146050000Y-123825000D02*
X144145000Y-123825000D01*
X154051000Y-134366000D02*
X149860000Y-130175000D01*
X95250000Y-102870000D02*
X95250000Y-105410000D01*
X86436200Y-66040000D02*
X107315000Y-66040000D01*
X86034812Y-161925000D02*
X81582458Y-166377354D01*
X192405000Y-144145000D02*
X172085000Y-123825000D01*
X156210000Y-123825000D02*
X149860000Y-130175000D01*
X78028800Y-28905200D02*
X76530200Y-27406600D01*
X146050000Y-196215000D02*
X138430000Y-188595000D01*
X143510000Y-102235000D02*
X153035000Y-102235000D01*
X75105458Y-86849954D02*
X80330504Y-92075000D01*
X172085000Y-123825000D02*
X156210000Y-123825000D01*
X216973993Y-152400000D02*
X218548923Y-153974930D01*
X180975000Y-205740000D02*
X154940000Y-205740000D01*
X78028800Y-48234600D02*
X78028800Y-28905200D01*
X140311425Y-174940727D02*
X145734273Y-174940727D01*
X85953600Y-66522600D02*
X85953600Y-60680600D01*
X218548923Y-156101077D02*
X217170000Y-157480000D01*
X144145000Y-123825000D02*
X143510000Y-124460000D01*
X208280000Y-149225000D02*
X211455000Y-152400000D01*
X145734273Y-174940727D02*
X149860000Y-170815000D01*
X217170000Y-157480000D02*
X205740000Y-157480000D01*
X207010000Y-231775000D02*
X180975000Y-205740000D01*
X218548923Y-153974930D02*
X218548923Y-156101077D01*
X222885000Y-140970000D02*
X212725000Y-140970000D01*
X67945000Y-179070000D02*
X67945000Y-170180000D01*
X67945000Y-170180000D02*
X67310000Y-169545000D01*
X138430000Y-188595000D02*
X77470000Y-188595000D01*
X84632800Y-59359800D02*
X78028800Y-52755800D01*
X95250000Y-159385000D02*
X92710000Y-161925000D01*
X146050000Y-198755000D02*
X146050000Y-196215000D01*
X143510000Y-124460000D02*
X102870000Y-124460000D01*
X146518729Y-120806077D02*
X146518729Y-123356271D01*
X85953600Y-60680600D02*
X84632800Y-59359800D01*
X153783129Y-200546871D02*
X153035000Y-201295000D01*
X85953600Y-66522600D02*
X86436200Y-66040000D01*
X224155000Y-139700000D02*
X222885000Y-140970000D01*
X211455000Y-152400000D02*
X216973993Y-152400000D01*
X95250000Y-105410000D02*
X95250000Y-123190000D01*
X208280000Y-145415000D02*
X208280000Y-149225000D01*
X80330504Y-92075000D02*
X84455000Y-92075000D01*
X92710000Y-161925000D02*
X86034812Y-161925000D01*
X224365393Y-231775000D02*
X207010000Y-231775000D01*
X149860000Y-202565000D02*
X146050000Y-198755000D01*
X78028800Y-52755800D02*
X78028800Y-48234600D01*
X153035000Y-201295000D02*
X151765000Y-202565000D01*
X84455000Y-92075000D02*
X95250000Y-102870000D01*
X151765000Y-202565000D02*
X149860000Y-202565000D01*
%TO.N,Net-(D1-RA)*%
X86893400Y-63931800D02*
X86893400Y-60401200D01*
X140422113Y-176205895D02*
X145993105Y-176205895D01*
X65405000Y-166121116D02*
X65405000Y-164465000D01*
X225425000Y-139700000D02*
X223520000Y-141605000D01*
X149049063Y-120584702D02*
X149049063Y-122095937D01*
X219090702Y-151765000D02*
X221079257Y-153753555D01*
X151130000Y-203200000D02*
X149860000Y-203200000D01*
X225425000Y-135255000D02*
X225425000Y-139700000D01*
X207645000Y-230505000D02*
X181610000Y-204470000D01*
X81812213Y-90805000D02*
X85090000Y-90805000D01*
X76835000Y-189230000D02*
X66675000Y-179070000D01*
X221079257Y-153753555D02*
X221079257Y-154831185D01*
X221079257Y-154831185D02*
X217160442Y-158750000D01*
X228496057Y-233153955D02*
X225847102Y-230505000D01*
X96520000Y-125095000D02*
X96520000Y-160020000D01*
X181610000Y-204470000D02*
X180975000Y-204470000D01*
X145415000Y-196850000D02*
X137795000Y-189230000D01*
X145993105Y-176205895D02*
X150114000Y-172085000D01*
X86893400Y-60401200D02*
X78841600Y-52349400D01*
X155067000Y-163830000D02*
X155067000Y-131572000D01*
X153035000Y-128905000D02*
X152400000Y-128905000D01*
X149049063Y-122095937D02*
X144780000Y-126365000D01*
X137795000Y-189230000D02*
X76835000Y-189230000D01*
X85090000Y-90805000D02*
X96520000Y-102235000D01*
X213360000Y-141605000D02*
X208915000Y-146050000D01*
X225847102Y-230505000D02*
X207645000Y-230505000D01*
X223520000Y-141605000D02*
X213360000Y-141605000D01*
X87708771Y-162560000D02*
X84112792Y-166155979D01*
X150495000Y-97155000D02*
X153035000Y-99695000D01*
X212090000Y-151765000D02*
X219090702Y-151765000D01*
X172085000Y-125095000D02*
X156845000Y-125095000D01*
X102235000Y-126365000D02*
X101600000Y-125730000D01*
X65405000Y-177800000D02*
X65405000Y-166121116D01*
X155067000Y-131572000D02*
X152400000Y-128905000D01*
X180975000Y-204470000D02*
X157480000Y-204470000D01*
X140970000Y-97155000D02*
X150495000Y-97155000D01*
X96520000Y-102235000D02*
X96520000Y-125095000D01*
X93980000Y-162560000D02*
X87708771Y-162560000D01*
X66675000Y-179070000D02*
X65405000Y-177800000D01*
X65405000Y-164465000D02*
X67310000Y-162560000D01*
X215900000Y-158750000D02*
X205740000Y-158750000D01*
X107746800Y-63931800D02*
X140970000Y-97155000D01*
X217160442Y-158750000D02*
X215900000Y-158750000D01*
X156845000Y-125095000D02*
X153035000Y-128905000D01*
X86893400Y-63931800D02*
X107746800Y-63931800D01*
X77635792Y-86628579D02*
X81812213Y-90805000D01*
X208915000Y-146050000D02*
X208915000Y-148590000D01*
X149860000Y-203200000D02*
X145415000Y-198755000D01*
X145415000Y-198755000D02*
X145415000Y-196850000D01*
X156313463Y-199451702D02*
X152565165Y-203200000D01*
X208915000Y-148590000D02*
X212090000Y-151765000D01*
X196850000Y-149860000D02*
X172085000Y-125095000D01*
X78841600Y-52349400D02*
X78740000Y-52247800D01*
X144780000Y-126365000D02*
X102235000Y-126365000D01*
X96520000Y-160020000D02*
X93980000Y-162560000D01*
X152565165Y-203200000D02*
X151130000Y-203200000D01*
X78740000Y-52247800D02*
X78740000Y-27305000D01*
X205740000Y-158750000D02*
X196850000Y-149860000D01*
%TO.N,Net-(D2-BA)*%
X140532801Y-177471062D02*
X146505938Y-177471062D01*
X234950000Y-219710000D02*
X234950000Y-229870000D01*
X97790000Y-130175000D02*
X97790000Y-149225000D01*
X137160000Y-189865000D02*
X76200000Y-189865000D01*
X200025000Y-221615000D02*
X182245000Y-203835000D01*
X64770000Y-178435000D02*
X64770000Y-162560000D01*
X205740000Y-160020000D02*
X176530000Y-130810000D01*
X179705000Y-203200000D02*
X160020000Y-203200000D01*
X231026392Y-232932579D02*
X227963813Y-229870000D01*
X154305000Y-203835000D02*
X149225000Y-203835000D01*
X157480000Y-126365000D02*
X155575000Y-128270000D01*
X154524124Y-203615876D02*
X154305000Y-203835000D01*
X185420000Y-88900000D02*
X183042724Y-88900000D01*
X151579398Y-121470602D02*
X144780000Y-128270000D01*
X144780000Y-128270000D02*
X102235000Y-128270000D01*
X154524124Y-203550000D02*
X154524124Y-203615876D01*
X160020000Y-203200000D02*
X159385000Y-202565000D01*
X85725000Y-89535000D02*
X97790000Y-101600000D01*
X151579398Y-120363326D02*
X151579398Y-121470602D01*
X80166127Y-86407203D02*
X83293924Y-89535000D01*
X97790000Y-149225000D02*
X97790000Y-160020000D01*
X215900000Y-160020000D02*
X205740000Y-160020000D01*
X176530000Y-130810000D02*
X172085000Y-126365000D01*
X217121771Y-160020000D02*
X215900000Y-160020000D01*
X102235000Y-128270000D02*
X101600000Y-128905000D01*
X155575000Y-128270000D02*
X154940000Y-128270000D01*
X227963813Y-229870000D02*
X208280000Y-229870000D01*
X146505938Y-177471062D02*
X146558000Y-177419000D01*
X182245000Y-203835000D02*
X181610000Y-203200000D01*
X233680000Y-218440000D02*
X234950000Y-219710000D01*
X223609592Y-153532179D02*
X217121771Y-160020000D01*
X97790000Y-160020000D02*
X93980000Y-163830000D01*
X144145000Y-198755000D02*
X144145000Y-196850000D01*
X64770000Y-162560000D02*
X67310000Y-160020000D01*
X181610000Y-203200000D02*
X179705000Y-203200000D01*
X158843798Y-199230326D02*
X154524124Y-203550000D01*
X144145000Y-196850000D02*
X137160000Y-189865000D01*
X97790000Y-101600000D02*
X97790000Y-130175000D01*
X83293924Y-89535000D02*
X85725000Y-89535000D01*
X149225000Y-203835000D02*
X144145000Y-198755000D01*
X76200000Y-189865000D02*
X64770000Y-178435000D01*
X208280000Y-229870000D02*
X200025000Y-221615000D01*
X88747730Y-163830000D02*
X86643127Y-165934603D01*
X183042724Y-88900000D02*
X151579398Y-120363326D01*
X172085000Y-126365000D02*
X157480000Y-126365000D01*
X93980000Y-163830000D02*
X88747730Y-163830000D01*
%TO.N,Net-(D2-GA)*%
X199390000Y-219710000D02*
X180975000Y-201295000D01*
X89173461Y-165713228D02*
X94001772Y-165713228D01*
X159639000Y-176276000D02*
X161798000Y-178435000D01*
X161798000Y-182245000D02*
X161798000Y-189230000D01*
X66675000Y-158750000D02*
X68580000Y-158750000D01*
X202565000Y-158115000D02*
X172085000Y-127635000D01*
X99060000Y-100330000D02*
X84915828Y-86185828D01*
X143510000Y-129540000D02*
X102870000Y-129540000D01*
X172085000Y-127635000D02*
X157480000Y-127635000D01*
X84915828Y-86185828D02*
X82696461Y-86185828D01*
X142875000Y-198755000D02*
X142875000Y-196850000D01*
X161374132Y-199008951D02*
X155913083Y-204470000D01*
X75565000Y-190500000D02*
X74295000Y-189230000D01*
X136525000Y-190500000D02*
X132715000Y-190500000D01*
X213995000Y-160655000D02*
X205105000Y-160655000D01*
X156718049Y-120141951D02*
X154109732Y-120141951D01*
X142875000Y-196850000D02*
X136525000Y-190500000D01*
X148590000Y-204470000D02*
X146685000Y-202565000D01*
X146510771Y-178736229D02*
X151003000Y-174244000D01*
X205105000Y-160655000D02*
X202565000Y-158115000D01*
X118745000Y-190500000D02*
X75565000Y-190500000D01*
X161798000Y-178435000D02*
X161798000Y-182245000D01*
X154109732Y-120141951D02*
X144711683Y-129540000D01*
X230080522Y-229235000D02*
X226060000Y-229235000D01*
X66040000Y-159385000D02*
X66675000Y-158750000D01*
X66040000Y-160406116D02*
X66040000Y-159385000D01*
X180975000Y-201295000D02*
X168910000Y-201295000D01*
X64135000Y-162311116D02*
X66040000Y-160406116D01*
X233045000Y-215900000D02*
X236220000Y-219075000D01*
X168910000Y-196342000D02*
X168910000Y-197866000D01*
X154305000Y-204470000D02*
X148590000Y-204470000D01*
X102870000Y-129540000D02*
X101600000Y-130810000D01*
X233556726Y-232711204D02*
X230080522Y-229235000D01*
X144711683Y-129540000D02*
X143510000Y-129540000D01*
X226060000Y-229235000D02*
X208915000Y-229235000D01*
X218795730Y-160655000D02*
X213995000Y-160655000D01*
X236220000Y-219075000D02*
X236220000Y-230047930D01*
X64135000Y-177165000D02*
X64135000Y-162311116D01*
X226139926Y-153310804D02*
X218795730Y-160655000D01*
X146685000Y-202565000D02*
X142875000Y-198755000D01*
X161798000Y-189230000D02*
X168910000Y-196342000D01*
X64135000Y-179070000D02*
X64135000Y-177165000D01*
X208915000Y-229235000D02*
X199390000Y-219710000D01*
X99060000Y-147955000D02*
X99060000Y-132715000D01*
X74295000Y-189230000D02*
X64135000Y-179070000D01*
X140643489Y-178736229D02*
X146510771Y-178736229D01*
X99060000Y-132715000D02*
X99060000Y-100330000D01*
X155913083Y-204470000D02*
X154305000Y-204470000D01*
X94001772Y-165713228D02*
X99060000Y-160655000D01*
X168910000Y-201295000D02*
X162560000Y-201295000D01*
X186690000Y-90170000D02*
X156718049Y-120141951D01*
X99060000Y-160655000D02*
X99060000Y-147955000D01*
X132715000Y-190500000D02*
X118745000Y-190500000D01*
X236220000Y-230047930D02*
X233556726Y-232711204D01*
%TO.N,Net-(D2-RA)*%
X163449000Y-181737000D02*
X163449000Y-189611000D01*
X170561000Y-198755000D02*
X167005000Y-198755000D01*
X150915271Y-111339729D02*
X150915271Y-111545271D01*
X154813000Y-187071000D02*
X154813000Y-188272652D01*
X80645000Y-80645000D02*
X80645000Y-79959200D01*
X100330000Y-100330000D02*
X100330000Y-145415000D01*
X226000689Y-220980000D02*
X204470000Y-220980000D01*
X88900000Y-146050000D02*
X85979000Y-148971000D01*
X159385000Y-194310000D02*
X158179671Y-193104671D01*
X100330000Y-100330000D02*
X80645000Y-80645000D01*
X152595348Y-186055000D02*
X80010000Y-186055000D01*
X144060396Y-180001396D02*
X144653000Y-180594000D01*
X77470000Y-162560000D02*
X81762600Y-162560000D01*
X182245000Y-198755000D02*
X170561000Y-198755000D01*
X155164674Y-188624326D02*
X152595348Y-186055000D01*
X170561000Y-196723000D02*
X170561000Y-198755000D01*
X85979000Y-148971000D02*
X85979000Y-158343600D01*
X230362265Y-225341576D02*
X226665344Y-221644656D01*
X154813000Y-188272652D02*
X155164674Y-188624326D01*
X154940000Y-107315000D02*
X154622500Y-107632500D01*
X207645000Y-140970000D02*
X176530000Y-109855000D01*
X154622500Y-107632500D02*
X150915271Y-111339729D01*
X186690000Y-85090000D02*
X177165000Y-85090000D01*
X140754176Y-180001396D02*
X144060396Y-180001396D01*
X167005000Y-198755000D02*
X162560000Y-194310000D01*
X177165000Y-85090000D02*
X154940000Y-107315000D01*
X150915271Y-112772323D02*
X150915271Y-111545271D01*
X226665344Y-221644656D02*
X226000689Y-220980000D01*
X81762600Y-162560000D02*
X85979000Y-158343600D01*
X80645000Y-79959200D02*
X79502000Y-78816200D01*
X70485000Y-169545000D02*
X77470000Y-162560000D01*
X204470000Y-220980000D02*
X182245000Y-198755000D01*
X176530000Y-109855000D02*
X168910000Y-109855000D01*
X150915271Y-111545271D02*
X147320000Y-107950000D01*
X162560000Y-194310000D02*
X159385000Y-194310000D01*
X147320000Y-107950000D02*
X107950000Y-107950000D01*
X107950000Y-107950000D02*
X100330000Y-100330000D01*
X70485000Y-176530000D02*
X70485000Y-169545000D01*
X163449000Y-189611000D02*
X170561000Y-196723000D01*
X158179671Y-191639323D02*
X155164674Y-188624326D01*
X80010000Y-186055000D02*
X70485000Y-176530000D01*
X158179671Y-193104671D02*
X158179671Y-191639323D01*
%TO.N,Net-(D3-BK)*%
X147066000Y-165989000D02*
X147066000Y-135382000D01*
X150749000Y-169672000D02*
X152019000Y-170942000D01*
X147161557Y-166084557D02*
X147066000Y-165989000D01*
X147701000Y-127762000D02*
X154051000Y-121412000D01*
X145923000Y-129540000D02*
X147701000Y-127762000D01*
X152019000Y-170942000D02*
X152019000Y-177165000D01*
X145923000Y-134239000D02*
X145923000Y-129794000D01*
X146050000Y-134366000D02*
X145923000Y-134239000D01*
X157734000Y-121412000D02*
X162433000Y-116713000D01*
X162433000Y-116713000D02*
X162433000Y-115697000D01*
X145923000Y-129794000D02*
X145923000Y-129540000D01*
X147161557Y-166084557D02*
X150749000Y-169672000D01*
X139536611Y-166084557D02*
X147161557Y-166084557D01*
X154051000Y-121412000D02*
X157734000Y-121412000D01*
X162433000Y-115697000D02*
X167132000Y-110998000D01*
X147066000Y-135382000D02*
X146050000Y-134366000D01*
%TO.N,Net-(D5-BK)*%
X139647298Y-167349724D02*
X146975276Y-167349724D01*
X189801500Y-167068500D02*
X199644000Y-157226000D01*
X238569500Y-196405500D02*
X215773000Y-173609000D01*
X213487000Y-137795000D02*
X214503000Y-137795000D01*
X189611000Y-167259000D02*
X189801500Y-167068500D01*
X238760000Y-196215000D02*
X238569500Y-196405500D01*
X149860000Y-167259000D02*
X189611000Y-167259000D01*
X238569500Y-196405500D02*
X224155000Y-210820000D01*
X146975276Y-167349724D02*
X147193000Y-167132000D01*
X202819000Y-150495000D02*
X202819000Y-148463000D01*
X202819000Y-148463000D02*
X206121000Y-145161000D01*
X206121000Y-145161000D02*
X213487000Y-137795000D01*
X215773000Y-173609000D02*
X189611000Y-173609000D01*
X260985000Y-196215000D02*
X238760000Y-196215000D01*
%TO.N,Net-(J1-Pin_3)*%
X126365000Y-194196500D02*
X126365000Y-193802000D01*
X128002500Y-202832500D02*
X125603000Y-205232000D01*
X125603000Y-206756000D02*
X127508000Y-208661000D01*
X128002500Y-195834000D02*
X126365000Y-194196500D01*
X137795000Y-170180000D02*
X139568732Y-170180000D01*
X125603000Y-205232000D02*
X125603000Y-206756000D01*
X129657765Y-208661000D02*
X130395442Y-207923323D01*
X127508000Y-208661000D02*
X129657765Y-208661000D01*
X140203732Y-169545000D02*
X139868674Y-169880058D01*
X139568732Y-170180000D02*
X139868674Y-169880058D01*
X146304000Y-169545000D02*
X140203732Y-169545000D01*
X128002500Y-195834000D02*
X128002500Y-202832500D01*
%TO.N,Net-(J1-Pin_4)*%
X133428354Y-208963646D02*
X137668000Y-204724000D01*
X131699000Y-195834000D02*
X132842000Y-194691000D01*
X131123884Y-208963646D02*
X133428354Y-208963646D01*
X131335000Y-196091500D02*
X131077500Y-195834000D01*
X137668000Y-199009000D02*
X133350000Y-194691000D01*
X131077500Y-195834000D02*
X131699000Y-195834000D01*
X133358000Y-199390000D02*
X131335000Y-199390000D01*
X130323405Y-178181000D02*
X130122566Y-178381839D01*
X146439092Y-171089102D02*
X148315898Y-171089102D01*
X148315898Y-171089102D02*
X148336000Y-171069000D01*
X133350000Y-194691000D02*
X132842000Y-194691000D01*
X137668000Y-204724000D02*
X137668000Y-199009000D01*
X131572000Y-178308000D02*
X130196405Y-178308000D01*
X131335000Y-199390000D02*
X131335000Y-196091500D01*
X130196405Y-178308000D02*
X130122566Y-178381839D01*
%TO.N,Net-(U1-GRID12)*%
X82550000Y-76073000D02*
X77627282Y-76073000D01*
X129540000Y-162560000D02*
X104775000Y-137795000D01*
X83820000Y-77343000D02*
X82550000Y-76073000D01*
X133074222Y-163554222D02*
X132715000Y-163195000D01*
X104775000Y-137795000D02*
X104775000Y-130810000D01*
X83820000Y-81280000D02*
X83820000Y-77343000D01*
X139315235Y-163554222D02*
X133074222Y-163554222D01*
X99060000Y-96520000D02*
X83820000Y-81280000D01*
X77627282Y-76073000D02*
X74441331Y-79258951D01*
%TO.N,Net-(D7-BK)*%
X85725000Y-39370000D02*
X92075000Y-39370000D01*
X140970000Y-160020000D02*
X144018000Y-163068000D01*
X141859000Y-96012000D02*
X141986000Y-96012000D01*
X100965000Y-48260000D02*
X100965000Y-55245000D01*
X152019000Y-169418000D02*
X226695000Y-169418000D01*
X263271000Y-191770000D02*
X262509000Y-191008000D01*
X92075000Y-39370000D02*
X100965000Y-48260000D01*
X125730000Y-80010000D02*
X125857000Y-80010000D01*
X144694109Y-168614891D02*
X145097500Y-168211500D01*
X125857000Y-80010000D02*
X141859000Y-96012000D01*
X100965000Y-55245000D02*
X116205000Y-70485000D01*
X81280000Y-34925000D02*
X85725000Y-39370000D01*
X140970000Y-135509000D02*
X140970000Y-160020000D01*
X266700000Y-191770000D02*
X263271000Y-191770000D01*
X125857000Y-80010000D02*
X183515000Y-80010000D01*
X116205000Y-70485000D02*
X125730000Y-80010000D01*
X226695000Y-169418000D02*
X248285000Y-191008000D01*
X248285000Y-191008000D02*
X262509000Y-191008000D01*
X139757986Y-168614891D02*
X144694109Y-168614891D01*
%TO.N,Net-(D9-BA)*%
X152400000Y-196215000D02*
X150495000Y-194310000D01*
X70111323Y-81280000D02*
X71910997Y-79480326D01*
X206955702Y-226005702D02*
X180975000Y-200025000D01*
X143324268Y-113436449D02*
X104368551Y-113436449D01*
X70135000Y-89820000D02*
X67945000Y-87630000D01*
X262890000Y-201930000D02*
X237490000Y-227330000D01*
X180975000Y-200025000D02*
X165735000Y-200025000D01*
X161290000Y-196215000D02*
X152400000Y-196215000D01*
X147955000Y-187325000D02*
X78740000Y-187325000D01*
X188595000Y-136525000D02*
X167005000Y-114935000D01*
X70135000Y-120935000D02*
X70135000Y-89820000D01*
X163195000Y-198120000D02*
X161290000Y-196215000D01*
X71120000Y-121920000D02*
X70135000Y-120935000D01*
X78740000Y-187325000D02*
X69215000Y-177800000D01*
X69215000Y-168275000D02*
X73025000Y-164465000D01*
X130233254Y-179647007D02*
X135197007Y-179647007D01*
X78387997Y-159007726D02*
X78387997Y-147602997D01*
X69215000Y-177800000D02*
X69215000Y-168275000D01*
X165735000Y-200025000D02*
X164465000Y-198755000D01*
X73025000Y-164370723D02*
X78387997Y-159007726D01*
X73025000Y-164465000D02*
X73025000Y-164370723D01*
X67945000Y-82550000D02*
X69215000Y-81280000D01*
X104368551Y-113436449D02*
X102235000Y-115570000D01*
X205740000Y-144145000D02*
X196215000Y-144145000D01*
X265430000Y-201930000D02*
X262890000Y-201930000D01*
X69215000Y-81280000D02*
X70111323Y-81280000D01*
X150588668Y-194216332D02*
X150588668Y-192303449D01*
X222771262Y-226005702D02*
X206955702Y-226005702D01*
X135197007Y-179647007D02*
X137795000Y-182245000D01*
X78387997Y-147602997D02*
X71120000Y-140335000D01*
X196215000Y-144145000D02*
X188595000Y-136525000D01*
X163830000Y-198120000D02*
X163195000Y-198120000D01*
X150588668Y-192303449D02*
X150588668Y-189958668D01*
X67945000Y-87630000D02*
X67945000Y-82550000D01*
X164465000Y-198755000D02*
X163830000Y-198120000D01*
X71120000Y-140335000D02*
X71120000Y-121920000D01*
X149796500Y-189166500D02*
X147955000Y-187325000D01*
X167005000Y-114935000D02*
X165100000Y-114935000D01*
X150588668Y-189958668D02*
X149796500Y-189166500D01*
X150495000Y-194310000D02*
X150588668Y-194216332D01*
%TO.N,Net-(D9-RA)*%
X134938174Y-180912174D02*
X136144000Y-182118000D01*
X69850000Y-177165000D02*
X69850000Y-168910000D01*
X162560000Y-195580000D02*
X159368639Y-195580000D01*
X83448666Y-158564975D02*
X83448666Y-109220000D01*
X225425000Y-221615000D02*
X203835000Y-221615000D01*
X148384937Y-112993698D02*
X148384937Y-110919937D01*
X70485000Y-87630000D02*
X70485000Y-86995000D01*
X76971666Y-81778334D02*
X76971666Y-79037575D01*
X149352000Y-187579000D02*
X149352000Y-186817000D01*
X166370000Y-199390000D02*
X162560000Y-195580000D01*
X148384937Y-110919937D02*
X146685000Y-109220000D01*
X269240000Y-203835000D02*
X263525000Y-203835000D01*
X80088641Y-161925000D02*
X83448666Y-158564975D01*
X273685000Y-199390000D02*
X269240000Y-203835000D01*
X136144000Y-182118000D02*
X136525000Y-182118000D01*
X70485000Y-86995000D02*
X74295000Y-83185000D01*
X74295000Y-83185000D02*
X75565000Y-83185000D01*
X196215000Y-142875000D02*
X167005000Y-113665000D01*
X130343942Y-180912174D02*
X134176174Y-180912174D01*
X241935000Y-225425000D02*
X240665000Y-225425000D01*
X159368639Y-195580000D02*
X155649337Y-191860698D01*
X152400000Y-186690000D02*
X149225000Y-186690000D01*
X155649337Y-191860698D02*
X155649337Y-189939337D01*
X149352000Y-186817000D02*
X149225000Y-186690000D01*
X207010000Y-142875000D02*
X196215000Y-142875000D01*
X79375000Y-186690000D02*
X69850000Y-177165000D01*
X203835000Y-221615000D02*
X181610000Y-199390000D01*
X227831931Y-224021931D02*
X225425000Y-221615000D01*
X181610000Y-199390000D02*
X166370000Y-199390000D01*
X69850000Y-168910000D02*
X76835000Y-161925000D01*
X134176174Y-180912174D02*
X134938174Y-180912174D01*
X146685000Y-109220000D02*
X102235000Y-109220000D01*
X83448666Y-109220000D02*
X83448666Y-100593666D01*
X76835000Y-161925000D02*
X80088641Y-161925000D01*
X227831931Y-225562951D02*
X227831931Y-224021931D01*
X149225000Y-186690000D02*
X79375000Y-186690000D01*
X263525000Y-203835000D02*
X241935000Y-225425000D01*
X83448666Y-100593666D02*
X70485000Y-87630000D01*
X75565000Y-83185000D02*
X76971666Y-81778334D01*
X155649337Y-189939337D02*
X152400000Y-186690000D01*
%TO.N,Net-(U1-GRID1)*%
X232892600Y-225120200D02*
X232892600Y-222859600D01*
X125857000Y-177546000D02*
X126286328Y-177116672D01*
X143129000Y-203327000D02*
X132715000Y-192913000D01*
X229870000Y-219837000D02*
X215265000Y-219837000D01*
X232892600Y-222859600D02*
X229870000Y-219837000D01*
X132715000Y-192913000D02*
X124587000Y-192913000D01*
X208788000Y-236601000D02*
X205867000Y-236601000D01*
X215265000Y-219837000D02*
X215138000Y-219964000D01*
X205867000Y-236601000D02*
X180467000Y-211201000D01*
X126286328Y-177116672D02*
X130011878Y-177116672D01*
X180467000Y-211201000D02*
X151003000Y-211201000D01*
X151003000Y-211201000D02*
X143129000Y-203327000D01*
%TO.N,Net-(U1-GRID2)*%
X156210000Y-209423000D02*
X151638000Y-209423000D01*
X133604000Y-191389000D02*
X123063000Y-191389000D01*
X221234000Y-223520000D02*
X217424000Y-223520000D01*
X124376495Y-175851505D02*
X129901191Y-175851505D01*
X123952000Y-176276000D02*
X124376495Y-175851505D01*
X212344000Y-235458000D02*
X207137000Y-235458000D01*
X225301596Y-225784327D02*
X223037269Y-223520000D01*
X151638000Y-209423000D02*
X135382000Y-193167000D01*
X207137000Y-235458000D02*
X181610000Y-209931000D01*
X181102000Y-209423000D02*
X156210000Y-209423000D01*
X181610000Y-209931000D02*
X181102000Y-209423000D01*
X135382000Y-193167000D02*
X133604000Y-191389000D01*
X217424000Y-223520000D02*
X216662000Y-224282000D01*
X223037269Y-223520000D02*
X221234000Y-223520000D01*
%TO.N,Net-(U1-GRID3)*%
X228981000Y-149225000D02*
X225475800Y-145719800D01*
X129790503Y-174586338D02*
X117132662Y-174586338D01*
X115570000Y-177419000D02*
X121539000Y-183388000D01*
X115570000Y-176149000D02*
X115570000Y-177419000D01*
X227126926Y-165176074D02*
X227126926Y-155270074D01*
X121539000Y-183388000D02*
X143764000Y-183388000D01*
X225044000Y-167259000D02*
X227126926Y-165176074D01*
X157099000Y-176403000D02*
X161036000Y-172466000D01*
X117132662Y-174586338D02*
X115570000Y-176149000D01*
X161036000Y-172466000D02*
X223266000Y-172466000D01*
X228981000Y-153416000D02*
X228981000Y-149225000D01*
X227126926Y-155270074D02*
X228981000Y-153416000D01*
X143764000Y-183388000D02*
X150622000Y-176530000D01*
%TO.N,Net-(U1-GRID4)*%
X129679815Y-173321170D02*
X116873830Y-173321170D01*
X150876000Y-178308000D02*
X153543000Y-178308000D01*
X114681000Y-177800000D02*
X117856000Y-180975000D01*
X150622000Y-178562000D02*
X150876000Y-178308000D01*
X161163000Y-170688000D02*
X204343000Y-170688000D01*
X146050000Y-183896000D02*
X147193000Y-182753000D01*
X127635000Y-183896000D02*
X146050000Y-183896000D01*
X147193000Y-182753000D02*
X147193000Y-181991000D01*
X114681000Y-175514000D02*
X114681000Y-177800000D01*
X117856000Y-180975000D02*
X120777000Y-183896000D01*
X153543000Y-178308000D02*
X161163000Y-170688000D01*
X147193000Y-181991000D02*
X150622000Y-178562000D01*
X116873830Y-173321170D02*
X114681000Y-175514000D01*
X120777000Y-183896000D02*
X127635000Y-183896000D01*
%TO.N,Net-(U1-GRID5)*%
X119634000Y-185293000D02*
X113157000Y-178816000D01*
X154585059Y-185293000D02*
X119634000Y-185293000D01*
X114074997Y-172056003D02*
X129569127Y-172056003D01*
X160710006Y-191417947D02*
X154585059Y-185293000D01*
X113157000Y-178816000D02*
X113157000Y-172974000D01*
X113157000Y-172974000D02*
X114074997Y-172056003D01*
%TO.N,Net-(U1-GRID6)*%
X120015000Y-184404000D02*
X113792000Y-178181000D01*
X153119002Y-190076002D02*
X151003000Y-187960000D01*
X113792000Y-178181000D02*
X113792000Y-174371000D01*
X116459000Y-171069000D02*
X116737164Y-170790836D01*
X147193000Y-184404000D02*
X120015000Y-184404000D01*
X116737164Y-170790836D02*
X129458439Y-170790836D01*
X153119002Y-192082074D02*
X153119002Y-190076002D01*
X113792000Y-174371000D02*
X114681000Y-173482000D01*
%TO.N,Net-(U1-GRID7)*%
X129347752Y-169525669D02*
X130194331Y-169525669D01*
X153445606Y-113889394D02*
X152400000Y-114935000D01*
X152400000Y-114935000D02*
X147320000Y-114935000D01*
X153445606Y-112550947D02*
X153445606Y-113889394D01*
X131445000Y-142240000D02*
X142875000Y-130810000D01*
X147320000Y-114935000D02*
X144145000Y-118110000D01*
X130194331Y-169525669D02*
X131445000Y-168275000D01*
X131445000Y-168275000D02*
X131445000Y-142240000D01*
%TO.N,Net-(U1-GRID8)*%
X129237064Y-168260501D02*
X130189499Y-168260501D01*
X145854602Y-114495398D02*
X145854602Y-113215074D01*
X143510000Y-116840000D02*
X145854602Y-114495398D01*
X130810000Y-167640000D02*
X130810000Y-141605000D01*
X130189499Y-168260501D02*
X130810000Y-167640000D01*
X130810000Y-141605000D02*
X141605000Y-130810000D01*
%TO.N,Net-(U1-GRID9)*%
X110480334Y-166995334D02*
X100330000Y-156845000D01*
X129126376Y-166995334D02*
X110480334Y-166995334D01*
%TO.N,Net-(U1-GRID10)*%
X129015688Y-165730167D02*
X113660167Y-165730167D01*
X113660167Y-165730167D02*
X100330000Y-152400000D01*
%TO.N,Net-(U1-GRID11)*%
X128905000Y-164465000D02*
X103505000Y-139065000D01*
X101600000Y-100330000D02*
X82032335Y-80762335D01*
X82032335Y-80762335D02*
X82032335Y-78594824D01*
X103505000Y-139065000D02*
X103505000Y-130810000D01*
%TD*%
M02*
